<?xml version="1.0" encoding="utf-8"?>
<!-- Generator: Adobe Illustrator 21.0.2, SVG Export Plug-In . SVG Version: 6.00 Build 0)  -->
<svg version="1.1" id="Layer_1" xmlns="http://www.w3.org/2000/svg" xmlns:xlink="http://www.w3.org/1999/xlink" x="0px" y="0px"
	 viewBox="0 0 202.9 159.6" style="enable-background:new 0 0 202.9 159.6;" xml:space="preserve">
<style type="text/css">
	.st0{fill:url(#SVGID_1_);}
	.st1{fill:#1D264C;}
	.st2{fill:#40487D;}
	.st3{fill:#7B82A8;}
	.st4{fill:#303A68;}
	.st5{fill:#1F1E21;}
	.st6{fill:#2F2E33;}
	.st7{fill:#FFFFFF;}
	.st8{fill:#86858E;}
	.st9{fill:#BB2025;}
	.st10{fill:#66481C;}
	.st11{fill:#7C5522;}
	.st12{fill:#E5D7B5;}
	.st13{fill:#BDAE8E;}
	.st14{fill:none;}
	.st15{fill:#CCBA71;}
	.st16{fill:#2A286B;}
	.st17{font-family:'BerkshireSwash-Regular';}
	.st18{font-size:15.283px;}
	.st19{fill:#77563E;}
	.st20{fill:#604735;}
	.st21{fill:#3F2E23;}
	.st22{fill:#70331A;}
	.st23{fill:#5E2714;}
	.st24{fill:#774B2B;}
	.st25{fill:#5B3A25;}
	.st26{fill:#352317;}
	.st27{fill:#F47521;}
	.st28{fill:#F89A1C;}
	.st29{fill:#FDC110;}
	.st30{fill:#3CA1BC;}
	.st31{fill:#5EB9CE;}
	.st32{fill:#88C7DE;}
	.st33{fill:#D7C661;}
	.st34{fill:#F4E890;}
	.st35{fill:#FFF9DA;}
	.st36{opacity:0.9;fill:#FAFBFF;enable-background:new    ;}
	.st37{fill:#DCD1C1;}
	.st38{fill:#6D8CB2;}
	.st39{fill:#4E687F;}
	.st40{fill:#926DAF;}
	.st41{fill:#644D7D;}
	.st42{fill:#AD6D8D;}
	.st43{fill:#85536F;}
	.st44{fill:#6CA974;}
	.st45{fill:#548258;}
	.st46{fill:#D2B02B;}
	.st47{fill:#997F2E;}
	.st48{fill:#947A7A;}
	.st49{fill:#724F4E;}
	.st50{opacity:0.3;fill:#4E4FA1;enable-background:new    ;}
</style>
<linearGradient id="SVGID_1_" gradientUnits="userSpaceOnUse" x1="-1046.179" y1="481.0969" x2="-924.779" y2="481.0969" gradientTransform="matrix(0 -1 1 0 -379.1969 -924.779)">
	<stop  offset="0" style="stop-color:#242062"/>
	<stop  offset="0.2994" style="stop-color:#231F5F"/>
	<stop  offset="0.4857" style="stop-color:#201C57"/>
	<stop  offset="0.6411" style="stop-color:#1B1848"/>
	<stop  offset="0.7796" style="stop-color:#131134"/>
	<stop  offset="0.9055" style="stop-color:#090819"/>
	<stop  offset="1" style="stop-color:#000000"/>
</linearGradient>
<polygon class="st0" points="-0.1,0 203.9,0 203.9,121.4 -0.1,121.4 "/>
<g>
	<path class="st1" d="M68.7,92.8c6.3-5.4,10,4.5,9.3,9.7c-0.8,5.3-5.5,11-9.1,14.6c-2,2-3.7,4.2-6.6,2.9c-3.4-1.7-1.6-2-0.6-5.8
		C63.4,107,66.4,99.9,68.7,92.8z"/>
	<path class="st1" d="M-19.1,92.8c-6.3-5.4-10,4.5-9.3,9.7c0.8,5.3,5.5,11,9.1,14.6c2,2,3.7,4.2,6.6,2.9c3.4-1.7,1.6-2,0.6-5.8
		C-13.9,107-16.7,99.9-19.1,92.8z"/>
	<path class="st2" d="M61.6,58.3c-9.8-9.2-22.4-11.4-35.3-10.6c-0.6-0.2-1.2-0.2-1.7-0.1c-0.4-0.1-0.9,0-1.5,0.2
		c-13-0.2-25.4,2.5-34.8,12.2c-10.2,10.5-11.4,22-9.6,35.8c3,21.8,23.1,57,49.2,55.2l0,0c25.2-0.9,43.1-35.9,45-57.3
		C74.1,79.8,72.2,68.4,61.6,58.3z"/>
	<ellipse class="st3" cx="48.7" cy="99.4" rx="10.6" ry="3.2"/>
	<ellipse class="st1" cx="56" cy="99.4" rx="3.4" ry="1.8"/>
	<ellipse class="st3" cx="5.3" cy="99.4" rx="10.6" ry="3.2"/>
	<ellipse class="st1" cx="12.5" cy="99.4" rx="3.4" ry="1.8"/>
	<path class="st4" d="M36.3,90.4c6.3,0.4,12.7,1,19.1,0.8c-6-0.6-11.6-1.4-17.5-2.9c-4.2-1-9.4-1.9-12.2,1.6
		c-2.7-3.6-8-2.6-12.2-1.6c-5.7,1.6-11.4,2.3-17.3,3c6.3,0,12.7-0.5,19-1c6.2,1.2,5.2,9.9,4.1,14.5c-0.6,2.8-6.2,14,0.6,12.4
		c-0.4-0.5-0.7-1.4-1.1-1.8c1.6,1.3,2.9,1.9,5.1,1.8c0.7,0,1.3,0,1.7-0.1c0.4,0,0.9,0,1.7,0.1c2.2,0.1,3.5-0.5,5.1-1.8
		c-0.3,0.4-0.6,1.3-1.1,1.8c6.9,1.6,1.3-9.6,0.6-12.4C31.1,100.3,30,91.5,36.3,90.4z"/>
	<path class="st4" d="M39.4,101.9c6.1,3.4,13.5,3.2,20.3,3.2c-3,1.1-6.1,1.2-9.3,1.1c-1.9-0.1-8-1.8-6.9,0.7
		c2.1,4.5,14.3,3.7,18,3.3c-6.7,3.9-19.7,1.8-22.8-5.8c-1.6,2.6,0.2,5.6,2.4,7.3c-6.6-1.2-7.5-13.3-2.9-16.6
		c6.3-4.7,16.2-3.5,22,1.3c-5.3-2.1-10.4-3.2-16.1-1.6C41.7,95.3,32.6,99.6,39.4,101.9z"/>
	<path class="st4" d="M14.9,101.9c-6.1,3.4-13.5,3.2-20.3,3.2c3,1.1,6.1,1.2,9.3,1.1c1.9-0.1,8-1.8,6.9,0.7
		c-2.1,4.5-14.3,3.7-18,3.3c6.7,3.9,19.7,1.8,22.8-5.8c1.6,2.6-0.2,5.6-2.4,7.3c6.6-1.2,7.5-13.3,2.9-16.6c-6.3-4.7-16.2-3.5-22,1.3
		c5.3-2.1,10.4-3.2,16.1-1.6C12.7,95.3,21.9,99.6,14.9,101.9z"/>
	<path class="st1" d="M20.5,84.1c-4.9,1.6-9.8,3.2-14.9,3.9c-5.5,0.7-9.9,1.6-15,3.9c3.6-5.2,7.6-5.5,13.6-6.3
		c6.1-0.8,11.3-2,17.2-3.9C21.1,82.5,20.8,83.3,20.5,84.1z"/>
	<path class="st1" d="M31.3,84.1c4.9,1.6,9.8,3.2,14.9,3.9c5.5,0.7,9.9,1.6,15,3.9c-3.6-5.2-7.6-5.5-13.6-6.3
		c-6.1-0.8-11.3-2-17.2-3.9C30.7,82.5,31,83.3,31.3,84.1z"/>
</g>
<circle class="st5" cx="87.2" cy="41.5" r="3.6"/>
<ellipse class="st5" cx="90.9" cy="57.9" rx="3.6" ry="5.3"/>
<g>
	<path class="st5" d="M97,25.2c-0.2-0.8-0.4-1.7-0.6-2.5c-0.1-0.6-1-2.1-1.6-2.1s-2,1.7-2.3,2.2c-0.7,1.1-1.1,2.2-0.8,3.5
		c0.2,0.5,0.7,1,0.8,1.4c0.1,0.4-0.4,0.6-0.9,0.9c-0.9,0.7-1.2,1.8-1.7,2.9c-0.6,1.2-0.6,1.7-0.6,3c0,1.5,0.3,2,1,3.3
		c0.3,0.6,1.7,2.5,2.4,2.3c1.1,0.7,2.4,1.9,3.7,2c1.7,0.3,3.7,0,5.4,0c0-5.6,0-11.3,0-16.9c-1.3,0.1-2.6,0.3-3.9,0.5
		C97.1,25.9,97.2,25.9,97,25.2z"/>
	<path class="st5" d="M113.8,31.5c-0.5-1.1-0.8-2.2-1.7-2.9c-0.5-0.3-1-0.5-0.9-0.9s0.6-0.9,0.8-1.4c0.3-1.3-0.1-2.4-0.8-3.5
		c-0.3-0.5-1.7-2.2-2.3-2.2c-0.6,0-1.5,1.5-1.6,2.1c-0.2,0.8-0.4,1.7-0.6,2.5c-0.2,0.7-0.1,0.7-0.9,0.5c-1.3-0.2-2.6-0.4-3.9-0.5
		c0,5.6,0,11.3,0,16.9c1.7,0,3.7,0.3,5.4,0c1.2-0.1,2.5-1.3,3.7-2c0.7,0.2,2.1-1.7,2.4-2.3c0.7-1.3,1-1.8,1-3.3
		C114.4,33.2,114.4,32.7,113.8,31.5z"/>
</g>
<circle class="st5" cx="116.4" cy="41.5" r="3.6"/>
<ellipse class="st5" cx="112.8" cy="57.9" rx="3.6" ry="5.3"/>
<path class="st5" d="M100.3,60.3c2.3,7.2-4.8,10.7-3.6,17.2c0.7,4.1,6.2,7.6,6.4,2c0.1-1.1-2.7-2.2-3-3.5c-0.7-2.8,1.3-4.2,2-6.5
	C103.3,65.8,104.9,61.2,100.3,60.3z"/>
<circle class="st6" cx="101.8" cy="50.5" r="14.8"/>
<g>
	<path class="st7" d="M112,32.2c-2.7-1.3-6.5-2.4-8,1.3C107.1,34.8,110.1,35.3,112,32.2z"/>
	<path class="st5" d="M108.7,34.5c-1.2-0.8-1.8-2.1-1.6-3.5C105.7,32.4,106.9,34.3,108.7,34.5z"/>
	<path class="st7" d="M93.1,32.2c2.7-1.3,6.5-2.4,8,1.3C98,34.8,95.1,35.3,93.1,32.2z"/>
	<path class="st5" d="M98.2,34.5c-1.2-0.8-1.8-2.1-1.6-3.5C95.2,32.4,96.3,34.3,98.2,34.5z"/>
</g>
<circle class="st8" cx="101.8" cy="50.5" r="11.9"/>
<circle class="st5" cx="101.8" cy="50.5" r="1"/>
<rect x="103.3" y="46.8" transform="matrix(0.8018 -0.5976 0.5976 0.8018 -7.2197 73.0963)" class="st5" width="6.6" height="1.3"/>
<rect x="101.5" y="39.2" class="st5" width="0.7" height="9.3"/>
<rect x="93.2" y="53.9" transform="matrix(0.7719 -0.6358 0.6358 0.7719 -12.1876 74.0088)" class="st9" width="7.7" height="0.2"/>
<g>
	<rect x="124.9" y="109.7" class="st10" width="81" height="13"/>
	<path class="st11" d="M207.7,109.7h-89.6c-0.9,0-1.6-0.7-1.6-1.6v-6.7c0-0.9,0.7-1.6,1.6-1.6h89.7c0.9,0,1.6,0.7,1.6,1.6v6.7
		C209.3,109,208.6,109.7,207.7,109.7z"/>
</g>
<g>
	<rect x="135.4" y="33.8" class="st12" width="35.5" height="66.1"/>
	<rect x="135.4" y="35.7" class="st13" width="35.5" height="1.1"/>
	<rect x="135.4" y="38.4" class="st13" width="35.5" height="1.1"/>
	<rect x="135.4" y="46.2" class="st13" width="35.5" height="1.1"/>
	<rect x="135.4" y="42.9" class="st13" width="35.5" height="0.6"/>
	<rect x="135.4" y="40.9" class="st13" width="35.5" height="0.6"/>
	<rect x="135.4" y="52.1" class="st13" width="35.5" height="0.6"/>
	<rect x="135.4" y="49.3" class="st13" width="35.5" height="0.6"/>
	<rect x="135.4" y="37.3" class="st13" width="35.5" height="0.6"/>
	<rect x="135.5" y="95.4" class="st13" width="35.5" height="1.1"/>
	<rect x="135.5" y="92.6" class="st13" width="35.5" height="1.1"/>
	<rect x="135.5" y="84.9" class="st13" width="35.5" height="1.1"/>
	<rect x="135.5" y="88.7" class="st13" width="35.5" height="0.6"/>
	<rect x="135.5" y="90.7" class="st13" width="35.5" height="0.6"/>
	<rect x="135.5" y="79.5" class="st13" width="35.5" height="0.6"/>
	<rect x="135.5" y="82.3" class="st13" width="35.5" height="0.6"/>
	<rect x="135.5" y="94.3" class="st13" width="35.5" height="0.6"/>
	<rect x="135.5" y="57.7" class="st13" width="35.5" height="0.6"/>
	<rect x="135.5" y="59.6" class="st13" width="35.5" height="0.6"/>
	<rect x="135.5" y="75.4" class="st13" width="35.5" height="1.1"/>
	<rect x="135.5" y="67.4" class="st13" width="35.5" height="1.1"/>
	<rect x="135.5" y="64.6" class="st13" width="35.5" height="1.1"/>
	<rect x="135.5" y="60.7" class="st13" width="35.5" height="0.6"/>
	<rect x="135.5" y="62.7" class="st13" width="35.5" height="0.6"/>
	<rect x="135.5" y="66.3" class="st13" width="35.5" height="0.6"/>
	<rect x="135.5" y="71" class="st13" width="35.5" height="0.5"/>
	<rect x="135.5" y="72.6" class="st13" width="35.5" height="0.5"/>
	<rect x="135.5" y="73.5" class="st13" width="35.5" height="0.5"/>
	<rect x="135.5" y="53.6" class="st13" width="35.5" height="0.5"/>
	<rect x="135.5" y="55.3" class="st13" width="35.5" height="0.5"/>
	<rect x="135.5" y="56.2" class="st13" width="35.5" height="0.5"/>
	<path class="st14" d="M157.9,71.1"/>
</g>
<g>
	<rect x="173.9" y="56.2" class="st12" width="35.5" height="43.6"/>
	<rect x="173.9" y="57.5" class="st13" width="35.5" height="0.8"/>
	<rect x="173.9" y="59.3" class="st13" width="35.5" height="0.8"/>
	<rect x="173.9" y="64.4" class="st13" width="35.5" height="0.8"/>
	<rect x="173.9" y="62.2" class="st13" width="35.5" height="0.4"/>
	<rect x="173.9" y="60.9" class="st13" width="35.5" height="0.4"/>
	<rect x="173.9" y="68.3" class="st13" width="35.5" height="0.4"/>
	<rect x="173.9" y="66.5" class="st13" width="35.5" height="0.4"/>
	<rect x="173.9" y="58.6" class="st13" width="35.5" height="0.4"/>
	<rect x="173.9" y="70.9" class="st13" width="35.5" height="0.8"/>
	<rect x="173.9" y="72.7" class="st13" width="35.5" height="0.8"/>
	<rect x="173.9" y="77.8" class="st13" width="35.5" height="0.8"/>
	<rect x="173.9" y="75.6" class="st13" width="35.5" height="0.4"/>
	<rect x="173.9" y="74.3" class="st13" width="35.5" height="0.4"/>
	<rect x="173.9" y="81.7" class="st13" width="35.5" height="0.4"/>
	<rect x="173.9" y="79.9" class="st13" width="35.5" height="0.4"/>
	<rect x="173.9" y="71.9" class="st13" width="35.5" height="0.4"/>
	<rect x="173.9" y="98.9" class="st13" width="35.5" height="0.8"/>
	<rect x="173.9" y="97.1" class="st13" width="35.5" height="0.8"/>
	<rect x="173.9" y="91.9" class="st13" width="35.5" height="0.8"/>
	<rect x="173.9" y="94.6" class="st13" width="35.5" height="0.4"/>
	<rect x="173.9" y="95.9" class="st13" width="35.5" height="0.4"/>
	<rect x="173.9" y="88.4" class="st13" width="35.5" height="0.4"/>
	<rect x="173.9" y="90.3" class="st13" width="35.5" height="0.4"/>
	<rect x="173.9" y="98.2" class="st13" width="35.5" height="0.4"/>
</g>
<rect x="-17.3" y="121.3" class="st15" width="244.8" height="38.3"/>
<text transform="matrix(0.9956 0 0 1 60.167 136.3535)" class="st16 st17 st18">How to Stop</text>
<text transform="matrix(0.9956 0 0 1 50.0122 154.6533)" class="st16 st17 st18">Procrastinating</text>
<g>
	<g>
		<g>
			<path class="st19" d="M184.7,141.7c-0.7-0.1-1.2-0.5-1.7-0.9s-1.1-0.8-1.6-1.2c-1.1-0.9-2.3-1.8-3.4-2.7
				c-1.1-0.8-2.1-1.7-3.2-2.5c-1.2-0.9-2.4-1.6-3.7-2.4c-1-0.7-2-1.5-3-2.1c-0.2-0.1-0.3-0.2-0.5-0.3c0,0.2,0,0.3,0,0.4
				c0.1,0.2,0.2,0.4,0.3,0.6c0.2,0.3,0.3,0.6,0.5,1c0.1,0.1,0.2,0.2,0.3,0.3c0.3,0.3,0.6,0.5,0.9,0.8c1.1,0.9,2.1,1.9,3.2,2.8
				c1,0.9,2,1.7,3.1,2.6c1.2,1.1,2.4,2.2,3.6,3.2c1.1,0.9,2.3,1.7,2.8,3c0.1,0.1,0.1,0.3,0.1,0.5c0.5-0.5,0.9-1.1,1.4-1.6
				c0.2-0.3,0.5-0.6,0.7-0.9C184.7,142.3,184.7,142,184.7,141.7z"/>
			<path class="st20" d="M184.8,141.7c-0.8,0-1.5-0.7-2.1-1.1c-0.6-0.4-1.2-0.9-1.8-1.4c0.4,0.4,0.9,0.8,1.3,1.2
				c0.5,0.4,1,0.8,1.4,1.3c0.1,0.1,0.2,0.2,0.2,0.3c0,0.2-0.2,0.3-0.3,0.2c-0.3,0-0.6-0.3-0.8-0.5c-0.5-0.4-0.9-0.7-1.4-1.1
				c-0.6-0.4-1.1-0.8-1.7-1.1c0.7,0.5,1.3,1.1,2,1.6c0.3,0.2,0.5,0.4,0.8,0.7c0.1,0.1,0.3,0.3,0.4,0.4c0.2,0.2,0.2,0.2,0.1,0.5
				c-0.2,0-0.4,0-0.6-0.1c-0.2-0.1-0.5-0.3-0.7-0.5c-0.4-0.3-0.9-0.6-1.3-1c-0.7-0.5-1.3-1.1-1.9-1.7c-0.5-0.4-0.9-0.8-1.4-1.2
				c0.9,0.9,1.7,1.7,2.7,2.6c0.4,0.4,0.9,0.7,1.4,1.1c0.4,0.4,1.1,0.8,1.4,1.3c0.1,0.2,0.3,0.9-0.1,0.7c-0.1-0.1-0.2-0.2-0.3-0.4
				c-0.1-0.1-0.3-0.3-0.4-0.4c0.4,0.5,0.7,1,0.9,1.6C183.2,143.7,184,142.7,184.8,141.7z"/>
			<path class="st20" d="M174.7,137.2c-0.1-0.1-0.6-0.5-0.5-0.6c0.1-0.2,0.2,0,0.3,0.1s0.2,0.1,0.3,0.2c0.5,0.3,1,0.7,1.5,0.9
				c-1.8-1.1-3.4-2.5-5-3.8c-0.5-0.4-1-0.9-1.4-1.3c0.3,0.1,0.6,0.4,0.9,0.5c0.3,0.2,0.7,0.4,1,0.6c-0.4-0.3-0.9-0.6-1.3-0.9
				c-0.5-0.3-0.9-0.6-1.3-1.1c0.1-0.1,0.3,0.1,0.4,0.2c0.2,0.1,0.4,0.3,0.6,0.4c0.3,0.2,0.7,0.4,1,0.7c0.7,0.4,1.3,0.9,2,1.4
				c-0.5-0.4-1-0.9-1.5-1.3c-0.7-0.5-1.3-0.9-2-1.4c-0.4-0.2-0.6-0.5-0.8-0.9c0.4,0.1,0.8,0.5,1.2,0.7c0.5,0.3,0.9,0.6,1.4,0.9
				c0.9,0.6,1.8,1.3,2.6,1.9c0.5,0.4,1,0.8,1.5,1.3c-0.9-0.9-1.9-1.7-2.9-2.5c-1.1-0.8-2.1-1.7-3.2-2.4c-0.6-0.4-1.1-0.8-1.8-1.1
				c0,0.2,0,0.3,0,0.5c0.1,0.2,0.1,0.3,0.2,0.4c0.2,0.3,0.3,0.7,0.5,1c0.3,0.6,1,1.1,1.5,1.5c1.1,1,2.2,1.9,3.3,2.9
				C173.7,136.4,174.2,136.8,174.7,137.2z"/>
			<path class="st21" d="M167.8,129.8c0.3,0.2,0.5,0.5,0.6,0.8c0.1,0.1,0.4,1,0.3,1.1c-0.1,0.1-0.5-0.7-0.6-0.8
				C168,130.5,167.7,130.2,167.8,129.8z"/>
		</g>
		<path class="st22" d="M183.5,145.6c0.2,0.3,0.4,0.6,0.7,0.9c0.2,0.3,0.6,0.6,0.7,1c0.2,0.4,0.2,0.8,0.6,0.9c0.2,0,0.4-0.1,0.6-0.1
			c0.2,0,0.3,0.1,0.5,0.2c0.3,0.3,0.2,0.7,0.3,1.1c0.1,0.4,0.5,0.6,0.9,0.5s0.7,0,0.9,0.4c0.2,0.3,0.1,0.7,0.2,1.1
			c0.2,0.4,0.5,0.7,1,0.6c0.2,0,0.4-0.1,0.5,0.1c0.2,0.2,0.2,0.3,0.3,0.6c0.2-0.2,0.4-0.4,0.6-0.6c0.1-0.1,0.3-0.3,0.4-0.4
			c0.2-0.3,0.3-0.6,0.4-0.9c0.1-0.2,0.2-0.3,0.1-0.5c-0.1-0.3-0.2-0.6-0.3-1c-0.1-0.2-0.1-0.5-0.2-0.6c-0.1-0.1-0.3-0.3-0.4-0.4
			c-0.2-0.3-0.5-0.5-0.7-0.8c-0.4-0.4-0.7-0.8-1.1-1.1c-0.4-0.3-0.8-0.6-1.1-0.9c-0.5-0.4-1.1-0.8-1.6-1.3c-0.3-0.3-0.7-0.4-1.1-0.6
			c-0.2-0.1-0.5-0.3-0.6-0.3s-0.3,0.2-0.4,0.3c-0.2,0.1-0.3,0.2-0.5,0.4s-0.3,0.2-0.4,0.5S183.6,145.3,183.5,145.6z"/>
		<path class="st23" d="M185.5,148.3c0.3-0.1,0.5-0.2,0.7-0.4s0.3-0.5,0.4-0.8c0.2-0.5,0.6-0.9,1.2-0.9c-0.2,0.1-0.4,0.1-0.5,0.3
			c0.1,0.1,0.3,0.1,0.4,0.2c-0.3-0.1-0.5,0-0.7,0.2s-0.2,0.5-0.3,0.7c-0.1,0.1-0.1,0.2,0,0.4c0.1,0.1,0.2,0.3,0.3,0.3
			c0.2,0.1,0.2-0.2,0.3-0.3c0-0.1,0.1-0.3,0.2-0.4c-0.1,0.4-0.2,0.8-0.3,1.2c-0.2,0.4-0.1,0.8,0.3,1.1c-0.3-0.1-0.4-0.2-0.5-0.4
			s-0.1-0.5-0.2-0.7c-0.1-0.3-0.2-0.5-0.5-0.6C186,148.2,185.8,148.4,185.5,148.3z"/>
		<path class="st23" d="M187.8,150.1c0.3-0.1,0.5-0.3,0.7-0.6c0.1-0.3,0.1-0.6,0.3-0.8s0.6-0.3,0.9,0c0.3,0.2,0.2,0.5,0.1,0.8
			c0-0.2,0-0.4-0.1-0.5c-0.2-0.2-0.4-0.2-0.6-0.1c-0.4,0.2-0.3,0.6-0.6,0.9c0.3,0,0.5,0.1,0.7,0.3c-0.2-0.1-0.5-0.3-0.8-0.2
			c-0.2,0.1-0.1,0.1,0,0.2c0.1,0.1,0.2,0.2,0.2,0.4c-0.1-0.1-0.2-0.3-0.3-0.3C188.2,150.1,188,150.1,187.8,150.1z"/>
		<path class="st23" d="M189.1,150.3c0,0.3,0,0.5-0.2,0.7c-0.1-0.2-0.2-0.3-0.3-0.5c0.1,0.5,0,1.3,0.6,1.6c0.1,0.1,0.3,0.1,0.4,0.1
			s0.3,0,0.4,0c0.3,0.1,0.4,0.4,0.5,0.7c0.3-0.3,0.6-0.6,0.8-0.9c0.2-0.2,0.3-0.6,0.4-0.9c0.1-0.3,0.1-0.8,0-1.1
			c-0.1-0.2-0.2-0.5-0.3-0.7c-0.1-0.1-0.2-0.2-0.4-0.3c0.1,0.3,0.2,0.6,0.3,0.9c0,0.4,0,0.7,0,1.1c0,0.2-0.2,0.8-0.5,0.8
			c-0.2,0,0.1-0.7,0.2-0.8c0-0.4,0-0.8,0-1.2c-0.1,0.4-0.1,0.7-0.2,1.1c-0.1,0.3-0.2,0.7-0.4,1c-0.4,0.5-1.8,0.4-1.5-0.5
			c0.1-0.4,0.3-0.7,0.4-1.1c-0.1,0.3-0.2,0.6-0.4,0.9C189.1,150.8,189.2,150.6,189.1,150.3z"/>
		<path class="st23" d="M184.7,145.1c-0.3-0.2-0.2-0.5,0.1-0.6s0.6-0.2,0.9-0.1c0.5,0.1,1.1,0.5,1.5,0.8c1,0.8,1.9,1.7,2.8,2.7
			c0.4,0.5,0.9,1,1.3,1.5c0.1-0.1,0.3-0.4,0.3-0.5s-0.3-0.3-0.4-0.4c-0.1-0.1-0.3-0.2-0.4-0.4c-0.7-0.6-1.3-1.2-2-1.8
			s-1.3-1.2-2-1.9c-0.1-0.1-0.2-0.2-0.4-0.3s-0.5-0.1-0.7-0.2c-0.2,0-0.2-0.1-0.4-0.1c-0.3,0.1-0.8,0.4-1.1,0.6
			c-0.2,0.1-0.3,0.4-0.4,0.5c0,0-0.1,0.1-0.1,0.2v0.3C184.1,145.3,184.4,145.2,184.7,145.1z"/>
		<path class="st24" d="M187.5,145.3c-0.5-0.5-1.2-1-1.9-1.1c-0.8,0-1.4,0.6-1.8,1.1c0.6-0.4,1.4-0.3,1.7,0.5
			c0.2,0.6-0.2,1.5-0.8,1.7c-0.3,0.2-0.6,0.2-1,0.2c-0.3-0.1-0.6-0.3-0.8-0.6c-0.3-0.3-0.4-0.6-0.5-1c0-0.3,0-0.7,0-1
			c0.1-0.7,0.6-1.4,1.1-1.9c0.2-0.2,0.5-0.4,0.7-0.6c0.2-0.2,0.5-0.5,0.6-0.8c0.2-0.4,0.3-0.7,0.4-1.1c0.1-0.4,0.2-0.7,0.2-1.1
			c0.1-0.7,0-1.4,0.2-2.1c0-0.1,0-0.2,0.1-0.2s0.2,0.1,0.2,0.1c0.1,0.1,0.2,0.3,0.4,0.4c0.2,0.3,0.3,0.6,0.4,0.9
			c0.1,0.4,0.2,0.7,0.2,1.1c0,0.4-0.1,0.7-0.1,1.1c0,0.3-0.1,0.6-0.3,0.8c-0.2,0.3-0.5,0.5-0.6,0.9c0,0.3,0.4,0.5,0.6,0.7
			c0.3,0.3,0.6,0.5,0.9,0.8c1.1,0.9,2.2,1.8,3.3,2.7s2.1,2,2.3,3.5c0,0.3,0,0.6-0.1,0.9c-0.1,0.4-0.3,0.6-0.6,0.9
			c-0.3,0.3-0.5,0.5-0.8,0.8c-0.2,0.2-0.5,0.5-0.6,0.7c-0.1,0.3-0.3,0.7-0.1,1c0.1,0.2,0.2,0.3,0.4,0.4c0.2,0.1,0.3,0,0.4-0.1
			c0.5-0.4,0.6-1.3,1.2-1.6c0.3-0.2,0.6-0.1,0.9,0.1c-1.2,0.1-1.4,1.9-2.2,2.4c-0.2,0.2-0.5,0.3-0.8,0.3s-0.5-0.2-0.7-0.4
			s-0.4-0.4-0.4-0.8c0-0.3,0.1-0.6,0.2-0.8c0.2-0.5,0.7-1,1-1.5c0.4-0.5,0.6-1,0.9-1.5c0.2-0.5,0.1-1.2-0.2-1.7s-0.8-0.9-1.2-1.4
			C189.4,147.1,188.5,146.2,187.5,145.3z"/>
		<path class="st25" d="M183.9,146.1c0.2-0.1,0.4,0,0.5,0.2s-0.1,0.4-0.3,0.5c-0.4,0.2-0.8-0.1-0.7-0.5s0.4-0.9,0.8-0.8
			c0.4,0,0.8,0.3,0.9,0.7c0.1,0.3-0.2,0.8-0.4,1c-0.3,0.3-0.8,0.5-1.2,0.5s-0.7-0.5-1-0.8c-0.2-0.3-0.3-0.7-0.3-1.1
			c-0.1-0.9,0.5-1.9,1.1-2.6c-1,0.9-1.7,2.6-0.9,3.8c0.2,0.3,0.5,0.6,0.7,0.8c0.3,0.2,0.7,0.1,1,0c0.7-0.2,1.2-0.8,1.2-1.5
			c0-0.4-0.1-0.8-0.5-1.1c-0.1-0.1-0.4-0.2-0.5-0.2c-0.2,0-0.4,0.1-0.5,0.2c0.4-0.4,0.7-0.8,1-1.3c-0.3,0.3-0.6,0.6-0.9,0.9
			c-0.3,0.3-0.6,0.6-0.8,0.9c-0.2,0.3-0.2,0.8,0.1,1.1s0.8,0.2,1-0.2c0.1-0.2,0.2-0.4,0.1-0.6C184.3,146,184,145.8,183.9,146.1z"/>
		<path class="st25" d="M183.9,144.5c-0.2,0.2-0.4,0-0.4-0.3c0-0.2,0.2-0.4,0.4-0.6c0.3-0.4,0.6-0.7,0.9-1.1
			c0.3-0.5,0.6-0.9,0.8-1.4c0-0.1,0-0.2,0.1-0.3s0.2,0.1,0.2,0.2c0,0.2-0.1,0.5-0.2,0.7c-0.2,0.5-0.5,0.9-0.8,1.4
			c0.6-0.5,1-1.2,1.2-1.9c0.1-0.8,0-1.5-0.1-2.2c0,0.5,0,1-0.2,1.5c-0.1,0.4-0.3,0.9-0.6,1.2c-0.3,0.4-0.6,0.8-0.9,1.2
			c-0.3,0.4-0.7,0.7-0.9,1.1c-0.1,0.2-0.3,0.6,0,0.7C183.4,144.9,183.8,144.7,183.9,144.5z"/>
		<path class="st26" d="M192.9,151.2c0.2,0.6,0,1.3-0.2,1.9c-0.1,0.3-0.3,0.4-0.4,0.7c-0.1,0.3-0.3,0.6-0.5,0.9
			c-0.2,0.3-0.4,0.5-0.7,0.4c-0.4-0.1-0.4-0.4-0.5-0.7c-0.1-0.6,0.6-1.2,1-1.6c0.2-0.3,0.5-0.5,0.7-0.8
			C192.6,151.8,192.7,151.5,192.9,151.2z"/>
		<path class="st25" d="M185.1,143.8c0.1-0.2,0.3-0.7,0.5-0.7c0.3,0,0.6,0.5,0.8,0.7c0.4,0.4,0.9,0.9,1.4,1.2
			c1.1,0.8,2.2,1.7,3.2,2.6c0.5,0.5,1,0.9,1.3,1.6c0.3,0.7,0.3,1.3,0.2,2s-0.7,1.2-1.2,1.6c-0.4,0.5-0.9,1.1-0.8,1.8
			c0.1,0.3,0.2,0.6,0.6,0.7c0.3,0.1,0.6-0.3,0.7-0.5c0.2-0.3,0.4-0.6,0.6-0.9c0.3-0.3,0.5-0.3,0.8-0.5c0.1-0.1,0.3-0.1,0.4-0.1
			c-0.4-0.2-0.8-0.4-1.2-0.1c-0.4,0.3-0.5,0.7-0.7,1.2c-0.1,0.2-0.2,0.3-0.4,0.4c-0.2,0.1-0.3,0.1-0.5,0c-0.4-0.2-0.3-0.8-0.1-1.1
			c0.2-0.4,0.5-0.7,0.8-1s0.6-0.6,0.9-1c0.5-0.7,0.5-1.7,0.1-2.4c-0.8-1.7-2.3-2.7-3.7-3.8c-0.6-0.5-1.3-1-1.9-1.6
			c-0.3-0.3-0.7-0.6-1-0.9c-0.4-0.4,0-0.7,0.2-1c0.5-0.7,0.6-1.6,0.5-2.5c-0.1-0.5-0.2-0.9-0.4-1.3c-0.1-0.2-0.2-0.4-0.4-0.5
			c-0.1-0.1-0.3-0.4-0.4-0.4c-0.2,0-0.1,0.3-0.1,0.4c0.1-0.1,0.1-0.1,0.2-0.1c0.1,0,0.2,0.2,0.2,0.2c0.1,0.2,0.2,0.4,0.3,0.6
			c0.3,0.4,0.3,0.9,0.4,1.4c0,0.5,0,0.9-0.1,1.3c-0.2,0.5-0.4,0.8-0.7,1.2c-0.1,0.1-0.1,0.2-0.2,0.3c-0.1,0.1-0.2,0.2-0.3,0.3
			C185.1,143.3,185.1,143.5,185.1,143.8z"/>
		<g>
			
				<image style="overflow:visible;opacity:0.96;enable-background:new    ;" width="279" height="279" xlink:href="9A51B9EE1717704C.png"  transform="matrix(1.063993e-02 -1.202335e-02 1.192725e-02 1.064891e-02 174.1085 137.9531)">
			</image>
			<g>
				<g>
					
						<ellipse transform="matrix(0.666 -0.746 0.746 0.666 -43.5269 178.2837)" class="st27" cx="177.3" cy="137.7" rx="0.8" ry="0.8"/>
					
						<ellipse transform="matrix(0.666 -0.746 0.746 0.666 -43.462 178.2417)" class="st28" cx="177.3" cy="137.7" rx="0.7" ry="0.7"/>
					
						<ellipse transform="matrix(0.666 -0.746 0.746 0.666 -43.1757 178.034)" class="st29" cx="177.2" cy="137.2" rx="0.2" ry="0.2"/>
					
						<ellipse transform="matrix(0.666 -0.746 0.746 0.666 -43.2855 178.1493)" class="st29" cx="177.3" cy="137.4" rx="0.1" ry="0.1"/>
					
						<ellipse transform="matrix(0.666 -0.746 0.746 0.666 -43.9514 178.239)" class="st29" cx="177.1" cy="138.2" rx="0.1" ry="0.1"/>
					
						<ellipse transform="matrix(0.666 -0.746 0.746 0.666 -43.921 178.3703)" class="st29" cx="177.2" cy="138.2" rx="0.1" ry="0.1"/>
					<ellipse class="st29" cx="177.4" cy="138.2" rx="0" ry="0"/>
				</g>
			</g>
		</g>
		<g>
			
				<image style="overflow:visible;opacity:0.96;enable-background:new    ;" width="279" height="283" xlink:href="9A51B9EE17177042.png"  transform="matrix(1.060179e-02 -1.198026e-02 1.180096e-02 1.053616e-02 176.448 140.1279)">
			</image>
			<g>
				<g>
					
						<ellipse transform="matrix(0.666 -0.746 0.746 0.666 -44.3775 180.6852)" class="st30" cx="179.6" cy="139.9" rx="0.8" ry="0.8"/>
					
						<ellipse transform="matrix(0.666 -0.746 0.746 0.666 -44.3373 180.7211)" class="st31" cx="179.6" cy="139.9" rx="0.7" ry="0.7"/>
					<path class="st32" d="M179.4,139.3C179.4,139.2,179.4,139.2,179.4,139.3c0.1-0.1,0.1-0.1,0.2-0.1c0.1,0,0.1,0,0.2,0
						c0,0,0.1,0.1,0.1,0.2c0,0,0,0,0,0.1l0,0v0.1l0,0c0,0,0,0,0,0.1c0,0,0,0,0,0.1l-0.1,0.1c0,0,0,0-0.1,0l0,0l0,0c0,0,0,0,0-0.1
						s0,0,0,0s0-0.1-0.1-0.1l0,0l0,0c0,0,0,0,0-0.1l0,0l0,0C179.4,139.4,179.4,139.3,179.4,139.3z"/>
					<path class="st32" d="M179.2,140.2C179.3,140.2,179.3,140.2,179.2,140.2c0.1,0,0.1-0.1,0.1,0l0,0l0,0l0,0l0,0c0,0,0,0,0,0.1
						l0,0l0,0h-0.1l0,0C179.3,140.4,179.2,140.4,179.2,140.2C179.2,140.3,179.2,140.3,179.2,140.2
						C179.3,140.3,179.2,140.3,179.2,140.2z"/>
					<path class="st32" d="M179.5,140.4C179.5,140.3,179.5,140.3,179.5,140.4C179.6,140.3,179.6,140.3,179.5,140.4
						C179.6,140.3,179.6,140.3,179.5,140.4c0.1,0,0.1-0.1,0.1,0l0,0l0,0l0,0C179.6,140.4,179.6,140.4,179.5,140.4
						C179.6,140.4,179.6,140.5,179.5,140.4L179.5,140.4L179.5,140.4L179.5,140.4L179.5,140.4z"/>
					<path class="st32" d="M179.7,140.4L179.7,140.4C179.7,140.4,179.7,140.3,179.7,140.4C179.8,140.3,179.8,140.4,179.7,140.4
						C179.8,140.4,179.8,140.3,179.7,140.4C179.8,140.4,179.8,140.4,179.7,140.4C179.8,140.4,179.8,140.4,179.7,140.4
						C179.8,140.4,179.8,140.4,179.7,140.4C179.8,140.4,179.8,140.4,179.7,140.4C179.8,140.4,179.7,140.4,179.7,140.4L179.7,140.4
						L179.7,140.4L179.7,140.4L179.7,140.4z"/>
					<path class="st30" d="M179.3,139.2C179.3,139.3,179.3,139.3,179.3,139.2c-0.1,0.1-0.1,0.1-0.1,0.2h-0.1c0,0,0,0.1-0.1,0.1l0,0
						v0.1l0,0v0.1c0,0-0.1,0-0.1,0.1v0.1c0,0,0,0,0,0.1l0,0l0,0c0,0,0,0,0,0.1c0.1,0,0.1,0,0.1,0.1c0,0,0,0,0,0.1c0,0,0,0,0,0.1
						c0,0,0,0,0,0.1h0.1c0,0,0,0,0.1,0.1c0,0,0,0,0.1,0c0,0,0,0,0.1,0l0,0c0,0,0,0,0.1-0.1c0,0,0,0,0.1,0.1l0,0h0.1l0,0
						c0,0,0,0,0.1,0h0.1c0,0,0.1,0,0.1-0.1l0,0l0,0l0,0c0,0,0,0,0.1,0c0,0,0-0.1,0.1-0.1s0.1,0,0.1-0.1c0,0,0,0,0-0.1c0,0,0,0,0-0.1
						V140l0,0c0-0.1,0,0-0.1,0l0,0l0,0v-0.1c0-0.1,0-0.1,0-0.2c0,0,0,0-0.1-0.1v-0.1c0,0.1,0.1,0.1,0.1,0.2v0.1c0,0.1,0,0.1,0,0.2
						c0,0.1,0,0.1,0,0.2v0.1c0,0.1-0.1,0.1-0.1,0.2c0,0,0,0.1-0.1,0.1s-0.2,0.1-0.2,0.1h-0.1c-0.1,0-0.2,0-0.2,0s-0.1,0-0.2,0
						c-0.1,0-0.1-0.1-0.1-0.1c-0.1,0-0.1-0.1-0.2-0.1v-0.1c0-0.1,0-0.1-0.1-0.2c0-0.1,0-0.1,0-0.2c0-0.1,0-0.1,0-0.2
						c0-0.1,0-0.1,0.1-0.2C179.1,139.3,179.2,139.3,179.3,139.2z"/>
				</g>
			</g>
		</g>
		<g>
			
				<image style="overflow:visible;opacity:0.96;enable-background:new    ;" width="283" height="283" xlink:href="9A51B9EE17177040.png"  transform="matrix(1.041434e-02 -1.176844e-02 1.175867e-02 1.049839e-02 178.5681 141.8486)">
			</image>
			<g>
				<g>
					
						<ellipse transform="matrix(0.666 -0.746 0.746 0.666 -44.9932 182.8935)" class="st33" cx="181.7" cy="141.7" rx="0.8" ry="0.8"/>
					
						<ellipse transform="matrix(0.666 -0.746 0.746 0.666 -44.9282 182.8515)" class="st34" cx="181.7" cy="141.6" rx="0.7" ry="0.7"/>
					<path class="st35" d="M181.7,141c-0.1,0-0.1,0-0.1,0s0,0,0,0.1s0,0,0,0v0.1v0.1l0,0l0,0l0,0l0.1,0.1c0,0,0,0,0.1-0.1l0,0l0,0
						c0,0,0.1,0,0.1-0.1c0.1,0.1,0.2-0.2,0-0.2c0-0.1,0-0.1-0.1-0.1C181.8,140.9,181.8,140.9,181.7,141
						C181.7,140.9,181.7,141,181.7,141z"/>
					<path class="st35" d="M181.9,141.5C181.9,141.5,182,141.4,181.9,141.5C181.9,141.4,181.9,141.4,181.9,141.5c0-0.1,0-0.1,0-0.1
						l0,0c0,0,0,0-0.1,0l0,0l0,0l0,0l0,0l0,0l0,0l0,0c0,0,0,0,0,0.1C181.6,141.5,181.8,141.6,181.9,141.5
						C181.9,141.6,181.9,141.6,181.9,141.5C181.9,141.6,181.9,141.5,181.9,141.5L181.9,141.5z"/>
					<path class="st35" d="M181.3,142c0-0.1,0.1-0.1,0.1-0.2c0,0.1,0.1,0.1,0.1,0.2c0-0.1,0-0.1,0-0.1c0,0.1,0.1,0.1,0.2,0.2V142
						c0.1,0.1,0.2,0.1,0.4,0.1c-0.1,0.1-0.1,0.1-0.2,0.1c0,0,0,0,0,0.1c-0.1,0-0.2,0-0.3-0.1c0,0,0,0,0,0.1
						C181.4,142.2,181.4,142.1,181.3,142z"/>
				</g>
			</g>
		</g>
	</g>
	<path class="st36" d="M162.2,128.5c0.2,0,0.4,0,0.6,0.1c0.2,0.1,0.4,0.1,0.5,0.2c0.2,0.1,0.3,0.2,0.4,0.4c0.2,0.3,0.3,0.6,0.5,0.9
		l0,0l0,0l0,0l0,0c0.1-0.3,0.1-0.7,0.3-1c0.1-0.2,0.2-0.3,0.3-0.5c0.2-0.1,0.3-0.2,0.5-0.4c0.2-0.1,0.4-0.2,0.5-0.2l0,0l0,0l0,0l0,0
		c-0.2,0-0.4,0-0.6-0.1c-0.2-0.1-0.4-0.1-0.5-0.2c-0.2-0.1-0.3-0.2-0.4-0.4c-0.2-0.3-0.3-0.6-0.5-0.9l0,0l0,0l0,0l0,0
		c-0.1,0.3-0.1,0.7-0.3,1c-0.1,0.2-0.2,0.3-0.3,0.5c-0.2,0.1-0.3,0.2-0.5,0.4C162.5,128.4,162.4,128.4,162.2,128.5L162.2,128.5
		L162.2,128.5L162.2,128.5L162.2,128.5z"/>
	<path class="st36" d="M166.6,130.9c-0.1-0.1-0.2-0.1-0.2-0.2c-0.1-0.1-0.2-0.3-0.3-0.5c0,0.1,0,0.2,0,0.4c0,0,0,0,0,0.1l0,0
		c0,0,0,0,0-0.1s0-0.3,0-0.4c0,0.2-0.1,0.4-0.1,0.5s-0.1,0.2-0.2,0.2c-0.1,0.1-0.2,0.1-0.2,0.2c-0.1,0-0.2,0.1-0.3,0.1l0,0l0,0l0,0
		l0,0c0.1,0,0.2,0,0.3,0s0.2,0.1,0.3,0.1c0.1,0.1,0.2,0.1,0.2,0.2c0.1,0.1,0.2,0.3,0.3,0.5c0-0.1,0-0.2,0-0.4l0,0l0,0c0,0,0,0,0,0.1
		s0,0.3,0,0.4c0-0.2,0.1-0.4,0.1-0.5s0.1-0.2,0.2-0.2c0.1-0.1,0.2-0.1,0.2-0.2c0.1,0,0.2-0.1,0.3-0.1l0,0l0,0l0,0l0,0
		c-0.1,0-0.2,0-0.3,0C166.8,131,166.7,131,166.6,130.9z"/>
	<path class="st36" d="M181.8,133.7L181.8,133.7L181.8,133.7L181.8,133.7L181.8,133.7c-0.3,0.2-0.6,0.3-0.9,0.4
		c-0.2,0-0.4,0.1-0.6,0.1c-0.2,0-0.4-0.1-0.6-0.1c-0.2-0.1-0.4-0.2-0.5-0.3l0,0l0,0l0,0l0,0c0.1,0.2,0.2,0.3,0.3,0.5
		s0.1,0.4,0.2,0.6c0,0.2,0,0.4,0,0.6c-0.1,0.3-0.2,0.7-0.4,1l0,0l0,0l0,0l0,0c0.3-0.2,0.6-0.4,0.9-0.4c0.2,0,0.4-0.1,0.6-0.1
		c0.2,0,0.4,0.1,0.6,0.1c0.2,0.1,0.4,0.2,0.5,0.3l0,0l0,0l0,0l0,0c-0.1-0.2-0.2-0.3-0.3-0.5s-0.1-0.4-0.2-0.6c0-0.2,0-0.4,0-0.6
		C181.5,134.3,181.6,134,181.8,133.7z"/>
	<path class="st36" d="M177.4,151.6c0.3-0.2,0.6-0.3,0.9-0.4c0.2,0,0.4-0.1,0.6-0.1c0.2,0,0.4,0.1,0.6,0.1c0.2,0.1,0.4,0.2,0.5,0.3
		l0,0l0,0l0,0l0,0c-0.1-0.2-0.2-0.3-0.3-0.5s-0.1-0.4-0.2-0.6c0-0.2,0-0.4,0-0.6c0.1-0.3,0.2-0.7,0.4-1l0,0l0,0l0,0l0,0
		c-0.3,0.2-0.6,0.4-0.9,0.4c-0.2,0-0.4,0.1-0.6,0.1c-0.2,0-0.4-0.1-0.6-0.1c-0.2-0.1-0.4-0.2-0.5-0.3l0,0l0,0l0,0l0,0
		c0.1,0.2,0.2,0.3,0.3,0.5s0.1,0.4,0.2,0.6c0,0.2,0,0.4,0,0.6C177.6,150.9,177.5,151.2,177.4,151.6
		C177.3,151.6,177.3,151.6,177.4,151.6C177.3,151.6,177.3,151.6,177.4,151.6C177.3,151.6,177.3,151.6,177.4,151.6
		C177.3,151.6,177.3,151.6,177.4,151.6z"/>
	<path class="st36" d="M176.9,142c-0.1,0-0.2,0-0.3-0.1c-0.1,0-0.2-0.1-0.3-0.1l0,0l0,0l0,0l0,0c0.1,0.1,0.1,0.2,0.2,0.3
		c0,0.1,0.1,0.2,0.1,0.3s0,0.2,0,0.3c0,0.2-0.1,0.4-0.2,0.5c0.1-0.1,0.2-0.2,0.3-0.3l0,0l0,0c0,0,0,0,0,0.1
		c-0.1,0.1-0.2,0.2-0.3,0.3c0.2-0.1,0.3-0.2,0.5-0.2c0.1,0,0.2,0,0.3,0s0.2,0,0.3,0.1c0.1,0,0.2,0.1,0.3,0.1l0,0l0,0l0,0l0,0
		c-0.1-0.1-0.1-0.2-0.2-0.3c0-0.1-0.1-0.2-0.1-0.3s0-0.2,0-0.3c0-0.2,0.1-0.4,0.2-0.5c-0.1,0.1-0.2,0.2-0.3,0.3l0,0l0,0
		c0,0,0,0,0-0.1c0.1-0.1,0.2-0.2,0.3-0.3c-0.2,0.1-0.3,0.2-0.5,0.2C177.1,142,177,142.1,176.9,142z"/>
	<path class="st36" d="M175.6,134L175.6,134L175.6,134L175.6,134c0.2-0.1,0.3-0.2,0.5-0.2c0.1,0,0.2,0,0.3,0s0.2,0,0.3,0
		s0.2,0.1,0.3,0.1l0,0l0,0l0,0l0,0c-0.1-0.1-0.1-0.1-0.1-0.2c0-0.1-0.1-0.2-0.1-0.2c0-0.1,0-0.2,0-0.3c0-0.2,0.1-0.3,0.2-0.4
		c-0.1,0.1-0.2,0.2-0.3,0.2l0,0l0,0c0,0,0,0-0.1,0.1l0.1-0.1c0.1-0.1,0.2-0.2,0.3-0.2c-0.2,0.1-0.3,0.2-0.5,0.2c-0.1,0-0.2,0-0.3,0
		s-0.2,0-0.3,0s-0.2-0.1-0.3-0.1l0,0c0.1,0.1,0.1,0.1,0.2,0.2c0,0.1,0.1,0.2,0.1,0.2s0,0.2,0,0.3C175.7,133.7,175.6,133.8,175.6,134
		z"/>
	<path class="st36" d="M167.3,128.6c0.1-0.1,0.2-0.2,0.3-0.3l0,0l0,0c0,0,0,0-0.1,0.1C167.4,128.4,167.4,128.5,167.3,128.6
		c0.2-0.1,0.3-0.2,0.5-0.2c0.1,0,0.2,0,0.3,0s0.2,0,0.3,0.1c0.1,0,0.2,0.1,0.3,0.1l0,0c-0.1-0.1-0.1-0.2-0.2-0.3
		c0-0.1-0.1-0.2-0.1-0.3s0-0.2,0-0.3c0-0.2,0.1-0.4,0.2-0.5c-0.2,0.1-0.3,0.2-0.5,0.2c-0.1,0-0.2,0-0.3,0s-0.2,0-0.3-0.1
		c-0.1,0-0.2-0.1-0.3-0.1l0,0l0,0l0,0l0,0c0.1,0.1,0.1,0.2,0.1,0.3c0,0.1,0.1,0.2,0.1,0.3s0,0.2,0,0.3
		C167.4,128.3,167.4,128.4,167.3,128.6z"/>
	<path class="st36" d="M168.5,134.2c0.1,0.1,0.1,0.2,0.2,0.3c0,0.1,0.1,0.2,0.1,0.3s0,0.2,0,0.3c0,0.2-0.1,0.4-0.2,0.5
		c0.1-0.1,0.2-0.2,0.3-0.3l0,0l0,0c0,0,0,0-0.1,0.1s-0.2,0.2-0.3,0.3c0.2-0.1,0.3-0.2,0.5-0.2c0.1,0,0.2,0,0.3,0s0.2,0,0.3,0.1
		c0.1,0,0.2,0.1,0.3,0.1l0,0c-0.1-0.1-0.1-0.2-0.2-0.3c0-0.1-0.1-0.2-0.1-0.3s0-0.2,0-0.3c0-0.2,0.1-0.4,0.2-0.5
		c-0.1,0.1-0.2,0.2-0.3,0.3l0,0l0,0c0,0,0,0-0.1,0.1l0.1-0.1c0.1-0.1,0.2-0.2,0.3-0.3c-0.2,0.1-0.3,0.2-0.5,0.2c-0.1,0-0.2,0-0.3,0
		s-0.2,0-0.3-0.1C168.6,134.3,168.5,134.3,168.5,134.2L168.5,134.2z"/>
	<path class="st36" d="M171.3,137.5c0.1-0.1,0.2-0.2,0.3-0.3l0,0l0,0c0,0,0,0,0,0.1C171.5,137.4,171.4,137.5,171.3,137.5
		c0.2-0.1,0.3-0.2,0.5-0.2c0.1,0,0.2,0,0.3,0s0.2,0,0.3,0.1c0.1,0,0.2,0.1,0.3,0.1l0,0c-0.1-0.1-0.1-0.2-0.2-0.3
		c0-0.1-0.1-0.2-0.1-0.3s0-0.2,0-0.3c0-0.2,0.1-0.4,0.2-0.5c-0.1,0.1-0.2,0.2-0.3,0.3l0,0l0,0c0,0,0,0-0.1,0.1l0.1-0.1
		c0.1-0.1,0.2-0.2,0.3-0.3c-0.2,0.1-0.3,0.2-0.5,0.2c-0.1,0-0.2,0-0.3,0s-0.2,0-0.3-0.1c-0.1,0-0.2-0.1-0.3-0.1l0,0
		c0.1,0.1,0.1,0.2,0.2,0.3c0,0.1,0.1,0.2,0.1,0.3s0,0.2,0,0.3C171.5,137.2,171.4,137.4,171.3,137.5z"/>
	<path class="st36" d="M178.5,145c0.1,0.1,0.1,0.2,0.2,0.3c0.1,0.1,0.1,0.2,0.1,0.3s0,0.2,0,0.3c0,0.2-0.1,0.3-0.1,0.5
		c0.1-0.1,0.2-0.2,0.2-0.3l0,0l0,0l0,0l0,0c-0.1,0.1-0.2,0.2-0.2,0.3c0.1-0.1,0.3-0.2,0.5-0.2c0.1,0,0.2,0,0.3,0s0.2,0,0.3,0.1
		c0.1,0,0.2,0.1,0.3,0.2l0,0c-0.1-0.1-0.1-0.2-0.2-0.3c-0.1-0.1-0.1-0.2-0.1-0.3s0-0.2,0-0.3c0-0.2,0.1-0.3,0.1-0.5
		c-0.1,0.1-0.2,0.2-0.2,0.3c0,0,0,0-0.1,0.1l0,0l0,0c0.1-0.1,0.2-0.2,0.2-0.3c-0.1,0.1-0.3,0.2-0.5,0.2c-0.1,0-0.2,0-0.3,0
		s-0.2,0-0.3-0.1C178.6,145.1,178.5,145.1,178.5,145C178.4,145,178.4,145,178.5,145L178.5,145C178.4,145,178.4,145,178.5,145
		C178.4,145,178.4,145,178.5,145z M179.2,145.7L179.2,145.7L179.2,145.7L179.2,145.7L179.2,145.7L179.2,145.7L179.2,145.7z"/>
	<path class="st36" d="M169.4,125.8c0.1,0.1,0.1,0.2,0.2,0.3c0.1,0.1,0.1,0.2,0.1,0.3c0,0.1,0,0.2,0,0.3c0,0.2-0.1,0.3-0.1,0.5
		c0.1-0.1,0.2-0.2,0.2-0.3l0,0l0,0c0,0,0,0,0.1-0.1l0,0c0,0,0,0-0.1,0.1l0,0l0,0c-0.1,0.1-0.2,0.2-0.2,0.3c0.1-0.1,0.3-0.2,0.5-0.2
		c0.1,0,0.2,0,0.3,0s0.2,0,0.3,0.1c0.1,0,0.2,0.1,0.3,0.2l0,0c-0.1-0.1-0.1-0.2-0.2-0.3c-0.1-0.1-0.1-0.2-0.1-0.3c0-0.1,0-0.2,0-0.3
		c0-0.2,0.1-0.3,0.1-0.5c-0.1,0.1-0.2,0.2-0.2,0.3c0,0,0,0,0,0.1l0,0l0,0c0.1-0.1,0.2-0.2,0.2-0.3c-0.1,0.1-0.3,0.2-0.5,0.2
		c-0.1,0-0.2,0-0.3,0s-0.2,0-0.3-0.1C169.5,125.9,169.5,125.9,169.4,125.8L169.4,125.8L169.4,125.8
		C169.3,125.8,169.3,125.8,169.4,125.8C169.3,125.8,169.4,125.8,169.4,125.8z M170.2,126.4c0.1-0.1,0.1-0.2,0.2-0.2
		C170.4,126.2,170.4,126.3,170.2,126.4C170.3,126.3,170.2,126.4,170.2,126.4L170.2,126.4C170.2,126.5,170.2,126.4,170.2,126.4z
		 M170.1,126.5L170.1,126.5L170.1,126.5L170.1,126.5z M170.1,126.5L170.1,126.5L170.1,126.5L170.1,126.5z"/>
	<path class="st36" d="M174.4,146.3c0.1,0.1,0.1,0.2,0.2,0.3c0.1,0.1,0.1,0.2,0.1,0.3s0,0.2,0,0.3c0,0.2-0.1,0.3-0.1,0.5
		c0.1-0.1,0.2-0.2,0.2-0.3l0.1-0.1c0,0,0,0-0.1,0.1l0,0l0,0c-0.1,0.1-0.2,0.2-0.2,0.3c0.1-0.1,0.3-0.2,0.5-0.2c0.1,0,0.2,0,0.3,0
		s0.2,0,0.3,0.1c0.1,0,0.2,0.1,0.3,0.2l0,0c-0.1-0.1-0.1-0.2-0.2-0.3c-0.1-0.1-0.1-0.2-0.1-0.3s0-0.2,0-0.3c0-0.2,0.1-0.3,0.1-0.5
		c-0.1,0.1-0.2,0.2-0.2,0.3c0,0,0,0-0.1,0.1l0,0l0,0c0.1-0.1,0.2-0.2,0.2-0.3c-0.1,0.1-0.3,0.2-0.5,0.2c-0.1,0-0.2,0-0.3,0
		s-0.2,0-0.3-0.1C174.5,146.4,174.5,146.3,174.4,146.3L174.4,146.3C174.3,146.3,174.3,146.3,174.4,146.3
		C174.3,146.3,174.3,146.3,174.4,146.3C174.3,146.3,174.4,146.3,174.4,146.3z"/>
	<path class="st36" d="M177.3,130.6c0.1-0.1,0.2-0.2,0.2-0.3c-0.1,0.1-0.3,0.2-0.5,0.2c-0.1,0-0.2,0-0.3,0s-0.2,0-0.3-0.1
		c-0.1,0-0.2-0.1-0.3-0.2l0,0c0.1,0.1,0.1,0.2,0.2,0.3c0.1,0.1,0.1,0.2,0.1,0.3s0,0.2,0,0.3c0,0.2-0.1,0.3-0.1,0.5
		c0.1-0.1,0.2-0.2,0.2-0.3l0,0l0,0l0,0c-0.1,0.1-0.2,0.2-0.2,0.3c0.1-0.1,0.3-0.2,0.5-0.2c0.1,0,0.2,0,0.3,0s0.2,0,0.3,0.1
		c0.1,0,0.2,0.1,0.3,0.1l0,0l0,0l0,0l0,0c-0.1-0.1-0.1-0.2-0.2-0.3c-0.1-0.1-0.1-0.2-0.1-0.3s0-0.2,0-0.3c0-0.2,0.1-0.3,0.1-0.5
		C177.4,130.4,177.3,130.5,177.3,130.6C177.2,130.6,177.2,130.6,177.3,130.6C177.2,130.7,177.2,130.7,177.3,130.6
		C177.2,130.6,177.2,130.6,177.3,130.6z"/>
	<path class="st36" d="M164,133.9c0.1,0.1,0.1,0.2,0.2,0.3c0.1,0.1,0.1,0.2,0.1,0.3s0,0.2,0,0.3c0,0.2-0.1,0.3-0.1,0.5
		c0.1-0.1,0.2-0.2,0.2-0.3l0.1-0.1c0,0,0,0-0.1,0.1l0,0l0,0c-0.1,0.1-0.2,0.2-0.2,0.3c0.1-0.1,0.3-0.2,0.5-0.2c0.1,0,0.2,0,0.3,0
		s0.2,0,0.3,0.1c0.1,0,0.2,0.1,0.3,0.2l0,0c-0.1-0.1-0.1-0.2-0.2-0.3c-0.1-0.1-0.1-0.2-0.1-0.3s0-0.2,0-0.3c0-0.2,0.1-0.3,0.1-0.5
		c-0.1,0.1-0.2,0.2-0.2,0.3c0,0,0,0,0,0.1l0,0l0,0c0.1-0.1,0.2-0.2,0.2-0.3c-0.1,0.1-0.3,0.2-0.5,0.2c-0.1,0-0.2,0-0.3,0
		s-0.2,0-0.3-0.1C164.1,134,164.1,134,164,133.9L164,133.9L164,133.9L164,133.9L164,133.9z M164.8,134.6c0.1-0.1,0.1-0.2,0.2-0.2
		C165,134.4,165,134.5,164.8,134.6C164.9,134.4,164.8,134.5,164.8,134.6L164.8,134.6L164.8,134.6z M164.7,134.6L164.7,134.6
		L164.7,134.6L164.7,134.6z M164.7,134.6L164.7,134.6L164.7,134.6L164.7,134.6z"/>
	<path class="st36" d="M173.1,130.1c-0.1,0-0.2,0-0.3-0.1c-0.1,0-0.2-0.1-0.3-0.2l0,0c0.1,0.1,0.1,0.2,0.2,0.3
		c0.1,0.1,0.1,0.2,0.1,0.3s0,0.2,0,0.3c0,0.2-0.1,0.3-0.1,0.5c0.1-0.1,0.2-0.2,0.2-0.3l0,0l0,0l0,0l0,0l0,0
		c-0.1,0.1-0.2,0.2-0.2,0.3c0.1-0.1,0.3-0.2,0.5-0.2c0.1,0,0.2,0,0.3,0s0.2,0,0.3,0.1c0.1,0,0.2,0.1,0.3,0.1l0,0l0,0l0,0l0,0
		c-0.1-0.1-0.1-0.2-0.2-0.3c-0.1-0.1-0.1-0.2-0.1-0.3s0-0.2,0-0.3c0-0.2,0.1-0.3,0.1-0.5c-0.1,0.1-0.2,0.2-0.2,0.3c0,0,0,0-0.1,0.1
		l0,0l0,0c0.1-0.1,0.2-0.2,0.2-0.3c-0.1,0.1-0.3,0.2-0.5,0.2C173.3,130.2,173.2,130.2,173.1,130.1z M173.3,130.6L173.3,130.6
		L173.3,130.6L173.3,130.6L173.3,130.6L173.3,130.6z M173.5,130.4c-0.1,0.1-0.1,0.1-0.2,0.2l0,0l0,0
		C173.4,130.5,173.5,130.4,173.5,130.4C173.6,130.3,173.5,130.4,173.5,130.4z"/>
	<path class="st36" d="M187.4,137.1c0.1,0.1,0.1,0.2,0.2,0.3c0.1,0.1,0.1,0.2,0.1,0.3s0,0.2,0,0.3c0,0.2-0.1,0.3-0.1,0.5
		c0.1-0.1,0.2-0.2,0.2-0.3l0.1-0.1c0,0,0,0-0.1,0.1l0,0l0,0c-0.1,0.1-0.2,0.2-0.2,0.3c0.1-0.1,0.3-0.2,0.5-0.2c0.1,0,0.2,0,0.3,0
		s0.2,0,0.3,0.1c0.1,0,0.2,0.1,0.3,0.2l0,0c-0.1-0.1-0.1-0.2-0.2-0.3c-0.1-0.1-0.1-0.2-0.1-0.3s0-0.2,0-0.3c0-0.2,0.1-0.3,0.1-0.5
		c-0.1,0.1-0.2,0.2-0.2,0.3c0,0,0,0-0.1,0.1l0,0l0,0c0.1-0.1,0.2-0.2,0.2-0.3c-0.1,0.1-0.3,0.2-0.5,0.2c-0.1,0-0.2,0-0.3,0
		s-0.2,0-0.3-0.1C187.6,137.2,187.5,137.1,187.4,137.1L187.4,137.1L187.4,137.1L187.4,137.1L187.4,137.1z"/>
	<path class="st36" d="M171.5,138.5c-0.1,0-0.2,0-0.3,0s-0.2-0.1-0.3-0.1c-0.1-0.1-0.2-0.1-0.2-0.2c-0.1-0.1-0.2-0.3-0.3-0.5
		c0,0.1,0,0.2,0,0.4v0.1l0,0c0,0,0,0,0-0.1s0-0.3,0-0.4c0,0.2-0.1,0.4-0.1,0.5s-0.1,0.2-0.2,0.2c-0.1,0.1-0.2,0.1-0.2,0.2
		c-0.1,0-0.2,0.1-0.3,0.1l0,0l0,0l0,0l0,0c0.1,0,0.2,0,0.3,0s0.2,0.1,0.3,0.1c0.1,0.1,0.2,0.1,0.2,0.2c0,0,0,0,0,0.1l0,0l0,0l0,0
		l0,0l0,0c0,0.1,0.1,0.1,0.1,0.2c0,0.1,0.1,0.2,0.1,0.3s0,0.2,0,0.3c0,0.2-0.1,0.4-0.2,0.5c0.1-0.1,0.2-0.2,0.3-0.3l0,0l0,0
		c0,0,0,0,0,0.1c-0.1,0.1-0.2,0.2-0.3,0.3c0.2-0.1,0.3-0.2,0.5-0.2c0.1,0,0.2,0,0.3,0s0.2,0,0.3,0.1c0.1,0,0.2,0.1,0.3,0.1l0,0l0,0
		l0,0l0,0c-0.1-0.1-0.1-0.2-0.2-0.3c0-0.1-0.1-0.2-0.1-0.3s0-0.2,0-0.3c0-0.2,0.1-0.4,0.2-0.5c-0.1,0.1-0.2,0.2-0.3,0.3l0,0l0,0l0,0
		c0.1-0.1,0.2-0.2,0.3-0.3c-0.2,0.1-0.3,0.2-0.5,0.2c-0.1,0-0.2,0-0.3,0s-0.2,0-0.3,0c0-0.1,0.1-0.2,0.1-0.2c0-0.1,0.1-0.2,0.2-0.2
		c0.1-0.1,0.2-0.1,0.2-0.2C171.3,138.6,171.4,138.5,171.5,138.5L171.5,138.5L171.5,138.5L171.5,138.5L171.5,138.5z M170.6,139.2
		C170.6,139.2,170.7,139.2,170.6,139.2L170.6,139.2L170.6,139.2L170.6,139.2C170.6,139.1,170.6,139.1,170.6,139.2
		C170.6,139.1,170.6,139.2,170.6,139.2z"/>
	<path class="st36" d="M186,151.3c0.1-0.1,0.2-0.2,0.3-0.3c-0.2,0.1-0.3,0.2-0.5,0.2c-0.1,0-0.2,0-0.3,0s-0.2,0-0.3-0.1
		c-0.1,0-0.2-0.1-0.3-0.1l0,0c0.1,0.1,0.1,0.2,0.2,0.3c0,0.1,0.1,0.2,0.1,0.3s0,0.2,0,0.3c0,0.2-0.1,0.4-0.2,0.5
		c0.1-0.1,0.2-0.2,0.3-0.3l0,0l0,0l0,0c-0.1,0.1-0.2,0.2-0.3,0.3c0.2-0.1,0.3-0.2,0.5-0.2c0.1,0,0.2,0,0.3,0s0.2,0,0.3,0.1
		c0.1,0,0.2,0.1,0.3,0.1l0,0l0,0l0,0l0,0c-0.1-0.1-0.1-0.2-0.1-0.3s-0.1-0.2-0.1-0.3s0-0.2,0-0.3c0-0.2,0.1-0.4,0.2-0.5
		C186.1,151.1,186.1,151.2,186,151.3C186,151.3,185.9,151.3,186,151.3C185.9,151.3,185.9,151.3,186,151.3
		C185.9,151.3,186,151.3,186,151.3z"/>
	<path class="st36" d="M180.5,138.2c0.1,0,0.2,0,0.3,0s0.2,0.1,0.3,0.1c0.1,0.1,0.2,0.1,0.2,0.2c0.1,0.1,0.2,0.3,0.3,0.5
		c0-0.2,0.1-0.4,0.1-0.5s0.1-0.2,0.2-0.2c0.1-0.1,0.2-0.1,0.2-0.2c0.1,0,0.2-0.1,0.3-0.1l0,0l0,0l0,0l0,0c-0.1,0-0.2,0-0.3,0
		s-0.2-0.1-0.3-0.1c-0.1-0.1-0.2-0.1-0.2-0.2c-0.1-0.1-0.2-0.3-0.3-0.5c0,0.1,0,0.2,0,0.4v0.1l0,0c0,0,0,0,0-0.1s0-0.3,0-0.4
		c0,0.2-0.1,0.4-0.1,0.5s-0.1,0.2-0.2,0.2c-0.1,0.1-0.2,0.1-0.2,0.2C180.7,138.1,180.6,138.1,180.5,138.2L180.5,138.2L180.5,138.2
		L180.5,138.2L180.5,138.2z"/>
	<path class="st36" d="M173.6,139.4c0.1,0,0.2,0,0.3,0s0.2,0.1,0.3,0.1c0.1,0.1,0.2,0.1,0.2,0.2c0.1,0.1,0.2,0.3,0.3,0.5
		c0-0.1,0-0.2,0-0.4l0,0l0,0c0,0,0,0,0,0.1s0,0.3,0,0.4c0-0.2,0.1-0.4,0.1-0.5s0.1-0.2,0.2-0.2c0.1-0.1,0.2-0.1,0.2-0.2
		c0.1,0,0.2-0.1,0.3-0.1l0,0l0,0l0,0l0,0c-0.1,0-0.2,0-0.3,0s-0.2-0.1-0.3-0.1c-0.1-0.1-0.2-0.1-0.2-0.2c-0.1-0.1-0.2-0.3-0.3-0.5
		c0,0.1,0,0.2,0,0.4c0,0,0,0,0,0.1l0,0l0,0c0-0.1,0-0.3,0-0.4c0,0.2-0.1,0.4-0.1,0.5s-0.1,0.2-0.2,0.2c-0.1,0.1-0.2,0.1-0.2,0.2
		C173.8,139.3,173.7,139.4,173.6,139.4L173.6,139.4L173.6,139.4L173.6,139.4L173.6,139.4z"/>
	<path class="st36" d="M183.1,135.6c0.1,0,0.2,0,0.3,0s0.2,0.1,0.3,0.1c0.1,0.1,0.2,0.1,0.2,0.2c0.1,0.1,0.2,0.3,0.3,0.5
		c0-0.1,0-0.2,0-0.4l0,0l0,0c0,0,0,0,0,0.1s0,0.3,0,0.4c0-0.2,0.1-0.4,0.1-0.5s0.1-0.2,0.2-0.2c0.1-0.1,0.2-0.1,0.2-0.2
		c0.1,0,0.2-0.1,0.3-0.1l0,0l0,0l0,0l0,0c-0.1,0-0.2,0-0.3,0s-0.2-0.1-0.3-0.1c-0.1-0.1-0.2-0.1-0.2-0.2c-0.1-0.1-0.2-0.3-0.3-0.5
		c0,0.1,0,0.2,0,0.4c0,0,0,0,0,0.1l0,0c0,0.1,0,0.1,0,0.2c0,0.1,0,0.2,0,0.3l0,0c0-0.2,0-0.3-0.1-0.5c0-0.1,0-0.3,0-0.4
		c0,0.2-0.1,0.4-0.1,0.5s-0.1,0.2-0.2,0.2c-0.1,0.1-0.2,0.1-0.2,0.2C183.3,135.5,183.2,135.5,183.1,135.6L183.1,135.6L183.1,135.6
		L183.1,135.6L183.1,135.6z"/>
	<path class="st36" d="M171,128c0,0.2-0.1,0.4-0.1,0.5s-0.1,0.2-0.2,0.2c-0.1,0.1-0.2,0.1-0.2,0.2c-0.1,0.1-0.2,0.1-0.3,0.1l0,0
		c0.1,0,0.2,0,0.3,0.1c0.1,0,0.2,0.1,0.3,0.1c0.1,0.1,0.2,0.1,0.2,0.2c0.1,0.1,0.2,0.3,0.3,0.5c0-0.1,0-0.2,0-0.4c0,0,0,0,0-0.1l0,0
		c0,0,0,0,0,0.1s0,0.3,0,0.4c0-0.2,0.1-0.4,0.1-0.5s0.1-0.2,0.2-0.2c0.1-0.1,0.2-0.1,0.2-0.2c0.1-0.1,0.2-0.1,0.3-0.1l0,0
		c-0.1,0-0.2,0-0.3-0.1c-0.1,0-0.2-0.1-0.3-0.1c-0.1-0.1-0.2-0.1-0.2-0.2C171.2,128.3,171.1,128.1,171,128c0,0.1,0,0.2,0,0.4v0.1
		l0,0c0,0,0,0,0-0.1C171,128.2,171,128.1,171,128z"/>
	<path class="st36" d="M166,125.2c0.1-0.1,0.2-0.1,0.2-0.2c0.1-0.1,0.2-0.1,0.3-0.1l0,0c-0.1,0-0.2,0-0.3-0.1
		c-0.1,0-0.2-0.1-0.3-0.1c-0.1-0.1-0.2-0.1-0.2-0.2c-0.1-0.1-0.2-0.3-0.3-0.5c0,0.1,0,0.2,0,0.4c0,0,0,0,0,0.1l0,0
		c0,0.1,0,0.1,0,0.2s0,0.2,0,0.2l0,0c0-0.2,0-0.3-0.1-0.5c0-0.1,0-0.3,0-0.4c0,0.2-0.1,0.4-0.1,0.5s-0.1,0.2-0.2,0.2
		c-0.1,0.1-0.2,0.1-0.2,0.2c-0.1,0.1-0.2,0.1-0.3,0.1l0,0c0.1,0,0.2,0,0.3,0.1c0.1,0,0.2,0.1,0.3,0.1c0.1,0.1,0.2,0.1,0.2,0.2
		c0.1,0.1,0.2,0.3,0.3,0.5c0-0.1,0-0.2,0-0.4l0,0l0,0c0,0,0,0,0,0.1s0,0.3,0,0.4c0-0.2,0.1-0.4,0.1-0.5
		C165.8,125.3,165.9,125.2,166,125.2z"/>
	<path class="st36" d="M182.3,150.8c0-0.1,0-0.2,0-0.3s0.1-0.2,0.1-0.3c0.1-0.1,0.1-0.2,0.2-0.2c0.1-0.1,0.3-0.2,0.5-0.3
		c-0.1,0-0.2,0-0.4,0.1l0,0l0,0c-0.1,0-0.1,0-0.2,0l0,0c-0.1,0-0.2,0-0.3,0l0,0l0,0c0.2,0,0.3-0.1,0.5-0.1c0.1,0,0.2,0,0.4-0.1
		c-0.2,0-0.4,0-0.5-0.1c-0.1,0-0.2-0.1-0.3-0.2c-0.1-0.1-0.1-0.1-0.2-0.2c-0.1-0.1-0.1-0.2-0.1-0.3l0,0l0,0l0,0l0,0
		c0,0.1,0,0.2,0,0.3s-0.1,0.2-0.1,0.3c-0.1,0.1-0.1,0.2-0.2,0.2c-0.1,0.1-0.3,0.2-0.5,0.3c0.1,0,0.2,0,0.4-0.1c0,0,0,0,0.1,0l0,0
		h-0.1c-0.1,0-0.2,0-0.4,0.1c0.2,0,0.4,0,0.5,0.1c0.1,0,0.2,0.1,0.3,0.2c0.1,0.1,0.1,0.1,0.2,0.2
		C182.2,150.6,182.2,150.7,182.3,150.8c0-0.1,0-0.3-0.1-0.4l0,0C182.2,150.5,182.3,150.6,182.3,150.8z"/>
	<path class="st36" d="M189.6,141.8c-0.1-0.1-0.2-0.1-0.2-0.2c-0.1-0.1-0.1-0.2-0.2-0.3c-0.1-0.1-0.1-0.2-0.1-0.3c0-0.2,0-0.4,0-0.6
		c0,0.1-0.1,0.2-0.1,0.3c0,0,0,0,0,0.1l0,0c0,0,0,0,0-0.1s0.1-0.2,0.1-0.3c-0.1,0.1-0.2,0.3-0.4,0.4c-0.1,0.1-0.2,0.1-0.3,0.1
		s-0.2,0-0.3,0s-0.2,0-0.3,0l0,0l0,0l0,0l0,0c0.1,0.1,0.2,0.1,0.2,0.2c0.1,0.1,0.1,0.2,0.2,0.3c0.1,0.1,0.1,0.2,0.1,0.3
		c0,0,0,0,0,0.1l0,0l0,0l0,0l0,0c0,0,0,0,0,0.1s0,0.2,0,0.3s0,0.2-0.1,0.3c0,0.1-0.1,0.2-0.2,0.3c-0.1,0.1-0.3,0.2-0.4,0.4
		c0.1,0,0.2-0.1,0.4-0.1c0,0,0,0,0.1,0l0,0c0,0,0,0-0.1,0s-0.2,0.1-0.4,0.1c0.2,0,0.4,0,0.5,0s0.2,0.1,0.3,0.1
		c0.1,0.1,0.2,0.1,0.2,0.2c0.1,0.1,0.1,0.1,0.2,0.2l0,0l0,0l0,0l0,0c0-0.1,0-0.2,0-0.3s0-0.2,0.1-0.3c0-0.1,0.1-0.2,0.2-0.3
		c0.1-0.1,0.3-0.2,0.4-0.4c-0.1,0-0.2,0.1-0.4,0.1c0,0,0,0-0.1,0l0,0l0,0c0.1,0,0.2-0.1,0.4-0.1c-0.2,0-0.4,0-0.5,0
		s-0.2-0.1-0.3-0.1s-0.1-0.1-0.2-0.2c0.1-0.1,0.1-0.1,0.2-0.2c0.1-0.1,0.2-0.1,0.3-0.1s0.2,0,0.3,0
		C189.4,141.8,189.5,141.8,189.6,141.8L189.6,141.8L189.6,141.8L189.6,141.8L189.6,141.8z M188.5,142L188.5,142L188.5,142L188.5,142
		C188.5,142,188.5,141.9,188.5,142C188.5,141.9,188.5,141.9,188.5,142C188.5,141.9,188.5,141.9,188.5,142z"/>
	<path class="st36" d="M190.8,144c0,0.2-0.1,0.4-0.1,0.5s-0.1,0.2-0.2,0.2c-0.1,0.1-0.2,0.1-0.2,0.2c-0.1,0.1-0.2,0.1-0.3,0.1l0,0
		c0.1,0,0.2,0,0.3,0.1c0.1,0,0.2,0.1,0.3,0.1c0.1,0.1,0.2,0.1,0.2,0.2c0.1,0.1,0.2,0.3,0.3,0.5c0-0.1,0-0.2,0-0.4c0,0,0,0,0-0.1l0,0
		c0,0,0,0,0,0.1s0,0.3,0,0.4c0-0.2,0.1-0.4,0.1-0.5s0.1-0.2,0.2-0.2c0.1-0.1,0.2-0.1,0.2-0.2c0.1-0.1,0.2-0.1,0.3-0.1l0,0
		c-0.1,0-0.2,0-0.3-0.1c-0.1,0-0.2-0.1-0.3-0.1c-0.1-0.1-0.2-0.1-0.2-0.2C191,144.4,190.9,144.2,190.8,144c0,0.1,0,0.2,0,0.4v0.1
		l0,0c0,0,0,0,0-0.1C190.8,144.3,190.8,144.2,190.8,144z"/>
	<path class="st36" d="M193.1,146.5c0,0.2-0.1,0.4-0.1,0.5s-0.1,0.2-0.2,0.2c-0.1,0.1-0.2,0.1-0.2,0.2c-0.1,0.1-0.2,0.1-0.3,0.1l0,0
		c0.1,0,0.2,0,0.3,0.1c0.1,0,0.2,0.1,0.3,0.1c0.1,0.1,0.2,0.1,0.2,0.2c0.1,0.1,0.2,0.3,0.3,0.5c0-0.1,0-0.2,0-0.4c0,0,0,0,0-0.1l0,0
		c0,0,0,0,0,0.1s0,0.3,0,0.4c0-0.2,0.1-0.4,0.1-0.5s0.1-0.2,0.2-0.2c0.1-0.1,0.2-0.1,0.2-0.2c0.1-0.1,0.2-0.1,0.3-0.1l0,0
		c-0.1,0-0.2,0-0.3-0.1c-0.1,0-0.2-0.1-0.3-0.1c-0.1-0.1-0.2-0.1-0.2-0.2C193.2,146.9,193.1,146.7,193.1,146.5c0,0.1,0,0.2,0,0.4
		v0.1l0,0c0,0,0,0,0-0.1C193.1,146.8,193.1,146.7,193.1,146.5z"/>
	<path class="st36" d="M191.8,141.2c0.1,0.1,0.1,0.2,0.2,0.3c0.1,0.1,0.1,0.2,0.1,0.3s0,0.2,0,0.3c0,0.2-0.1,0.3-0.1,0.5
		c0.1-0.1,0.2-0.2,0.2-0.3l0.1-0.1c0,0,0,0-0.1,0.1l0,0l0,0c-0.1,0.1-0.2,0.2-0.2,0.3c0.1-0.1,0.3-0.2,0.5-0.2c0.1,0,0.2,0,0.3,0
		s0.2,0,0.3,0.1c0.1,0,0.2,0.1,0.3,0.2l0,0c-0.1-0.1-0.1-0.2-0.2-0.3c-0.1-0.1-0.1-0.2-0.1-0.3s0-0.2,0-0.3c0-0.2,0.1-0.3,0.1-0.5
		c-0.1,0.1-0.2,0.2-0.2,0.3c0,0,0,0,0,0.1l0,0l0,0c0.1-0.1,0.2-0.2,0.2-0.3c-0.1,0.1-0.3,0.2-0.5,0.2c-0.1,0-0.2,0-0.3,0
		s-0.2,0-0.3-0.1C192,141.3,191.9,141.2,191.8,141.2L191.8,141.2L191.8,141.2L191.8,141.2L191.8,141.2z M192.6,141.8
		c0.1-0.1,0.1-0.2,0.2-0.2C192.8,141.6,192.8,141.7,192.6,141.8C192.7,141.7,192.7,141.8,192.6,141.8L192.6,141.8L192.6,141.8z
		 M192.6,141.9L192.6,141.9L192.6,141.9L192.6,141.9z M192.6,141.9L192.6,141.9L192.6,141.9L192.6,141.9z"/>
</g>
<g>
	<g>
		<g>
			<path class="st19" d="M17.2,141.9c0.2,0.3,0.5,0.6,0.7,0.9c0.5,0.6,1,1.1,1.4,1.6c0-0.1,0.1-0.3,0.1-0.5c0.5-1.4,1.8-2.1,2.8-3
				c1.2-1.1,2.4-2.1,3.6-3.2c1-0.9,2-1.8,3.1-2.6c1.1-0.9,2.1-1.9,3.2-2.8c0.3-0.3,0.6-0.5,0.9-0.8c0.1-0.1,0.2-0.2,0.3-0.3
				c0.2-0.3,0.3-0.6,0.5-1c0.1-0.2,0.2-0.4,0.3-0.6c0-0.1,0-0.3,0-0.4c-0.2,0.1-0.3,0.2-0.5,0.3c-1,0.6-2,1.4-3,2.1
				c-1.2,0.8-2.5,1.6-3.7,2.4c-1.1,0.8-2.1,1.7-3.2,2.5c-1.2,0.9-2.3,1.8-3.4,2.7c-0.5,0.4-1,0.8-1.6,1.2c-0.5,0.4-1.1,0.8-1.7,0.9
				C17,141.4,17,141.7,17.2,141.9z"/>
			<path class="st20" d="M19.4,144.2c0.1-0.6,0.5-1.1,0.9-1.6c-0.1,0.1-0.3,0.3-0.4,0.4c-0.1,0.1-0.2,0.3-0.3,0.4
				c-0.4,0.2-0.1-0.5-0.1-0.7c0.3-0.5,0.9-1,1.4-1.3c0.4-0.4,0.9-0.7,1.4-1.1c0.9-0.8,1.8-1.7,2.7-2.6c-0.5,0.4-0.9,0.8-1.4,1.2
				c-0.6,0.6-1.2,1.2-1.9,1.7c-0.4,0.3-0.8,0.7-1.3,1c-0.2,0.2-0.5,0.3-0.7,0.5c-0.2,0.1-0.4,0.1-0.6,0.1c0-0.3,0-0.3,0.1-0.5
				c0.1-0.1,0.3-0.3,0.4-0.4c0.2-0.2,0.5-0.4,0.8-0.7c0.7-0.5,1.3-1.1,2-1.6c-0.6,0.3-1.1,0.7-1.7,1.1c-0.5,0.4-0.9,0.7-1.4,1.1
				c-0.2,0.2-0.5,0.5-0.8,0.5c-0.2,0-0.3-0.1-0.3-0.2c0-0.1,0.1-0.2,0.2-0.3c0.4-0.5,1-0.9,1.4-1.3c0.4-0.4,0.9-0.8,1.3-1.2
				c-0.6,0.5-1.2,0.9-1.8,1.4c-0.6,0.4-1.3,1.1-2.1,1.1C17.7,142.2,18.5,143.2,19.4,144.2z"/>
			<path class="st20" d="M28.5,135.4c1.1-1,2.2-1.9,3.3-2.9c0.5-0.5,1.2-0.9,1.5-1.5c0.2-0.3,0.4-0.6,0.5-1c0.1-0.1,0.1-0.3,0.2-0.4
				c0.1-0.2,0-0.3,0-0.5c-0.6,0.3-1.2,0.7-1.8,1.1c-1.1,0.8-2.2,1.6-3.2,2.4c-1,0.8-2,1.6-2.9,2.5c0.5-0.4,1-0.8,1.5-1.3
				c0.8-0.7,1.7-1.3,2.6-1.9c0.4-0.3,0.9-0.6,1.4-0.9c0.4-0.2,0.8-0.6,1.2-0.7c-0.2,0.4-0.4,0.6-0.8,0.9c-0.6,0.5-1.3,0.9-2,1.4
				c-0.5,0.4-1,0.8-1.5,1.3c0.7-0.5,1.3-1,2-1.4c0.3-0.2,0.7-0.4,1-0.7c0.2-0.1,0.4-0.3,0.6-0.4c0.1-0.1,0.3-0.3,0.4-0.2
				c-0.3,0.5-0.8,0.8-1.3,1.1c-0.4,0.3-0.9,0.6-1.3,0.9c0.3-0.2,0.7-0.4,1-0.6c0.3-0.2,0.6-0.5,0.9-0.5c-0.5,0.4-0.9,0.9-1.4,1.3
				c-1.6,1.4-3.2,2.8-5,3.8c0.6-0.2,1-0.6,1.5-0.9c0.1-0.1,0.2-0.1,0.3-0.2c0.1-0.1,0.3-0.3,0.3-0.1c0.1,0.2-0.4,0.5-0.5,0.6
				C27.5,136.2,28,135.8,28.5,135.4z"/>
			<path class="st21" d="M33.6,130.3c0,0.1-0.4,0.9-0.6,0.8c-0.2-0.1,0.2-0.9,0.3-1.1c0.1-0.3,0.4-0.6,0.6-0.8
				C34,129.6,33.8,130,33.6,130.3z"/>
		</g>
		<path class="st22" d="M17.8,144.1c-0.1-0.3-0.1-0.3-0.4-0.5c-0.2-0.1-0.3-0.2-0.5-0.4c-0.1-0.1-0.3-0.2-0.4-0.3
			c-0.2,0-0.5,0.2-0.6,0.3c-0.4,0.2-0.7,0.4-1.1,0.6c-0.5,0.4-1.1,0.8-1.6,1.3c-0.4,0.3-0.8,0.6-1.1,0.9c-0.4,0.3-0.7,0.7-1.1,1.1
			c-0.3,0.3-0.5,0.5-0.7,0.8c-0.1,0.1-0.3,0.2-0.4,0.4c-0.1,0.2-0.1,0.4-0.2,0.6c-0.1,0.3-0.2,0.6-0.3,1c0,0.2,0.1,0.3,0.1,0.5
			c0.1,0.3,0.2,0.6,0.4,0.9c0.1,0.2,0.3,0.3,0.4,0.4c0.2,0.2,0.4,0.4,0.6,0.6c0-0.2,0.1-0.4,0.3-0.6c0.2-0.2,0.3-0.2,0.5-0.1
			c0.5,0,0.8-0.2,1-0.6c0.2-0.3,0-0.7,0.2-1.1c0.2-0.4,0.5-0.4,0.9-0.4c0.4,0.1,0.7-0.2,0.9-0.5c0.1-0.4,0-0.8,0.3-1.1
			c0.1-0.1,0.3-0.2,0.5-0.2s0.4,0.1,0.6,0.1c0.5-0.1,0.5-0.5,0.6-0.9c0.2-0.4,0.5-0.7,0.7-1s0.5-0.6,0.7-0.9
			C18.1,144.7,18,144.4,17.8,144.1z"/>
		<path class="st23" d="M15.5,147.7c-0.3,0.1-0.4,0.3-0.5,0.6c-0.1,0.2-0.1,0.5-0.2,0.7c-0.1,0.3-0.2,0.4-0.5,0.4
			c0.4-0.2,0.5-0.6,0.3-1.1c-0.2-0.4-0.2-0.8-0.3-1.2c0.1,0.1,0.1,0.3,0.2,0.4c0,0.1,0.1,0.4,0.3,0.3c0.1,0,0.2-0.2,0.3-0.3
			c0.1-0.2,0.1-0.2,0-0.4s-0.2-0.5-0.3-0.7c-0.2-0.3-0.4-0.3-0.7-0.2c0.1-0.1,0.2-0.1,0.4-0.2c-0.1-0.2-0.3-0.2-0.5-0.3
			c0.6-0.1,0.9,0.4,1.2,0.9c0.1,0.3,0.2,0.6,0.4,0.8s0.4,0.3,0.7,0.4C15.9,147.8,15.7,147.7,15.5,147.7z"/>
		<path class="st23" d="M13.4,149.6c-0.1,0.1-0.3,0.2-0.3,0.3c0-0.2,0.1-0.3,0.2-0.4c0.1-0.1,0.2-0.1,0-0.2c-0.3-0.1-0.6,0-0.8,0.2
			c0.2-0.2,0.4-0.3,0.7-0.3c-0.3-0.3-0.2-0.7-0.6-0.9c-0.2-0.1-0.4-0.1-0.6,0.1c-0.1,0.2-0.1,0.3-0.1,0.5c-0.2-0.3-0.2-0.5,0.1-0.8
			c0.3-0.2,0.6-0.2,0.9,0c0.2,0.2,0.2,0.5,0.3,0.8s0.4,0.5,0.7,0.6C13.7,149.6,13.6,149.5,13.4,149.6z"/>
		<path class="st23" d="M12.7,150.5c-0.2-0.3-0.3-0.6-0.4-0.9c0.1,0.4,0.2,0.7,0.4,1.1c0.3,0.8-1.1,1-1.5,0.5
			c-0.2-0.3-0.3-0.7-0.4-1c-0.1-0.4-0.2-0.7-0.2-1.1c0,0.4,0,0.8,0,1.2c0,0.1,0.3,0.8,0.2,0.8c-0.3,0.1-0.4-0.6-0.5-0.8
			c-0.1-0.4-0.1-0.7,0-1.1c0-0.4,0.1-0.6,0.3-0.9c-0.1,0.1-0.3,0.2-0.4,0.3c-0.1,0.2-0.2,0.5-0.3,0.7c-0.1,0.3-0.1,0.8,0,1.1
			s0.2,0.7,0.4,0.9c0.2,0.3,0.6,0.6,0.8,0.9c0.1-0.3,0.2-0.6,0.5-0.7c0.1,0,0.3,0,0.4,0c0.1,0,0.3-0.1,0.4-0.1
			c0.6-0.3,0.5-1.1,0.6-1.6C13,150.1,12.8,150.2,12.7,150.5c0-0.3-0.1-0.5-0.1-0.7C12.5,150.1,12.6,150.2,12.7,150.5z"/>
		<path class="st23" d="M17.9,144.9v-0.3c0-0.1-0.1-0.1-0.1-0.2c-0.1-0.2-0.3-0.4-0.4-0.5c-0.3-0.2-0.7-0.5-1.1-0.6
			c-0.1,0-0.2,0-0.4,0.1c-0.2,0.1-0.5,0.1-0.7,0.2c-0.2,0.1-0.2,0.2-0.4,0.3c-0.7,0.6-1.3,1.2-2,1.9c-0.7,0.6-1.3,1.2-2,1.8
			c-0.1,0.1-0.3,0.2-0.4,0.4c-0.1,0.1-0.4,0.3-0.4,0.4c0,0.1,0.2,0.4,0.3,0.5c0.4-0.5,0.9-1,1.3-1.5c0.9-1,1.8-1.9,2.8-2.7
			c0.4-0.4,1-0.7,1.5-0.8c0.3-0.1,0.6,0,0.9,0.1s0.4,0.5,0.1,0.6C17.3,144.7,17.6,144.8,17.9,144.9z"/>
		<path class="st24" d="M11.4,147.5c-0.4,0.4-0.8,0.9-1.2,1.4c-0.3,0.5-0.4,1.1-0.2,1.7c0.2,0.5,0.5,1,0.9,1.5
			c0.3,0.4,0.8,0.9,1,1.5c0.1,0.3,0.2,0.5,0.2,0.8s-0.1,0.5-0.4,0.8c-0.2,0.2-0.4,0.4-0.7,0.4s-0.5-0.1-0.8-0.3
			c-0.9-0.6-1-2.3-2.2-2.4c0.3-0.1,0.6-0.2,0.9-0.1c0.6,0.3,0.7,1.2,1.2,1.6c0.1,0.1,0.2,0.2,0.4,0.1c0.2-0.1,0.3-0.2,0.4-0.4
			c0.1-0.3,0-0.7-0.1-1s-0.4-0.5-0.6-0.7c-0.3-0.3-0.5-0.5-0.8-0.8s-0.5-0.5-0.6-0.9c-0.1-0.3-0.1-0.6-0.1-0.9
			c0.2-1.5,1.2-2.6,2.3-3.5s2.2-1.8,3.3-2.7c0.3-0.3,0.6-0.5,0.9-0.8c0.2-0.2,0.6-0.4,0.6-0.7s-0.4-0.6-0.6-0.9
			c-0.1-0.3-0.3-0.6-0.3-0.8c0-0.4-0.1-0.7-0.1-1.1c0-0.4,0.1-0.7,0.2-1.1c0.1-0.3,0.3-0.6,0.4-0.9c0.1-0.2,0.2-0.3,0.4-0.4
			c0.1-0.1,0.1-0.2,0.2-0.1c0.1,0,0.1,0.1,0.1,0.2c0.1,0.7,0.1,1.4,0.2,2.1c0.1,0.4,0.1,0.7,0.2,1.1c0.1,0.4,0.2,0.7,0.4,1.1
			c0.1,0.3,0.4,0.6,0.6,0.8s0.5,0.4,0.7,0.6c0.5,0.5,0.9,1.2,1.1,1.9c0.1,0.3,0.1,0.7,0,1c-0.1,0.4-0.2,0.7-0.5,1
			c-0.2,0.3-0.5,0.5-0.8,0.6c-0.4,0.1-0.7,0-1-0.2c-0.6-0.3-1-1.1-0.8-1.7c0.2-0.8,1-0.9,1.7-0.5c-0.5-0.5-1.1-1.2-1.8-1.1
			c-0.7,0-1.4,0.6-1.9,1.1C13.2,145.6,12.3,146.6,11.4,147.5z"/>
		<path class="st25" d="M17.2,145.6c-0.2,0.2-0.1,0.4,0.1,0.6c0.2,0.3,0.7,0.4,1,0.2c0.3-0.3,0.3-0.7,0.1-1.1
			c-0.2-0.4-0.5-0.6-0.8-0.9c-0.3-0.3-0.6-0.6-0.9-0.9c0.3,0.5,0.7,0.9,1,1.3c-0.2-0.1-0.3-0.2-0.5-0.2s-0.4,0.1-0.5,0.2
			c-0.4,0.2-0.5,0.6-0.5,1.1c0,0.7,0.6,1.3,1.2,1.5c0.3,0.1,0.7,0.2,1,0s0.6-0.5,0.7-0.8c0.8-1.3,0.1-2.9-0.9-3.8
			c0.6,0.7,1.1,1.6,1.1,2.6c0,0.4-0.1,0.8-0.3,1.1c-0.3,0.3-0.5,0.8-1,0.8c-0.4,0-0.9-0.1-1.2-0.5c-0.2-0.2-0.4-0.7-0.4-1
			c0.1-0.4,0.6-0.7,0.9-0.7s0.7,0.5,0.8,0.8c0.1,0.4-0.3,0.8-0.7,0.5c-0.2-0.1-0.3-0.3-0.3-0.5c0.1-0.2,0.3-0.3,0.5-0.2
			C17.7,145.2,17.4,145.4,17.2,145.6z"/>
		<path class="st25" d="M18.5,144.3c0.3-0.1,0.1-0.5,0-0.7c-0.2-0.4-0.6-0.8-0.9-1.1c-0.3-0.4-0.7-0.8-0.9-1.2
			c-0.2-0.4-0.4-0.8-0.6-1.2c-0.2-0.5-0.1-1-0.2-1.5c-0.2,0.8-0.3,1.5-0.1,2.2c0.2,0.8,0.6,1.4,1.2,1.9c-0.3-0.4-0.6-0.9-0.8-1.4
			c-0.1-0.2-0.2-0.5-0.2-0.7c0-0.1,0.1-0.2,0.2-0.2s0.1,0.2,0.1,0.3c0.2,0.5,0.5,0.9,0.8,1.4c0.3,0.4,0.6,0.7,0.9,1.1
			c0.1,0.1,0.3,0.4,0.4,0.6c0,0.2-0.2,0.5-0.4,0.3C17.9,144.1,18.3,144.4,18.5,144.3z"/>
		<path class="st26" d="M9.4,151.5c0.2,0.3,0.5,0.5,0.7,0.8c0.4,0.4,1,1,1,1.6c0,0.3,0,0.7-0.5,0.7c-0.3,0.1-0.5-0.1-0.7-0.4
			c-0.2-0.3-0.3-0.6-0.5-0.9c-0.1-0.3-0.3-0.4-0.4-0.7c-0.2-0.6-0.4-1.3-0.2-1.9C9,150.9,9.1,151.2,9.4,151.5z"/>
		<path class="st25" d="M16.5,142.5c-0.1-0.1-0.2-0.2-0.3-0.3c-0.1-0.1-0.1-0.2-0.2-0.3c-0.3-0.4-0.5-0.8-0.7-1.2
			c-0.1-0.4-0.1-0.8-0.1-1.3s0.1-0.9,0.4-1.4c0.1-0.2,0.2-0.4,0.3-0.6c0.1-0.1,0.1-0.2,0.2-0.2c0.1-0.1,0.1,0,0.2,0.1
			c0-0.2,0-0.5-0.1-0.4c-0.2,0-0.3,0.3-0.4,0.4c-0.2,0.2-0.3,0.3-0.4,0.5c-0.2,0.4-0.4,0.9-0.4,1.3c-0.1,0.8,0,1.8,0.5,2.5
			c0.2,0.4,0.6,0.7,0.2,1c-0.3,0.3-0.7,0.6-1,0.9c-0.6,0.5-1.3,1.1-1.9,1.6c-1.4,1.1-2.9,2.1-3.7,3.8c-0.4,0.7-0.4,1.8,0.1,2.4
			c0.3,0.3,0.6,0.7,0.9,1c0.3,0.3,0.6,0.6,0.8,1c0.2,0.3,0.3,0.9-0.1,1.1c-0.2,0.1-0.4,0.1-0.5,0c-0.2-0.1-0.3-0.2-0.4-0.4
			c-0.2-0.4-0.4-0.9-0.7-1.2c-0.4-0.3-0.8-0.2-1.2,0.1c0.2,0,0.3,0,0.4,0.1c0.3,0.1,0.6,0.2,0.8,0.5c0.3,0.3,0.4,0.6,0.6,0.9
			c0.2,0.2,0.4,0.6,0.7,0.5s0.5-0.4,0.6-0.7c0.1-0.7-0.4-1.3-0.8-1.8c-0.5-0.5-1.1-0.9-1.2-1.6c-0.1-0.7-0.1-1.3,0.2-2
			s0.8-1.1,1.3-1.6c1-1,2.1-1.8,3.2-2.6c0.5-0.4,1-0.8,1.4-1.2c0.2-0.2,0.5-0.7,0.8-0.7s0.5,0.5,0.5,0.7
			C16.7,143,16.6,142.8,16.5,142.5z"/>
		<g>
			
				<image style="overflow:visible;opacity:0.96;enable-background:new    ;" width="279" height="279" xlink:href="9A51B9EE17177041.png"  transform="matrix(-1.063993e-02 -1.202335e-02 -1.192725e-02 1.064891e-02 27.601 137.4065)">
			</image>
			<g>
				<g>
					
						<ellipse transform="matrix(0.7489 -0.6627 0.6627 0.7489 -84.7615 50.6659)" class="st27" cx="24.5" cy="137.2" rx="0.8" ry="0.8"/>
					
						<ellipse transform="matrix(0.7489 -0.6627 0.6627 0.7489 -84.7016 50.6336)" class="st28" cx="24.5" cy="137.1" rx="0.7" ry="0.7"/>
					
						<ellipse transform="matrix(0.7489 -0.6627 0.6627 0.7489 -84.4152 50.564)" class="st29" cx="24.5" cy="136.7" rx="0.2" ry="0.2"/>
					
						<ellipse transform="matrix(0.7489 -0.6627 0.6627 0.7489 -84.5925 50.5524)" class="st29" cx="24.4" cy="136.9" rx="0.1" ry="0.1"/>
					
						<ellipse transform="matrix(0.7489 -0.6627 0.6627 0.7489 -84.9796 50.9128)" class="st29" cx="24.7" cy="137.6" rx="0.1" ry="0.1"/>
					
						<ellipse transform="matrix(0.7489 -0.6627 0.6627 0.7489 -85.0762 50.8157)" class="st29" cx="24.5" cy="137.7" rx="0.1" ry="0.1"/>
					<ellipse class="st29" cx="24.3" cy="137.7" rx="0" ry="0"/>
				</g>
			</g>
		</g>
		<g>
			
				<image style="overflow:visible;opacity:0.96;enable-background:new    ;" width="279" height="283" xlink:href="9A51B9EE1717705E.png"  transform="matrix(-1.060179e-02 -1.198026e-02 -1.180096e-02 1.053616e-02 25.2615 139.5813)">
			</image>
			<g>
				<g>
					
						<ellipse transform="matrix(0.7489 -0.6627 0.6627 0.7489 -86.8381 49.6593)" class="st30" cx="22.1" cy="139.4" rx="0.8" ry="0.8"/>
					
						<ellipse transform="matrix(0.7489 -0.6627 0.6627 0.7489 -86.7782 49.627)" class="st31" cx="22.1" cy="139.3" rx="0.7" ry="0.7"/>
					<path class="st32" d="M22.3,138.9L22.3,138.9L22.3,138.9c0,0.1,0,0.1,0,0.1l0,0l0,0c0,0,0,0.1-0.1,0.1l0,0c0,0,0,0,0,0.1l0,0
						l0,0c0,0,0,0-0.1,0c0,0-0.1,0-0.1-0.1c0,0,0,0,0-0.1c0,0,0,0,0-0.1l0,0v-0.1l0,0c0,0,0,0,0-0.1s0-0.1,0.1-0.2
						c0.1,0,0.1,0,0.2,0h0.1c0,0,0.1,0,0.1,0.1C22.3,138.8,22.3,138.8,22.3,138.9z"/>
					<path class="st32" d="M22.5,139.7C22.5,139.8,22.5,139.8,22.5,139.7C22.5,139.8,22.5,139.8,22.5,139.7c0,0.1-0.1,0.1-0.1,0.1
						s0,0-0.1,0l0,0l0,0c0,0,0,0,0-0.1l0,0l0,0l0,0l0,0C22.3,139.6,22.4,139.7,22.5,139.7C22.4,139.7,22.4,139.7,22.5,139.7
						L22.5,139.7z"/>
					<path class="st32" d="M22.2,139.8C22.2,139.8,22.2,139.9,22.2,139.8C22.2,139.9,22.2,139.9,22.2,139.8
						C22.2,139.9,22.2,139.9,22.2,139.8C22.1,139.9,22.1,139.9,22.2,139.8c-0.1,0-0.1,0-0.1,0l0,0l0,0l0,0
						C22.1,139.8,22.1,139.8,22.2,139.8C22.1,139.8,22.1,139.8,22.2,139.8L22.2,139.8L22.2,139.8L22.2,139.8z"/>
					<path class="st32" d="M22,139.8L22,139.8L22,139.8C22,139.8,22,139.9,22,139.8C22,139.9,22,139.9,22,139.8
						C21.9,139.9,21.9,139.8,22,139.8C21.9,139.8,21.9,139.8,22,139.8C21.9,139.8,21.9,139.8,22,139.8
						C21.9,139.8,21.9,139.8,22,139.8C21.9,139.8,21.9,139.8,22,139.8C21.9,139.8,22,139.8,22,139.8L22,139.8L22,139.8L22,139.8z"/>
					<path class="st30" d="M22.7,138.9c0,0.1,0.1,0.1,0.1,0.2c0,0.1,0,0.1,0,0.2c0,0.1,0,0.1,0,0.2c0,0.1,0,0.1-0.1,0.2v0.1
						c-0.1,0.1-0.1,0.1-0.2,0.1l-0.1,0.1c0,0-0.1,0-0.2,0s-0.2,0-0.2,0h-0.1c-0.1,0-0.2-0.1-0.2-0.1s-0.1,0-0.1-0.1
						s-0.1-0.1-0.1-0.2v-0.1c0-0.1,0-0.1,0-0.2c0-0.1,0-0.1,0-0.2c0-0.1,0-0.1,0-0.1c0-0.1,0.1-0.1,0.1-0.2v0.1c0,0,0,0-0.1,0.1
						c0,0,0,0.1,0,0.2v0.1l0,0l0,0h-0.1c0,0,0,0.1,0,0v0.1c0,0,0,0,0,0.1c0,0,0,0,0,0.1s0,0.1,0.1,0.1c0,0,0,0.1,0.1,0.1
						c0,0,0,0,0.1,0l0,0l0,0l0,0l0.1,0.1h0.1c0,0,0,0,0.1,0l0,0c0,0,0,0,0.1,0l0,0c0,0,0-0.1,0.1-0.1s0,0.1,0.1,0.1l0,0
						c0,0,0,0,0.1,0c0,0,0,0,0.1,0c0,0,0,0,0.1-0.1h0.1c0,0,0,0,0-0.1c0,0,0,0,0-0.1c0,0,0,0,0-0.1s0.1-0.1,0.1-0.1s0,0,0-0.1l0,0
						l0,0c0,0,0,0,0-0.1c0.1,0,0-0.1,0-0.1S22.7,139.1,22.7,138.9L22.7,138.9L22.7,138.9v-0.1C22.7,139,22.7,139,22.7,138.9
						c-0.1,0-0.1,0-0.1-0.1h-0.1c0,0,0-0.1-0.1-0.1c0,0-0.1,0-0.1-0.1C22.5,138.7,22.6,138.8,22.7,138.9z"/>
				</g>
			</g>
		</g>
		<g>
			
				<image style="overflow:visible;opacity:0.96;enable-background:new    ;" width="283" height="283" xlink:href="9A51B9EE1717705F.png"  transform="matrix(-1.041434e-02 -1.176844e-02 -1.175867e-02 1.049839e-02 23.1414 141.302)">
			</image>
			<g>
				<g>
					
						<ellipse transform="matrix(0.7489 -0.6627 0.6627 0.7489 -88.4949 48.6763)" class="st33" cx="20" cy="141.1" rx="0.8" ry="0.8"/>
					
						<ellipse transform="matrix(0.7489 -0.6627 0.6627 0.7489 -88.4351 48.6439)" class="st34" cx="20" cy="141" rx="0.7" ry="0.7"/>
					<path class="st35" d="M20,140.4C19.9,140.4,19.9,140.4,20,140.4c-0.1,0-0.2,0.1-0.2,0.1c-0.1,0-0.1,0.4,0,0.2
						c0,0,0,0.1,0.1,0.1l0,0l0,0c0,0,0,0.1,0.1,0.1c0,0,0.1,0,0.1-0.1l0,0l0,0l0,0v-0.1c0-0.1,0-0.1,0-0.1l0,0c0,0,0,0,0-0.1
						C20.1,140.4,20.1,140.4,20,140.4L20,140.4z"/>
					<path class="st35" d="M19.8,141L19.8,141c0,0.1,0.1,0.1,0.1,0.1c0,0.1,0.2,0,0.1-0.1c0,0,0,0,0-0.1l0,0l0,0l0,0l0,0l0,0l0,0
						l0,0h-0.1l0,0l0,0l0,0C19.8,140.9,19.8,140.9,19.8,141C19.8,140.9,19.8,141,19.8,141z"/>
					<path class="st35" d="M20.1,141.6L20.1,141.6c-0.1,0-0.1,0-0.2,0c0,0,0,0,0-0.1c-0.1,0-0.1,0-0.2-0.1c0.1,0,0.2,0,0.4-0.1v0.1
						c0.1-0.1,0.1-0.1,0.2-0.2c0,0.1,0,0.1,0,0.1c0.1-0.1,0.1-0.1,0.1-0.2c0,0.1,0.1,0.1,0.1,0.2C20.4,141.6,20.3,141.6,20.1,141.6z
						"/>
				</g>
			</g>
		</g>
	</g>
	<path class="st36" d="M39.6,128C39.6,128,39.5,128,39.6,128L39.6,128C39.5,128,39.5,128,39.6,128c-0.2-0.1-0.4-0.1-0.6-0.2
		c-0.2-0.1-0.3-0.2-0.5-0.4c-0.1-0.1-0.2-0.3-0.3-0.5c-0.2-0.3-0.2-0.7-0.3-1l0,0l0,0l0,0l0,0c-0.1,0.3-0.3,0.6-0.5,0.9
		c-0.1,0.1-0.3,0.3-0.4,0.4c-0.2,0.1-0.3,0.2-0.5,0.2c-0.2,0.1-0.4,0.1-0.6,0.1l0,0l0,0l0,0l0,0c0.2,0.1,0.4,0.1,0.5,0.2
		c0.2,0.1,0.3,0.2,0.5,0.4c0.1,0.1,0.2,0.3,0.3,0.5c0.2,0.3,0.2,0.6,0.3,1l0,0l0,0l0,0l0,0c0.1-0.3,0.3-0.6,0.5-0.9
		c0.1-0.1,0.3-0.3,0.4-0.4c0.2-0.1,0.3-0.2,0.5-0.2C39.1,128,39.3,128,39.6,128C39.5,128,39.5,128,39.6,128z"/>
	<path class="st36" d="M34.8,130.5c-0.1,0-0.2,0-0.3,0l0,0l0,0l0,0l0,0c0.1,0,0.2,0.1,0.3,0.1c0.1,0.1,0.2,0.1,0.2,0.2
		c0.1,0.1,0.1,0.2,0.2,0.2c0.1,0.2,0.1,0.4,0.1,0.5c0-0.1,0-0.2,0-0.4c0,0,0,0,0-0.1l0,0l0,0c0,0.1,0,0.3,0,0.4
		c0.1-0.2,0.1-0.3,0.3-0.5c0.1-0.1,0.1-0.2,0.2-0.2c0.1-0.1,0.2-0.1,0.3-0.1s0.2,0,0.3,0l0,0l0,0l0,0l0,0c-0.1,0-0.2-0.1-0.3-0.1
		c-0.1-0.1-0.2-0.1-0.2-0.2c-0.1-0.1-0.1-0.2-0.2-0.2c-0.1-0.2-0.1-0.4-0.1-0.5c0,0.1,0,0.2,0,0.4c0,0,0,0,0,0.1l0,0c0,0,0,0,0-0.1
		s0-0.3,0-0.4c-0.1,0.2-0.1,0.3-0.3,0.5c-0.1,0.1-0.1,0.2-0.2,0.2C35,130.4,34.9,130.5,34.8,130.5z"/>
	<path class="st36" d="M20.3,134.1c0,0.2,0.1,0.4,0,0.6c0,0.2-0.1,0.4-0.2,0.6c-0.1,0.2-0.2,0.3-0.3,0.5l0,0l0,0l0,0l0,0
		c0.2-0.1,0.3-0.2,0.5-0.3s0.4-0.1,0.6-0.1s0.4,0,0.6,0.1c0.3,0.1,0.6,0.3,0.9,0.4l0,0l0,0l0,0l0,0c-0.1-0.3-0.3-0.6-0.4-1
		c0-0.2-0.1-0.4,0-0.6c0-0.2,0.1-0.4,0.2-0.6c0.1-0.2,0.2-0.3,0.3-0.5l0,0l0,0l0,0l0,0c-0.2,0.1-0.3,0.2-0.5,0.3s-0.4,0.1-0.6,0.1
		s-0.4,0-0.6-0.1c-0.3-0.1-0.6-0.3-0.9-0.4l0,0l0,0l0,0l0,0C20.1,133.5,20.3,133.8,20.3,134.1z"/>
	<path class="st36" d="M24.4,151L24.4,151L24.4,151L24.4,151c-0.2-0.3-0.3-0.6-0.4-1c0-0.2-0.1-0.4,0-0.6c0-0.2,0.1-0.4,0.2-0.6
		c0.1-0.2,0.2-0.3,0.3-0.5l0,0l0,0l0,0l0,0c-0.2,0.1-0.3,0.2-0.5,0.3s-0.4,0.1-0.6,0.1s-0.4,0-0.6-0.1c-0.3-0.1-0.6-0.3-0.9-0.4l0,0
		l0,0l0,0l0,0c0.1,0.3,0.3,0.6,0.4,1c0,0.2,0.1,0.4,0,0.6c0,0.2-0.1,0.4-0.2,0.6c-0.1,0.2-0.2,0.3-0.3,0.5l0,0l0,0l0,0l0,0
		c0.2-0.1,0.3-0.2,0.5-0.3s0.4-0.1,0.6-0.1s0.4,0,0.6,0.1C23.8,150.7,24.1,150.8,24.4,151L24.4,151z"/>
	<path class="st36" d="M24.5,141.5c-0.2,0-0.3-0.1-0.5-0.2c0.1,0.1,0.2,0.2,0.3,0.3c0,0,0,0,0,0.1l0,0l0,0c-0.1-0.1-0.2-0.2-0.3-0.3
		c0.1,0.2,0.2,0.3,0.2,0.5c0,0.1,0,0.2,0,0.3s0,0.2-0.1,0.3c0,0.1-0.1,0.2-0.2,0.3l0,0l0,0l0,0l0,0c0.1-0.1,0.2-0.1,0.3-0.1
		c0.1,0,0.2-0.1,0.3-0.1c0.1,0,0.2,0,0.3,0c0.2,0,0.3,0.1,0.5,0.2c-0.1-0.1-0.2-0.2-0.3-0.3c0,0,0,0,0-0.1l0,0l0,0
		c0.1,0.1,0.2,0.2,0.3,0.3c-0.1-0.2-0.2-0.3-0.2-0.5c0-0.1,0-0.2,0-0.3s0-0.2,0.1-0.3c0-0.1,0.1-0.2,0.2-0.3l0,0l0,0l0,0l0,0
		c-0.1,0.1-0.2,0.1-0.3,0.1c-0.1,0-0.2,0.1-0.3,0.1S24.6,141.5,24.5,141.5z"/>
	<path class="st36" d="M26,133c0-0.1,0-0.2,0-0.3s0-0.2,0.1-0.2c0-0.1,0.1-0.2,0.2-0.2l0,0c-0.1,0-0.2,0.1-0.3,0.1
		c-0.1,0-0.2,0-0.3,0c-0.1,0-0.2,0-0.3,0c-0.2,0-0.3-0.1-0.5-0.2c0.1,0.1,0.2,0.2,0.3,0.2l0.1,0.1c0,0,0,0-0.1-0.1l0,0l0,0
		c-0.1-0.1-0.2-0.2-0.3-0.2c0.1,0.1,0.2,0.3,0.2,0.4c0,0.1,0,0.2,0,0.3s0,0.2-0.1,0.2c0,0.1-0.1,0.1-0.1,0.2l0,0l0,0l0,0l0,0
		c0.1,0,0.2-0.1,0.3-0.1c0.1,0,0.2,0,0.3,0c0.1,0,0.2,0,0.3,0c0.2,0,0.3,0.1,0.5,0.2l0,0l0,0l0,0C26.1,133.3,26,133.1,26,133z"/>
	<path class="st36" d="M34.2,127.5c0-0.1,0-0.2,0-0.3c0-0.1,0-0.2,0.1-0.3c0-0.1,0.1-0.2,0.1-0.3l0,0l0,0l0,0l0,0
		c-0.1,0-0.2,0.1-0.3,0.1s-0.2,0.1-0.3,0.1s-0.2,0-0.3,0c-0.2,0-0.3-0.1-0.5-0.2c0.1,0.2,0.2,0.3,0.2,0.5c0,0.1,0,0.2,0,0.3
		c0,0.1,0,0.2-0.1,0.3c0,0.1-0.1,0.2-0.2,0.3l0,0c0.1-0.1,0.2-0.1,0.3-0.1s0.2-0.1,0.3-0.1s0.2,0,0.3,0c0.2,0,0.3,0.1,0.5,0.2
		c-0.1-0.1-0.2-0.2-0.3-0.3c0,0,0,0-0.1-0.1l0,0l0,0c0.1,0.1,0.2,0.2,0.3,0.3C34.4,127.9,34.3,127.7,34.2,127.5z"/>
	<path class="st36" d="M33.3,133.7c-0.1,0.1-0.2,0.1-0.3,0.1s-0.2,0.1-0.3,0.1s-0.2,0-0.3,0c-0.2,0-0.3-0.1-0.5-0.2
		c0.1,0.1,0.2,0.2,0.3,0.3l0.1,0.1c0,0,0,0-0.1-0.1l0,0l0,0c-0.1-0.1-0.2-0.2-0.3-0.3c0.1,0.2,0.2,0.3,0.2,0.5c0,0.1,0,0.2,0,0.3
		s0,0.2-0.1,0.3c0,0.1-0.1,0.2-0.2,0.3l0,0c0.1-0.1,0.2-0.1,0.3-0.1s0.2-0.1,0.3-0.1s0.2,0,0.3,0c0.2,0,0.3,0.1,0.5,0.2
		c-0.1-0.1-0.2-0.2-0.3-0.3c0,0,0,0-0.1-0.1l0,0l0,0c0.1,0.1,0.2,0.2,0.3,0.3c-0.1-0.2-0.2-0.3-0.2-0.5c0-0.1,0-0.2,0-0.3
		s0-0.2,0.1-0.3C33.1,133.8,33.2,133.8,33.3,133.7C33.2,133.7,33.3,133.7,33.3,133.7z"/>
	<path class="st36" d="M30.2,136.5c0-0.1,0-0.2,0-0.3s0-0.2,0.1-0.3c0-0.1,0.1-0.2,0.2-0.3l0,0c-0.1,0.1-0.2,0.1-0.3,0.1
		c-0.1,0-0.2,0.1-0.3,0.1c-0.1,0-0.2,0-0.3,0c-0.2,0-0.3-0.1-0.5-0.2c0.1,0.1,0.2,0.2,0.3,0.3l0.1,0.1c0,0,0,0-0.1-0.1l0,0l0,0
		c-0.1-0.1-0.2-0.2-0.3-0.3c0.1,0.2,0.2,0.3,0.2,0.5c0,0.1,0,0.2,0,0.3s0,0.2-0.1,0.3c0,0.1-0.1,0.2-0.2,0.3l0,0
		c0.1-0.1,0.2-0.1,0.3-0.1c0.1,0,0.2-0.1,0.3-0.1c0.1,0,0.2,0,0.3,0c0.2,0,0.3,0.1,0.5,0.2c-0.1-0.1-0.2-0.2-0.3-0.3
		C30.1,136.7,30.1,136.7,30.2,136.5L30.2,136.5L30.2,136.5c0,0.2,0.1,0.3,0.2,0.4C30.3,136.8,30.2,136.7,30.2,136.5z"/>
	<path class="st36" d="M23.3,144.5L23.3,144.5L23.3,144.5L23.3,144.5c-0.1,0.1-0.2,0.1-0.3,0.2c-0.1,0-0.2,0.1-0.3,0.1
		c-0.1,0-0.2,0-0.3,0c-0.2,0-0.3-0.1-0.5-0.2c0.1,0.1,0.2,0.2,0.2,0.3l0,0l0,0c0,0,0,0-0.1-0.1s-0.2-0.2-0.2-0.3
		c0.1,0.2,0.1,0.3,0.1,0.5c0,0.1,0,0.2,0,0.3s-0.1,0.2-0.1,0.3s-0.1,0.2-0.2,0.3l0,0c0.1-0.1,0.2-0.1,0.3-0.2c0.1,0,0.2-0.1,0.3-0.1
		c0.1,0,0.2,0,0.3,0c0.2,0,0.3,0.1,0.5,0.2c-0.1-0.1-0.2-0.2-0.2-0.3l0,0l0,0l0,0l0,0c0.1,0.1,0.2,0.2,0.2,0.3
		c-0.1-0.2-0.1-0.3-0.1-0.5c0-0.1,0-0.2,0-0.3s0.1-0.2,0.1-0.3C23.1,144.7,23.2,144.6,23.3,144.5L23.3,144.5z M22.5,145.2
		L22.5,145.2L22.5,145.2L22.5,145.2L22.5,145.2L22.5,145.2L22.5,145.2z"/>
	<path class="st36" d="M32.4,125.3L32.4,125.3L32.4,125.3L32.4,125.3c-0.1,0.1-0.2,0.1-0.3,0.2c-0.1,0-0.2,0.1-0.3,0.1
		c-0.1,0-0.2,0-0.3,0c-0.2,0-0.3-0.1-0.5-0.2c0.1,0.1,0.2,0.2,0.2,0.3l0,0l0,0c0,0,0,0,0-0.1c-0.1-0.1-0.2-0.2-0.2-0.3
		c0.1,0.2,0.1,0.3,0.1,0.5c0,0.1,0,0.2,0,0.3c0,0.1-0.1,0.2-0.1,0.3c0,0.1-0.1,0.2-0.2,0.3l0,0c0.1-0.1,0.2-0.1,0.3-0.2
		c0.1,0,0.2-0.1,0.3-0.1c0.1,0,0.2,0,0.3,0c0.2,0,0.3,0.1,0.5,0.2c-0.1-0.1-0.2-0.2-0.2-0.3l0,0l0,0c0,0,0-0.1-0.1-0.1l0,0
		c0,0,0,0.1,0.1,0.1l0,0l0,0c0.1,0.1,0.2,0.2,0.2,0.3c-0.1-0.2-0.1-0.3-0.1-0.5c0-0.1,0-0.2,0-0.3c0-0.1,0.1-0.2,0.1-0.3
		C32.2,125.5,32.3,125.4,32.4,125.3L32.4,125.3z M31.6,125.9L31.6,125.9c-0.1-0.1-0.1-0.1-0.2-0.2c0,0,0-0.1-0.1-0.1
		C31.4,125.7,31.5,125.8,31.6,125.9C31.5,125.9,31.6,125.9,31.6,125.9z M31.6,126L31.6,126L31.6,126L31.6,126z M31.6,126L31.6,126
		L31.6,126L31.6,126z"/>
	<path class="st36" d="M27.4,145.7L27.4,145.7L27.4,145.7L27.4,145.7c-0.1,0.1-0.2,0.1-0.3,0.2c-0.1,0-0.2,0.1-0.3,0.1
		c-0.1,0-0.2,0-0.3,0c-0.2,0-0.3-0.1-0.5-0.2c0.1,0.1,0.2,0.2,0.2,0.3l0,0l0,0c0,0,0,0-0.1-0.1s-0.2-0.2-0.2-0.3
		c0.1,0.2,0.1,0.3,0.1,0.5c0,0.1,0,0.2,0,0.3s-0.1,0.2-0.1,0.3s-0.1,0.2-0.2,0.3l0,0c0.1-0.1,0.2-0.1,0.3-0.2c0.1,0,0.2-0.1,0.3-0.1
		c0.1,0,0.2,0,0.3,0c0.2,0,0.3,0.1,0.5,0.2c-0.1-0.1-0.2-0.2-0.2-0.3l0,0l0,0c0,0,0-0.1-0.1-0.1l0.1,0.1c0.1,0.1,0.2,0.2,0.2,0.3
		c-0.1-0.2-0.1-0.3-0.1-0.5c0-0.1,0-0.2,0-0.3s0.1-0.2,0.1-0.3C27.2,145.9,27.3,145.8,27.4,145.7L27.4,145.7z"/>
	<path class="st36" d="M24.5,130.1L24.5,130.1L24.5,130.1c-0.1-0.1-0.2-0.2-0.3-0.3c0.1,0.2,0.1,0.3,0.1,0.5c0,0.1,0,0.2,0,0.3
		s-0.1,0.2-0.1,0.3s-0.1,0.2-0.2,0.3l0,0l0,0l0,0l0,0c0.1-0.1,0.2-0.1,0.3-0.1c0.1,0,0.2-0.1,0.3-0.1c0.1,0,0.2,0,0.3,0
		c0.2,0,0.3,0.1,0.5,0.2c-0.1-0.1-0.2-0.2-0.2-0.3l0,0l0,0l0,0c0.1,0.1,0.2,0.2,0.2,0.3c-0.1-0.2-0.1-0.3-0.1-0.5c0-0.1,0-0.2,0-0.3
		s0.1-0.2,0.1-0.3s0.1-0.2,0.2-0.3l0,0c-0.1,0.1-0.2,0.1-0.3,0.2c-0.1,0-0.2,0.1-0.3,0.1c-0.1,0-0.2,0-0.3,0c-0.2,0-0.3-0.1-0.5-0.2
		C24.3,129.9,24.4,130,24.5,130.1L24.5,130.1z"/>
	<path class="st36" d="M37.8,133.4L37.8,133.4L37.8,133.4L37.8,133.4c-0.1,0.1-0.2,0.1-0.3,0.2c-0.1,0-0.2,0.1-0.3,0.1s-0.2,0-0.3,0
		c-0.2,0-0.3-0.1-0.5-0.2c0.1,0.1,0.2,0.2,0.2,0.3l0,0l0,0c0,0,0,0,0-0.1c-0.1-0.1-0.2-0.2-0.2-0.3c0.1,0.2,0.1,0.3,0.1,0.5
		c0,0.1,0,0.2,0,0.3s-0.1,0.2-0.1,0.3s-0.1,0.2-0.2,0.3l0,0c0.1-0.1,0.2-0.1,0.3-0.2c0.1,0,0.2-0.1,0.3-0.1s0.2,0,0.3,0
		c0.2,0,0.3,0.1,0.5,0.2c-0.1-0.1-0.2-0.2-0.2-0.3l0,0l0,0c0,0,0-0.1-0.1-0.1l0.1,0.1c0.1,0.1,0.2,0.2,0.2,0.3
		c-0.1-0.2-0.1-0.3-0.1-0.5c0-0.1,0-0.2,0-0.3s0.1-0.2,0.1-0.3C37.6,133.6,37.7,133.5,37.8,133.4C37.7,133.4,37.8,133.4,37.8,133.4z
		 M37,134L37,134c-0.1-0.1-0.1-0.1-0.2-0.2c0,0,0-0.1-0.1-0.1C36.8,133.8,36.9,133.9,37,134C36.9,134,36.9,134,37,134z M37,134.1
		L37,134.1L37,134.1L37,134.1z M37,134.1L37,134.1L37,134.1L37,134.1z"/>
	<path class="st36" d="M28.3,129.6c-0.2,0-0.3-0.1-0.5-0.2c0.1,0.1,0.2,0.2,0.2,0.3l0,0l0,0c0,0,0,0-0.1-0.1s-0.2-0.2-0.2-0.3
		c0.1,0.2,0.1,0.3,0.1,0.5c0,0.1,0,0.2,0,0.3s-0.1,0.2-0.1,0.3s-0.1,0.2-0.2,0.3l0,0l0,0l0,0l0,0c0.1-0.1,0.2-0.1,0.3-0.1
		c0.1,0,0.2-0.1,0.3-0.1c0.1,0,0.2,0,0.3,0c0.2,0,0.3,0.1,0.5,0.2c-0.1-0.1-0.2-0.2-0.2-0.3l0,0l0,0l0,0l0,0l0,0
		c0.1,0.1,0.2,0.2,0.2,0.3c-0.1-0.2-0.1-0.3-0.1-0.5c0-0.1,0-0.2,0-0.3s0.1-0.2,0.1-0.3s0.1-0.2,0.2-0.3l0,0
		c-0.1,0.1-0.2,0.1-0.3,0.2c-0.1,0-0.2,0.1-0.3,0.1C28.5,129.6,28.4,129.6,28.3,129.6z M28.4,130.1L28.4,130.1L28.4,130.1
		L28.4,130.1L28.4,130.1L28.4,130.1z M28.1,129.8c0.1,0.1,0.2,0.2,0.2,0.2l0,0l0,0C28.3,130,28.3,129.9,28.1,129.8
		C28.2,129.8,28.2,129.8,28.1,129.8z"/>
	<path class="st36" d="M14.3,136.5L14.3,136.5L14.3,136.5L14.3,136.5c-0.1,0.1-0.2,0.1-0.3,0.2c-0.1,0-0.2,0.1-0.3,0.1s-0.2,0-0.3,0
		c-0.2,0-0.3-0.1-0.5-0.2c0.1,0.1,0.2,0.2,0.2,0.3l0,0l0,0c0,0,0,0-0.1-0.1s-0.2-0.2-0.2-0.3c0.1,0.2,0.1,0.3,0.1,0.5
		c0,0.1,0,0.2,0,0.3s-0.1,0.2-0.1,0.3s-0.1,0.2-0.2,0.3l0,0c0.1-0.1,0.2-0.1,0.3-0.2c0.1,0,0.2-0.1,0.3-0.1s0.2,0,0.3,0
		c0.2,0,0.3,0.1,0.5,0.2c-0.1-0.1-0.2-0.2-0.2-0.3l0,0l0,0c0,0,0-0.1-0.1-0.1l0.1,0.1c0.1,0.1,0.2,0.2,0.2,0.3
		c-0.1-0.2-0.1-0.3-0.1-0.5c0-0.1,0-0.2,0-0.3s0.1-0.2,0.1-0.3C14.2,136.7,14.2,136.6,14.3,136.5L14.3,136.5z"/>
	<path class="st36" d="M30.2,137.9L30.2,137.9L30.2,137.9L30.2,137.9c0.1,0,0.2,0.1,0.3,0.1c0.1,0.1,0.2,0.1,0.2,0.2
		c0.1,0.1,0.1,0.2,0.2,0.2c0,0.1,0.1,0.1,0.1,0.2c-0.1,0-0.2,0-0.3,0c-0.1,0-0.2,0-0.3,0c-0.2,0-0.3-0.1-0.5-0.2
		c0.1,0.1,0.2,0.2,0.3,0.3l0,0l0,0l0,0c-0.1-0.1-0.2-0.2-0.3-0.3c0.1,0.2,0.2,0.3,0.2,0.5c0,0.1,0,0.2,0,0.3s0,0.2-0.1,0.3
		c0,0.1-0.1,0.2-0.2,0.3l0,0l0,0l0,0l0,0c0.1-0.1,0.2-0.1,0.3-0.1c0.1,0,0.2-0.1,0.3-0.1c0.1,0,0.2,0,0.3,0c0.2,0,0.3,0.1,0.5,0.2
		c-0.1-0.1-0.2-0.2-0.3-0.3c0,0,0,0,0-0.1l0,0l0,0c0.1,0.1,0.2,0.2,0.3,0.3c-0.1-0.2-0.2-0.3-0.2-0.5c0-0.1,0-0.2,0-0.3
		s0-0.2,0.1-0.3c0-0.1,0.1-0.2,0.1-0.2l0,0l0,0l0,0l0,0l0,0c0,0,0,0,0-0.1c0.1-0.1,0.1-0.2,0.2-0.2c0.1-0.1,0.2-0.1,0.3-0.1
		c0.1,0,0.2,0,0.3,0l0,0l0,0l0,0l0,0c-0.1,0-0.2-0.1-0.3-0.1c-0.1-0.1-0.2-0.1-0.2-0.2c-0.1-0.1-0.1-0.2-0.2-0.2
		c-0.1-0.2-0.1-0.4-0.1-0.5c0,0.1,0,0.2,0,0.4c0,0,0,0,0,0.1l0,0v-0.1c0-0.1,0-0.3,0-0.4c-0.1,0.2-0.1,0.3-0.3,0.5
		c-0.1,0.1-0.1,0.2-0.2,0.2c-0.1,0.1-0.2,0.1-0.3,0.1C30.4,137.9,30.3,137.9,30.2,137.9L30.2,137.9z M31.1,138.6L31.1,138.6
		L31.1,138.6c0,0.1,0,0.1,0,0.1l0,0C31.1,138.7,31.1,138.7,31.1,138.6L31.1,138.6z"/>
	<path class="st36" d="M15.8,150.8L15.8,150.8C15.8,150.8,15.8,150.7,15.8,150.8c-0.1-0.1-0.2-0.2-0.3-0.3c0.1,0.2,0.2,0.3,0.2,0.5
		c0,0.1,0,0.2,0,0.3s0,0.2-0.1,0.3c0,0.1-0.1,0.2-0.1,0.3l0,0l0,0l0,0l0,0c0.1,0,0.2-0.1,0.3-0.1s0.2-0.1,0.3-0.1c0.1,0,0.2,0,0.3,0
		c0.2,0,0.3,0.1,0.5,0.2c-0.1-0.1-0.2-0.2-0.3-0.3l0,0l0,0l0,0c0.1,0.1,0.2,0.2,0.3,0.3c-0.1-0.2-0.2-0.3-0.2-0.5c0-0.1,0-0.2,0-0.3
		s0-0.2,0.1-0.3c0-0.1,0.1-0.2,0.2-0.3l0,0c-0.1,0.1-0.2,0.1-0.3,0.1c-0.1,0-0.2,0.1-0.3,0.1c-0.1,0-0.2,0-0.3,0
		c-0.2,0-0.3-0.1-0.5-0.2C15.6,150.5,15.7,150.6,15.8,150.8C15.7,150.7,15.8,150.7,15.8,150.8z"/>
	<path class="st36" d="M21.3,137.6C21.3,137.6,21.2,137.6,21.3,137.6C21.2,137.6,21.2,137.6,21.3,137.6
		C21.2,137.6,21.2,137.6,21.3,137.6c-0.1,0-0.2-0.1-0.3-0.1c-0.1-0.1-0.2-0.1-0.2-0.2c-0.1-0.1-0.1-0.2-0.2-0.2
		c-0.1-0.2-0.1-0.4-0.1-0.5c0,0.1,0,0.2,0,0.4c0,0,0,0,0,0.1l0,0V137c0-0.1,0-0.3,0-0.4c-0.1,0.2-0.1,0.3-0.3,0.5
		c-0.1,0.1-0.1,0.2-0.2,0.2c-0.1,0.1-0.2,0.1-0.3,0.1c-0.1,0-0.2,0-0.3,0l0,0l0,0l0,0l0,0c0.1,0,0.2,0.1,0.3,0.1
		c0.1,0.1,0.2,0.1,0.2,0.2c0.1,0.1,0.1,0.2,0.2,0.2c0.1,0.2,0.1,0.4,0.1,0.5c0.1-0.2,0.1-0.3,0.3-0.5c0.1-0.1,0.1-0.2,0.2-0.2
		c0.1-0.1,0.2-0.1,0.3-0.1C21,137.7,21.1,137.7,21.3,137.6C21.2,137.6,21.2,137.6,21.3,137.6z"/>
	<path class="st36" d="M28.1,138.9L28.1,138.9L28.1,138.9L28.1,138.9c-0.1,0-0.2-0.1-0.3-0.1c-0.1-0.1-0.2-0.1-0.2-0.2
		c-0.1-0.1-0.1-0.2-0.2-0.2c-0.1-0.2-0.1-0.4-0.1-0.5c0,0.1,0,0.2,0,0.4l0,0l0,0c0,0,0,0,0-0.1s0-0.3,0-0.4
		c-0.1,0.2-0.1,0.3-0.3,0.5c-0.1,0.1-0.1,0.2-0.2,0.2c-0.1,0.1-0.2,0.1-0.3,0.1c-0.1,0-0.2,0-0.3,0l0,0l0,0l0,0l0,0
		c0.1,0,0.2,0.1,0.3,0.1c0.1,0.1,0.2,0.1,0.2,0.2c0.1,0.1,0.1,0.2,0.2,0.2c0.1,0.2,0.1,0.4,0.1,0.5c0-0.1,0-0.2,0-0.4c0,0,0,0,0-0.1
		l0,0l0,0c0,0.1,0,0.3,0,0.4c0.1-0.2,0.1-0.3,0.3-0.5c0.1-0.1,0.1-0.2,0.2-0.2c0.1-0.1,0.2-0.1,0.3-0.1
		C27.9,138.9,28,138.9,28.1,138.9L28.1,138.9z"/>
	<path class="st36" d="M18.6,135L18.6,135L18.6,135L18.6,135c-0.1,0-0.2-0.1-0.3-0.1c-0.1-0.1-0.2-0.1-0.2-0.2
		c-0.1-0.1-0.1-0.2-0.2-0.2c-0.1-0.2-0.1-0.4-0.1-0.5c0,0.1,0,0.2,0,0.4s0,0.3-0.1,0.5l0,0c0-0.1,0-0.2,0-0.3s0-0.1,0-0.2l0,0
		c0,0,0,0,0-0.1s0-0.3,0-0.4c-0.1,0.2-0.1,0.3-0.3,0.5c-0.1,0.1-0.1,0.2-0.2,0.2c-0.1,0.1-0.2,0.1-0.3,0.1c-0.1,0-0.2,0-0.3,0l0,0
		l0,0l0,0l0,0c0.1,0,0.2,0.1,0.3,0.1c0.1,0.1,0.2,0.1,0.2,0.2c0.1,0.1,0.1,0.2,0.2,0.2c0.1,0.2,0.1,0.4,0.1,0.5c0-0.1,0-0.2,0-0.4
		c0,0,0,0,0-0.1l0,0l0,0c0,0.1,0,0.3,0,0.4c0.1-0.2,0.1-0.3,0.3-0.5c0.1-0.1,0.1-0.2,0.2-0.2c0.1-0.1,0.2-0.1,0.3-0.1
		C18.4,135.1,18.5,135,18.6,135L18.6,135z"/>
	<path class="st36" d="M30.7,127.8L30.7,127.8C30.7,127.9,30.6,127.9,30.7,127.8C30.6,127.8,30.7,127.8,30.7,127.8
		c0-0.1,0-0.3,0-0.4c-0.1,0.2-0.1,0.3-0.3,0.5c-0.1,0.1-0.1,0.2-0.2,0.2c-0.1,0.1-0.2,0.1-0.3,0.1c-0.1,0-0.2,0-0.3,0.1l0,0
		c0.1,0,0.2,0.1,0.3,0.1c0.1,0.1,0.2,0.1,0.2,0.2c0.1,0.1,0.1,0.2,0.2,0.2c0.1,0.2,0.1,0.4,0.1,0.5c0-0.1,0-0.2,0-0.4c0,0,0,0,0-0.1
		l0,0c0,0,0,0,0,0.1s0,0.3,0,0.4c0.1-0.2,0.1-0.3,0.3-0.5c0.1-0.1,0.1-0.2,0.2-0.2c0.1-0.1,0.2-0.1,0.3-0.1c0.1,0,0.2,0,0.3-0.1l0,0
		c-0.1,0-0.2-0.1-0.3-0.1c-0.1-0.1-0.2-0.1-0.2-0.2c-0.1-0.1-0.1-0.2-0.2-0.2c-0.1-0.2-0.1-0.4-0.1-0.5
		C30.7,127.5,30.7,127.7,30.7,127.8z"/>
	<path class="st36" d="M35.9,124.9c0.1,0.2,0.1,0.4,0.1,0.5C36,125.3,36,125.2,35.9,124.9C36,125,36,125,35.9,124.9L35.9,124.9
		L35.9,124.9c0.1,0.1,0.1,0.3,0.1,0.4c0.1-0.2,0.1-0.3,0.3-0.5c0.1-0.1,0.1-0.2,0.2-0.2c0.1-0.1,0.2-0.1,0.3-0.1s0.2,0,0.3-0.1l0,0
		c-0.1,0-0.2-0.1-0.3-0.1c-0.1-0.1-0.2-0.1-0.2-0.2c-0.1-0.1-0.1-0.2-0.2-0.2c-0.1-0.2-0.1-0.4-0.1-0.5c0,0.1,0,0.2,0,0.4
		c0,0.2,0,0.3-0.1,0.5l0,0c0-0.1,0-0.2,0-0.2c0-0.1,0-0.1,0-0.2l0,0c0,0,0,0,0-0.1s0-0.3,0-0.4c-0.1,0.2-0.1,0.3-0.3,0.5
		c-0.1,0.1-0.1,0.2-0.2,0.2c-0.1,0.1-0.2,0.1-0.3,0.1s-0.2,0-0.3,0.1l0,0c0.1,0,0.2,0.1,0.3,0.1c0.1,0.1,0.2,0.1,0.2,0.2
		C35.8,124.7,35.9,124.8,35.9,124.9z"/>
	<path class="st36" d="M19.5,149.8L19.5,149.8c0,0.1,0,0.3-0.1,0.4C19.4,150.1,19.5,150,19.5,149.8c0.1,0,0.1-0.1,0.2-0.1
		c0.1-0.1,0.2-0.1,0.3-0.2c0.2-0.1,0.4-0.1,0.5-0.1c-0.1,0-0.2,0-0.4-0.1H20l0,0c0,0,0,0,0.1,0s0.2,0,0.4,0.1
		c-0.2-0.1-0.3-0.2-0.5-0.3c-0.1-0.1-0.1-0.1-0.2-0.2c0-0.1-0.1-0.2-0.1-0.3s0-0.2,0-0.3l0,0l0,0l0,0l0,0c0,0.1-0.1,0.2-0.1,0.3
		c-0.1,0.1-0.1,0.2-0.2,0.2c-0.1,0.1-0.2,0.1-0.3,0.2c-0.2,0.1-0.4,0.1-0.5,0.1c0.1,0,0.2,0,0.4,0.1c0.2,0,0.3,0.1,0.5,0.1l0,0l0,0
		c-0.1,0-0.2,0-0.3,0l0,0c-0.1,0-0.1,0-0.2,0l0,0l0,0c-0.1,0-0.2,0-0.4-0.1c0.2,0.1,0.3,0.2,0.5,0.3c0.1,0.1,0.1,0.1,0.2,0.2
		c0,0.1,0.1,0.2,0.1,0.3s0,0.2,0,0.3C19.4,150.1,19.5,149.9,19.5,149.8z"/>
	<path class="st36" d="M12.1,141.2L12.1,141.2L12.1,141.2L12.1,141.2c0.1,0,0.2,0,0.3,0s0.2,0,0.3,0s0.2,0.1,0.3,0.1
		s0.1,0.1,0.2,0.2c-0.1,0.1-0.1,0.1-0.2,0.2c-0.1,0.1-0.2,0.1-0.3,0.1c-0.2,0.1-0.4,0-0.5,0c0.1,0,0.2,0.1,0.4,0.1l0,0l0,0
		c0,0,0,0-0.1,0s-0.2-0.1-0.4-0.1c0.1,0.1,0.3,0.2,0.4,0.4c0.1,0.1,0.1,0.2,0.2,0.3c0,0.1,0.1,0.2,0.1,0.3s0,0.2,0,0.3l0,0l0,0l0,0
		l0,0c0-0.1,0.1-0.2,0.2-0.2c0.1-0.1,0.1-0.1,0.2-0.2c0.1-0.1,0.2-0.1,0.3-0.1c0.2-0.1,0.4,0,0.5,0c-0.1,0-0.2-0.1-0.4-0.1
		c0,0,0,0-0.1,0l0,0c0,0,0,0,0.1,0s0.2,0.1,0.4,0.1c-0.1-0.1-0.3-0.2-0.4-0.4c-0.1-0.1-0.1-0.2-0.2-0.3c0-0.1-0.1-0.2-0.1-0.3
		s0-0.2,0-0.3c0,0,0,0,0-0.1l0,0l0,0l0,0l0,0c0,0,0,0,0-0.1s0-0.2,0.1-0.3s0.1-0.2,0.2-0.3c0.1-0.1,0.1-0.1,0.2-0.2l0,0l0,0l0,0l0,0
		c-0.1,0-0.2,0-0.3,0s-0.2,0-0.3,0s-0.2-0.1-0.3-0.1c-0.2-0.1-0.3-0.2-0.4-0.4c0,0.1,0.1,0.2,0.1,0.3c0,0,0,0,0,0.1l0,0
		c0,0,0,0,0-0.1s-0.1-0.2-0.1-0.3c0,0.2,0,0.4,0,0.6c0,0.1,0,0.2-0.1,0.3s-0.1,0.2-0.2,0.3C12.2,141.1,12.2,141.2,12.1,141.2
		L12.1,141.2z M13.2,141.4L13.2,141.4L13.2,141.4L13.2,141.4L13.2,141.4L13.2,141.4L13.2,141.4z"/>
	<path class="st36" d="M10.8,143.9L10.8,143.9L10.8,143.9L10.8,143.9c0-0.1,0-0.3,0-0.4c-0.1,0.2-0.1,0.3-0.3,0.5
		c-0.1,0.1-0.1,0.2-0.2,0.2c-0.1,0.1-0.2,0.1-0.3,0.1s-0.2,0-0.3,0.1l0,0c0.1,0,0.2,0.1,0.3,0.1c0.1,0.1,0.2,0.1,0.2,0.2
		c0.1,0.1,0.1,0.2,0.2,0.2c0.1,0.2,0.1,0.4,0.1,0.5c0-0.1,0-0.2,0-0.4c0,0,0,0,0-0.1l0,0c0,0,0,0,0,0.1s0,0.3,0,0.4
		c0.1-0.2,0.1-0.3,0.3-0.5c0.1-0.1,0.1-0.2,0.2-0.2c0.1-0.1,0.2-0.1,0.3-0.1s0.2,0,0.3-0.1l0,0c-0.1,0-0.2-0.1-0.3-0.1
		c-0.1-0.1-0.2-0.1-0.2-0.2c-0.1-0.1-0.1-0.2-0.2-0.2c-0.1-0.2-0.1-0.4-0.1-0.5C10.9,143.6,10.9,143.7,10.8,143.9z"/>
	<path class="st36" d="M8.6,146.4L8.6,146.4L8.6,146.4L8.6,146.4c0-0.1,0-0.3,0-0.4c-0.1,0.2-0.1,0.3-0.3,0.5
		c-0.1,0.1-0.1,0.2-0.2,0.2c-0.1,0.1-0.2,0.1-0.3,0.1c-0.1,0-0.2,0-0.3,0.1l0,0c0.1,0,0.2,0.1,0.3,0.1c0.1,0.1,0.2,0.1,0.2,0.2
		c0.1,0.1,0.1,0.2,0.2,0.2c0.1,0.2,0.1,0.4,0.1,0.5c0-0.1,0-0.2,0-0.4c0,0,0,0,0-0.1l0,0c0,0,0,0,0,0.1s0,0.3,0,0.4
		c0.1-0.2,0.1-0.3,0.3-0.5c0.1-0.1,0.1-0.2,0.2-0.2c0.1-0.1,0.2-0.1,0.3-0.1s0.2,0,0.3-0.1l0,0c-0.1,0-0.2-0.1-0.3-0.1
		c-0.1-0.1-0.2-0.1-0.2-0.2c-0.1-0.1-0.1-0.2-0.2-0.2c-0.1-0.2-0.1-0.4-0.1-0.5C8.6,146.1,8.6,146.2,8.6,146.4z"/>
	<path class="st36" d="M9.9,140.6L9.9,140.6L9.9,140.6L9.9,140.6c-0.1,0.1-0.2,0.1-0.3,0.2c-0.1,0-0.2,0.1-0.3,0.1s-0.2,0-0.3,0
		c-0.2,0-0.3-0.1-0.5-0.2c0.1,0.1,0.2,0.2,0.2,0.3l0,0l0,0c0,0,0,0,0-0.1c-0.1-0.1-0.2-0.2-0.2-0.3c0.1,0.2,0.1,0.3,0.1,0.5
		c0,0.1,0,0.2,0,0.3s-0.1,0.2-0.1,0.3s-0.1,0.2-0.2,0.3l0,0c0.1-0.1,0.2-0.1,0.3-0.2c0.1,0,0.2-0.1,0.3-0.1s0.2,0,0.3,0
		c0.2,0,0.3,0.1,0.5,0.2c-0.1-0.1-0.2-0.2-0.2-0.3l0,0l0,0c0,0,0-0.1-0.1-0.1l0.1,0.1c0.1,0.1,0.2,0.2,0.2,0.3
		c-0.1-0.2-0.1-0.3-0.1-0.5c0-0.1,0-0.2,0-0.3s0.1-0.2,0.1-0.3C9.8,140.8,9.8,140.7,9.9,140.6L9.9,140.6z M9.1,141.3L9.1,141.3
		c-0.1-0.1-0.1-0.1-0.2-0.2c0,0,0-0.1-0.1-0.1C8.9,141.1,9,141.2,9.1,141.3L9.1,141.3z M9.2,141.3L9.2,141.3L9.2,141.3L9.2,141.3z
		 M9.2,141.3L9.2,141.3L9.2,141.3L9.2,141.3z"/>
</g>
<g>
	<g>
		<rect x="130.8" y="92.2" class="st37" width="39.5" height="6.4"/>
		<path class="st38" d="M176.5,93.2c-0.2-0.8-0.7-0.3-1.4-0.9c-0.6-0.5,0.1-1-1.4-1.4c-0.2-0.1-0.3-0.1-0.5-0.1c-1-0.1-2.3,0-3.3,0
			c-2,0-3.9,0-5.9,0c-5.2,0-10.4,0-15.6,0c-4.8,0-9.6,0-14.4,0c-1.5,0-2.9,0-4.3,0c-1,0-1.3-0.2-1.3,0.4c-0.1,1.3,4.4,1,5.8,1
			c4.5,0,9,0,13.5,0c7.5,0,15.1,0,22.6,0c0,0.7-0.4,2.6,0.2,3.2c-0.6,0.6-0.2,2.5-0.2,3.2c-7.5,0-15.1,0-22.6,0c-4.5,0-9,0-13.5,0
			c-1.4,0-5.9-0.3-5.8,1c0,0.6,0.3,0.4,1.3,0.4c1.4,0,2.8,0,4.3,0c4.8,0,9.6,0,14.4,0c5.2,0,10.4,0,15.6,0c2,0,3.9,0,5.9,0
			c1,0,2.3,0.1,3.3,0c0.2,0,0.3,0,0.5-0.1c1.5-0.4,0.8-0.9,1.4-1.4c0.7-0.6,1.2-0.1,1.4-0.9c0.1-0.3,0.3-1.9,0-2.2
			C176.8,95.1,176.6,93.5,176.5,93.2z"/>
		<path class="st39" d="M170.3,92.2c1,1,1.3,0.8,2.9,1.3c0.8,0.3,0.5,0,0.8,0.4c0.2,0.3,0,1.1,0,1.4c0,0.4,0.2,1.1,0,1.4
			s-0.1,0.1-0.7,0.4c-0.5,0.2-1.5,0.1-2,0.4c-0.4,0.2-0.8,0.8-1,1.1C170.3,96.5,170.3,94.4,170.3,92.2z"/>
	</g>
	<g>
		<rect x="131.5" y="84.4" class="st37" width="40.2" height="5.3"/>
		<path class="st40" d="M177.8,87.1c0.1,0,0.2,0,0.2,0c0.3-0.2,0.1-1.5,0-1.8c-0.2-0.6-0.7-0.2-1.4-0.7c-0.5-0.4,0.1-0.9-1.4-1.2
			c-0.2,0-0.3,0-0.5,0c-1-0.1-2.4,0-3.4,0c-2,0-4,0-6,0c-5.3,0-10.6,0-15.9,0c-4.9,0-9.7,0-14.6,0c-1.4,0-2.9,0-4.3,0
			c-1.1,0-1.4-0.2-1.4,0.3c-0.1,1,4.5,0.8,5.9,0.8c4.6,0,9.1,0,13.7,0c7.7,0,15.3,0,23,0c0,0.5-0.5,2.2,0.2,2.6
			c-0.7,0.3-0.2,2.1-0.2,2.7c-7.7,0-15.3,0-23,0c-4.6,0-9.1,0-13.7,0c-1.4,0-6-0.2-5.9,0.8c0,0.5,0.3,0.3,1.4,0.3c1.4,0,2.9,0,4.3,0
			c4.9,0,9.7,0,14.6,0c5.3,0,10.6,0,15.9,0c2,0,4,0,6,0c1,0,2.4,0.1,3.4,0c0.2,0,0.3,0,0.5,0c1.5-0.3,0.9-0.8,1.4-1.2
			c0.7-0.5,1.2-0.1,1.4-0.7c0.1-0.3,0.3-1.6,0-1.8C177.9,87.1,177.9,87.1,177.8,87.1z"/>
		<path class="st41" d="M171.7,84.4c1,0.8,1.4,0.6,3,1.1c0.8,0.2,0.6,0,0.8,0.3s0,0.9,0,1.2c0,0.3,0.3,0.9,0,1.2
			c-0.3,0.3-0.1,0.1-0.7,0.3c-0.6,0.2-1.5,0.1-2,0.3c-0.4,0.2-0.8,0.7-1,0.9C171.7,87.9,171.7,86.1,171.7,84.4z"/>
	</g>
	<g>
		<rect x="134.6" y="77.6" class="st37" width="37.6" height="4.7"/>
		<path class="st42" d="M168.9,82.4c-4.3,0-8.5,0-12.8,0c-7.2,0-14.3,0-21.5,0c0-0.5,0.5-2.1-0.2-2.3c0.7-0.2,0.2-1.8,0.2-2.3
			c7.2,0,14.3,0,21.5,0c4.3,0,8.5,0,12.8,0c1.3,0,5.6,0.2,5.6-0.7c0-0.4-0.3-0.3-1.3-0.3c-1.4,0-2.7,0-4.1,0c-4.6,0-9.1,0-13.7,0
			c-4.9,0-9.9,0-14.8,0c-1.9,0-3.7,0-5.6,0c-1,0-2.2-0.1-3.2,0c-0.2,0-0.3,0-0.5,0c-1.4,0.3-0.8,0.7-1.3,1c-0.7,0.5-1.1,0-1.3,0.6
			c-0.1,0.2-0.3,1.4,0,1.6c0.1,0,0.3,0.1,0.7,0.1c-0.4,0-0.6,0.1-0.7,0.1c-0.3,0.2-0.1,1.4,0,1.6c0.2,0.6,0.6,0.1,1.3,0.6
			c0.5,0.3-0.1,0.7,1.3,1c0.2,0,0.3,0,0.5,0c1,0.1,2.2,0,3.2,0c1.9,0,3.7,0,5.6,0c4.9,0,9.9,0,14.8,0c4.6,0,9.1,0,13.7,0
			c1.4,0,2.7,0,4.1,0c1,0,1.3,0.1,1.3-0.3C174.5,82.2,170.2,82.4,168.9,82.4z"/>
		<path class="st43" d="M134.6,77.8c-1,0.7-1.3,0.6-2.8,0.9c-0.7,0.2-0.5,0-0.8,0.3c-0.2,0.2,0,0.8,0,1c0,0.3-0.2,0.8,0,1
			s0.1,0.1,0.7,0.3c0.5,0.2,1.4,0.1,1.9,0.3c0.4,0.1,0.7,0.6,1,0.8C134.6,80.9,134.6,79.3,134.6,77.8z"/>
	</g>
	<g>
		<rect x="140" y="71.8" class="st37" width="32.8" height="3.9"/>
		<g>
			<path class="st44" d="M134.8,73.6c0.2,0.1,4.4,0.2,4.9,0.1c0.6-0.1,0.2-1.5,0.2-1.9c6.3,0,12.5,0,18.8,0c3.7,0,7.5,0,11.2,0
				c1.2,0,4.9,0.2,4.9-0.6c0-0.4-0.3-0.3-1.1-0.3c-1.2,0-2.4,0-3.5,0c-4,0-8,0-11.9,0c-4.3,0-8.6,0-13,0c-1.6,0-3.3,0-4.9,0
				c-0.8,0-1.9-0.1-2.8,0c-0.2,0-0.3,0-0.4,0c-1.2,0.2-0.7,0.6-1.2,0.9c-0.6,0.4-1,0-1.2,0.5C134.7,72.5,134.5,73.5,134.8,73.6z"/>
			<path class="st44" d="M169.9,75.7c-3.7,0-7.5,0-11.2,0c-6.3,0-12.5,0-18.8,0c0-0.4,0.4-1.7-0.2-1.9c-0.5-0.1-4.7,0-4.9,0.1
				c-0.3,0.1-0.1,1.1,0,1.3c0.2,0.5,0.6,0.1,1.2,0.5c0.5,0.3,0,0.7,1.2,0.9c0.1,0,0.2,0,0.4,0c0.9,0.1,2,0,2.8,0c1.6,0,3.3,0,4.9,0
				c4.4,0,8.7,0,13,0c3.9,0,7.9,0,11.9,0c1.1,0,2.3,0,3.5,0c0.8,0,1.1,0.1,1.1-0.3C174.8,75.5,171.1,75.7,169.9,75.7z"/>
		</g>
		<path class="st45" d="M139.9,71.8c-0.8,0.6-1.1,0.5-2.4,0.8c-0.6,0.2-0.5,0-0.7,0.3c-0.2,0.2,0,0.6,0,0.9c0,0.2-0.2,0.7,0,0.9
			c0.2,0.2,0.1,0.1,0.6,0.2s1.3,0.1,1.7,0.2c0.3,0.1,0.6,0.5,0.8,0.7C139.9,74.4,139.9,73.1,139.9,71.8z"/>
	</g>
	<g>
		<rect x="143.1" y="66.1" class="st37" width="28.7" height="3.9"/>
		<g>
			<path class="st46" d="M145.5,66.1c3.3,0,6.5,0,9.8,0c5.5,0,10.9,0,16.4,0c0,0.4-0.3,1.8,0.2,1.9c0.4,0.1,4.1,0,4.3-0.1
				s0.1-1.1,0-1.3c-0.2-0.5-0.5-0.1-1-0.5c-0.4-0.3,0.1-0.7-1-0.9c-0.2,0-0.2,0-0.4,0c-0.7-0.1-1.7,0-2.4,0c-1.5,0-2.9,0-4.3,0
				c-3.8,0-7.5,0-11.3,0c-3.4,0-6.9,0-10.4,0c-1,0-2.1,0-3.1,0c-0.8,0-1-0.1-1,0.3C141.2,66.3,144.5,66.1,145.5,66.1z"/>
			<path class="st46" d="M171.9,68.1c-0.5,0.1-0.2,1.5-0.2,1.9c-5.5,0-10.9,0-16.4,0c-3.3,0-6.5,0-9.8,0c-1,0-4.3-0.2-4.2,0.6
				c0,0.4,0.2,0.3,1,0.3c1,0,2.1,0,3.1,0c3.5,0,7,0,10.4,0c3.8,0,7.5,0,11.3,0c1.4,0,2.8,0,4.3,0c0.7,0,1.7,0.1,2.4,0
				c0.2,0,0.2,0,0.4,0c1.1-0.2,0.6-0.6,1-0.9c0.5-0.4,0.8,0,1-0.5c0.1-0.2,0.2-1.2,0-1.3C176,68.1,172.3,68,171.9,68.1z"/>
		</g>
		<path class="st47" d="M171.7,66.1c0.7,0.6,1,0.5,2.1,0.8c0.6,0.2,0.4,0,0.6,0.3c0.2,0.2,0,0.6,0,0.9c0,0.2,0.2,0.7,0,0.9
			c-0.2,0.2-0.1,0.1-0.5,0.2s-1.1,0.1-1.5,0.2c-0.3,0.1-0.5,0.5-0.7,0.7C171.7,68.7,171.7,67.4,171.7,66.1z"/>
	</g>
	<g>
		<rect x="142.4" y="57.8" class="st37" width="27.2" height="6.1"/>
		<path class="st48" d="M173.9,60.8c0.1,0,0.1,0,0.1,0c0.2-0.2,0.1-1.8,0-2.1c-0.2-0.7-0.5-0.2-1-0.8c-0.4-0.5,0-1.1-1-1.4
			c-0.2-0.1-0.3-0.1-0.4-0.1c-0.7-0.1-1.6,0-2.3,0c-1.4,0-2.7,0-4.1,0c-3.6,0-7.2,0-10.8,0c-3.3,0-6.6,0-9.9,0c-0.9,0-1.9,0-2.9,0
			c-0.7,0-0.9-0.2-0.9,0.4c-0.1,1.3,3,1,4,1c3.1,0,6.2,0,9.3,0c5.2,0,10.4,0,15.6,0c0,0.7-0.3,2.6,0.3,3c-0.5,0.4-0.3,2.4-0.3,3
			c-5.2,0-10.4,0-15.6,0c-3.1,0-6.2,0-9.3,0c-1,0-4.1-0.3-4,1c0,0.6,0.2,0.4,0.9,0.4c1,0,2,0,2.9,0c3.3,0,6.6,0,9.9,0
			c3.6,0,7.2,0,10.8,0c1.4,0,2.7,0,4.1,0c0.7,0,1.6,0.1,2.3,0c0.1,0,0.2,0,0.4-0.1c1-0.3,0.6-0.9,1-1.4c0.5-0.6,0.8-0.1,1-0.8
			c0.1-0.3,0.2-1.9,0-2.1C174,60.8,174,60.8,173.9,60.8z"/>
		<path class="st49" d="M169.6,57.8c0.7,0.9,0.9,0.7,2,1.2c0.5,0.2,0.4,0,0.5,0.4c0.2,0.3,0,1,0,1.3c0,0.4,0.2,1,0,1.3
			s0,0.1-0.5,0.4c-0.4,0.2-1,0.1-1.4,0.4c-0.3,0.2-0.5,0.8-0.7,1.1C169.6,61.9,169.6,59.8,169.6,57.8z"/>
	</g>
</g>
<rect x="-0.4" class="st50" width="203.7" height="121.6"/>
</svg>
