<?xml version="1.0" encoding="utf-8"?>
<!-- Generator: Adobe Illustrator 21.0.2, SVG Export Plug-In . SVG Version: 6.00 Build 0)  -->
<svg version="1.1" id="Layer_1" xmlns="http://www.w3.org/2000/svg" xmlns:xlink="http://www.w3.org/1999/xlink" x="0px" y="0px"
	 viewBox="0 0 721 390" style="enable-background:new 0 0 721 390;" xml:space="preserve">
<style type="text/css">
	.st0{opacity:0.9;clip-path:url(#SVGID_2_);fill:#2A286B;}
	.st1{opacity:0.9;clip-path:url(#SVGID_2_);fill:#584777;}
	.st2{clip-path:url(#SVGID_2_);fill:#8D8FC5;}
</style>
<g>
	<defs>
		<rect id="SVGID_1_" width="721" height="390"/>
	</defs>
	<clipPath id="SVGID_2_">
		<use xlink:href="#SVGID_1_"  style="overflow:visible;"/>
	</clipPath>
	<path class="st0" d="M-186.5,203c9.3-22.5,17.4-33.7,34.9-36.1c16.3-2.2,24.2,3.5,38,15.4c5.8-18.2,10.3-28.3,22.4-37.7
		c12.3-9.5,22-8,34.8-3.5c-4.8-11-6.3-16.7-0.2-28.6c5-9.7,12.7-18.8,20.6-20.6C-20,88-8.2,104-9,128.7c9.7-10.2,18-14.8,29.5-17.1
		c12.6-2.5,19.1,0.9,31.1,7.2c-0.3-9.6,2.6-22,8.7-25.1c2.3-1.1,7.7-0.4,10.3-0.8c6.7-1.1,6.8-0.8,12.1,5.1
		c15.2,17.1,10.3,35.5-5.6,48.7c9.6,5.8,17,22.9,8.9,39.1c21.8,6.2,33.2,27.5,42.2,58.2c4.1-9.3,7.4-19.5,15.6-20.3
		c7.1-0.7,12.6,5.6,16.5,13.4c4.4,8.8,6.9,17.1,7.2,28.5c0.4,14.6-1.9,18.1-8,28.7c10.5,6.8,18.1,11,23.7,27.8
		c4.1,12.3,2.7,30.2,3.2,44.5c4.1-20.4,8-32.4,21.3-39.6c-13.6-21.3-9.1-50.3,4.1-70.8c5.4-8.3,11.6-14,18.8-18.3
		c10.4-6.2,15.9-4,26.1,0.5c-7-14.5-10.1-26,1.3-37.7c11.3-11.6,21-9,26.9,9.5c7.6-8.5,14.8-17,23.2-23.2c9.9-7.3,20.3-2.8,30.8,1.1
		c15,5.6,37.8,22.2,42,48.8c11.2-7.8,19.1-5.4,22.5,13.1c16.4-22.8,43.6-24.1,60.9-4.3c-1.1-17-2.2-32.8,7.5-44.7
		c9.3-11.5,19.4-16.1,30-9.4c9.4,5.9,19.4,14.6,23.3,30.4c3.9,16.2-1.6,30.5-7.8,44.1c12.5-1.6,19.2-2.3,30.5,6
		c8.7,6.3,15.4,18.5,21.4,30.5c14.9,29.6,10.9,60.2,5.5,94.5c18.4-3.9,26.2,8.2,31.1,36.1c3.5,19.7,4.4,39.8-2.2,57.5
		c-3.5,9.4-5.7,21.4-11.7,24.9c-3.8,2.2-10.6,0.1-14.5,0.2c-54.1,0.6-108.3,1.1-162.4,1.7c-163.1,1.7-326.1,3.4-489.2,5.1
		c-40.8,0.4-81.7,0.8-122.5,1.3C-193.3,416.8-189.9,309.9-186.5,203z"/>
	<path class="st0" d="M756.1,167.1c-6.8-13.6-12.3-20.2-23.2-20.9c-10.2-0.7-14.9,3.2-22.9,11.2c-4.4-11.1-7.7-17.1-15.6-22.4
		c-8.1-5.4-14.1-4-21.8-0.7c2.5-7.1,3.2-10.7-1.1-17.8c-3.5-5.8-8.7-11.1-13.7-11.9c-10.2-1.6-16.8,8.8-15.3,24.1
		c-6.5-5.9-11.9-8.4-19.1-9.3c-7.9-1-11.8,1.4-19,5.8c-0.2-6-2.6-13.6-6.5-15.2c-1.5-0.6-4.8,0.1-6.4-0.1c-4.2-0.4-4.2-0.2-7.3,3.7
		c-8.7,11.3-4.8,22.5,5.6,30c-5.7,4-9.6,15-3.8,24.7c-13.3,4.8-19.4,18.5-23.7,38c-3-5.6-5.5-11.8-10.6-12c-4.4-0.1-7.6,4-9.7,9
		c-2.3,5.6-3.5,11-3.3,18c0.4,9.1,2,11.2,6.2,17.5c-6.2,4.7-10.8,7.6-13.5,18.3c-2,7.8-0.4,18.9-0.1,27.8
		c-3.4-12.5-6.4-19.8-15-23.7c7.5-13.8,3.5-31.7-5.7-43.9c-3.7-5-7.8-8.2-12.5-10.5c-6.8-3.4-10-1.8-16.2,1.4
		c3.7-9.3,5.2-16.6-2.4-23.4c-7.5-6.7-13.5-4.7-16.3,7.1c-5.1-4.9-9.9-9.9-15.4-13.4c-6.5-4.1-12.7-0.8-19.1,2.1
		c-9.1,4.1-22.5,15.5-24,32.2c-7.3-4.4-12.1-2.5-13.4,9.1c-11.2-13.4-28.2-13.1-38,0c-0.1-10.6-0.1-20.5-6.6-27.5
		c-6.3-6.7-12.8-9.2-19.1-4.5c-5.6,4.1-11.5,9.9-13.1,19.9c-1.7,10.3,2.3,18.9,6.8,27.1c-7.8-0.5-12-0.6-18.7,5
		c-5.1,4.3-8.8,12.2-12,19.9c-8,19-4.1,37.9,0.7,59c-11.6-1.6-15.9,6.3-17.8,23.8c-1.3,12.4-1,24.9,3.9,35.7
		c2.6,5.7,4.5,13.1,8.4,15c2.4,1.2,6.6-0.4,9-0.5c33.7-2,67.4-4,101.1-6.1c101.5-6.1,202.9-12.2,304.4-18.2
		c25.4-1.5,50.8-3,76.2-4.6C769.7,299.7,762.9,233.4,756.1,167.1z"/>
	<path class="st0" d="M49.8,196.2c4.6-14.5,9-21.8,19.8-24.2c10-2.2,15.2,0.9,24.4,7.5c2.7-11.6,4.9-18.1,11.9-24.6
		c7.2-6.6,13.3-6.1,21.4-4c-3.6-6.6-4.8-10.1-1.6-17.8c2.6-6.3,6.9-12.3,11.7-13.9c9.9-3.2,18,6.1,18.8,21.5
		c5.5-6.9,10.4-10.2,17.4-12.2c7.7-2.2,11.9-0.4,19.7,2.9c-0.7-5.9,0.4-13.8,4.1-16.1c1.4-0.8,4.8-0.6,6.4-1c4.1-1,4.2-0.9,7.8,2.5
		c10.3,9.8,8.2,21.5-0.9,30.5c6.3,3.1,11.8,13.3,7.6,23.8c13.9,2.7,22,15.3,29.2,34c2.1-6,3.6-12.5,8.6-13.4c4.4-0.8,8.1,2.8,11,7.4
		c3.2,5.2,5.2,10.3,6,17.3c1,9-0.2,11.4-3.4,18.2c6.9,3.7,11.8,5.9,16.2,16c3.2,7.4,3.3,18.6,4.3,27.5c1.5-12.9,3.3-20.5,11.2-25.7
		c-9.5-12.5-8.3-30.8-1.2-44.2c2.9-5.5,6.4-9.3,10.7-12.3c6.2-4.4,9.7-3.3,16.2-1.1c-5.1-8.7-7.7-15.6-1.2-23.5
		c6.4-7.8,12.6-6.7,17.2,4.5c4.3-5.7,8.3-11.3,13.2-15.6c5.8-5.1,12.5-2.8,19.2-0.9c9.6,2.7,24.6,11.8,28.6,28.1
		c6.5-5.4,11.6-4.4,14.6,7c9-15,25.8-17.3,37.6-5.9c-1.6-10.5-3.1-20.2,2.3-28.1c5.2-7.6,11.2-11,18.1-7.4c6.2,3.2,12.8,8,16.1,17.7
		c3.3,9.9,0.6,19-2.5,27.8c7.7-1.7,11.8-2.4,19.3,2.1c5.8,3.5,10.5,10.7,14.9,17.8c10.8,17.6,9.9,36.8,8.4,58.4
		c11.3-3.4,16.7,3.7,21.2,20.8c3.2,12.1,4.8,24.5,1.7,35.9c-1.7,6-2.4,13.6-6,16.1c-2.2,1.6-6.6,0.6-9,0.9
		c-33.6,3.2-67.2,6.4-100.8,9.6c-101.2,9.6-202.4,19.2-303.6,28.8c-25.3,2.4-50.7,4.8-76,7.2C56.8,329.3,53.3,262.8,49.8,196.2z"/>
	<path class="st1" d="M70.5,233.9c-14.4,0-24.3,3-34,12.9c-4.3,4.4-2.5,4.3-7.2,4.3c-3.1,0-6-2.4-9.8-2.3c-7.6,0.1-12,4.7-18.1,8.7
		c8-22.6-15.9-35.9-36.1-44.2c10.9-2.1,18.6-4.2,21.8-15.3c2.6-9.1-4.1-20.2-13.1-23.6c-7.8-3-23.2-1.2-28.9,4.9
		c-7.3,7.9-6.6,16.3-1.6,24.9c-10.4-7.6-18.9-12.5-32-5.7c-12,6.3-16.4,13.6-20.3,25c-2.1-3.1-4.3-8.4-7.5-10.3
		c-4.8-2.8-13-2.8-17.6,0.2c-9.2,6.2-1.3,17.7,7,22.2c-10.4,2.1-14.3,2.9-21.8,9.6c-5.6,5-9,10.5-13.1,16.5
		c-4.6-4.8-8.9-11-16.4-12.6c-4.2-0.9-11.1-1.2-12.9,1.3c-1.8,2.5-0.3,10.9-0.3,13.8c-0.2,8.4-0.4,16.8-0.6,25.2
		c-0.7,29.5-1.4,58.9-2.1,88.4c118.2-0.9,236.4-1.8,354.6-2.7c86.2-0.7,172.4-1.3,258.6-2c31.9-0.2,63.9-0.5,95.8-0.7
		c17.2-0.1,35.8,1.4,52.9-0.4c6.1-0.7,3.7,1.1,5.8-2.7c2.7-4.9,0-16.8,0-22.2c0-11,0-22,0-33c0-12.7,2.9-28.5,0-41
		c-4.3-18.5-20.8-21.1-38.7-24.1c6.6-2.3,9.8-2.8,13.4-7.8c3-4.1,5-11,0.9-15.3c-8.6-9.3-22.7-3.8-31.1,1.1
		c1.4-6.2,6.1-17.8-1.2-23.1c-2.6-1.9-9.1-1.2-12.1-0.6c-6.3,1.3-8.3,2.7-9.3,7.8c-0.7,3.5,0.6,7.5,2.5,10.7
		c4.2,6.8,5.3,3.5,2.9,10.3c-1.2,3.5-4.6,7-4.6,10.9c-0.1,3.9,2.6,8.9,3.7,12.6c-15.1-10.3-27.9-16.5-47.6-13.7
		c-19.5,2.8-31,12-42.6,25.5c-3.8-4.8-4.9-6.1-11.8-6.3c-4.5-0.1-11,1.9-14.1-0.3c-3.3-2.3-3.9-9.9-6.9-13.2
		c-3.8-4.3-9.2-6.9-14.5-9.6c6.2-3,7-2.3,7.8-7.7c0.7-4.6-0.9-7.3-5-10.1c-8.1-5.5-15.8-2-24.6,1.1c-1.1-6.5-3-11-10.7-6.2
		c-8.9,5.6-3,8.4,2.6,13.1c-7.5,0.7-14.7,0.7-20.5,5.7c-2.5,2.1-3.1,5.6-5.4,7.9c-4,4.1-0.2,2.9-6.5,2.1c-3.3-0.4-6.5-2.9-9.8-2.9
		c-3.5,0-8.3,1.9-11.8,2.7c-6.9,1.6-15.1,3.9-20.7,8c-5.5,4-4.4,12.2-9.4,16.3c-3.3,2.7-10.7-0.6-15.9,0.3
		c-19.9,3.5-8.6,18.8-0.9,27.7c-6.8,3.1-13.3,5.6-14.9,12.9c-1.6,7.4,2.2,14.3,6.2,20.3c-8.3-4.1-15.7-8.9-25.9-6.5
		c-8,1.8-16.8,9.1-23.3,13.5c-1.4-8.4-3-18.5-8.9-25.5c-7.4-8.8-17.2-8.7-28.4-10c7.4-3.4,11.5-4.7,13.1-12.6c0.3-1.5-1-5.5,0-6.6
		c1.3-1.4,1.2,0.6,3.4-0.8c2.4-1.5,7.1,0.1,9.3-3.5c2.6-4.1-0.3-15.5-5-18.4c-8.1-5.1-10.8,3.1-14,8.9c-4.5-6-9.8-13.6-19-14.6
		c-9.3-1-17.1,7.1-22.8,11.9C93.5,249.9,86.8,241.9,70.5,233.9z"/>
	<path class="st1" d="M358.8,269.5c-14.4,0-24.3,3-34,12.9c-4.3,4.4-2.5,4.3-7.2,4.3c-3.1,0-6-2.4-9.8-2.3c-7.6,0.1-12,4.7-18.1,8.7
		c8-22.6-15.9-35.9-36.1-44.2c10.9-2.1,18.6-4.2,21.8-15.3c2.6-9.1-4.1-20.2-13.1-23.6c-7.8-3-23.2-1.2-28.9,4.9
		c-7.3,7.9-6.6,16.3-1.6,24.9c-10.4-7.6-18.9-12.5-32-5.7c-12,6.3-16.4,13.6-20.3,25c-2.1-3.1-4.3-8.4-7.5-10.3
		c-4.8-2.8-13-2.8-17.6,0.2c-9.2,6.2-1.3,17.7,7,22.2c-10.4,2.1-14.3,2.9-21.8,9.6c-5.6,5-9,10.5-13.1,16.5
		c-4.6-4.8-8.9-11-16.4-12.6c-4.2-0.9-11.1-1.2-12.9,1.3c-1.8,2.5-0.3,10.9-0.3,13.8c-0.2,8.4-0.4,16.8-0.6,25.2
		c-0.7,29.5-1.4,58.9-2.1,88.4c118.2-0.9,236.4-1.8,354.6-2.7c86.2-0.7,172.4-1.3,258.6-2c31.9-0.2,63.9-0.5,95.8-0.7
		c17.2-0.1,35.8,1.4,52.9-0.4c6.1-0.7,3.7,1.1,5.8-2.7c2.7-4.9,0-16.8,0-22.2c0-11,0-22,0-33c0-12.7,2.9-28.5,0-41
		c-4.3-18.5-20.8-21.1-38.7-24.1c6.6-2.3,9.8-2.8,13.4-7.8c3-4.1,5-11,0.9-15.3c-8.6-9.3-22.7-3.8-31.1,1.1
		c1.4-6.2,6.1-17.8-1.2-23.1c-2.6-1.9-9.1-1.2-12.1-0.6c-6.3,1.3-8.3,2.7-9.3,7.8c-0.7,3.5,0.6,7.5,2.5,10.7
		c4.2,6.8,5.3,3.5,2.9,10.3c-1.2,3.5-4.6,7-4.6,10.9c-0.1,3.9,2.6,8.9,3.7,12.6c-15.1-10.3-27.9-16.5-47.6-13.7
		c-19.5,2.8-31,12-42.6,25.5c-3.8-4.8-4.9-6.1-11.8-6.3c-4.5-0.1-11,1.9-14.1-0.3c-3.3-2.3-3.9-9.9-6.9-13.2
		c-3.8-4.3-9.2-6.9-14.5-9.6c6.2-3,7-2.3,7.8-7.7c0.7-4.6-0.9-7.3-5-10.1c-8.1-5.5-15.8-2-24.6,1.1c-1.1-6.5-3-11-10.7-6.2
		c-8.9,5.6-3,8.4,2.6,13.1c-7.5,0.7-14.7,0.7-20.5,5.7c-2.5,2.1-3.1,5.6-5.4,7.9c-4,4.1-0.2,2.9-6.5,2.1c-3.3-0.4-6.5-2.9-9.8-2.9
		c-3.5,0-8.3,1.9-11.8,2.7c-6.9,1.6-15.1,3.9-20.7,8c-5.5,4-4.4,12.2-9.4,16.3c-3.3,2.7-10.7-0.6-15.9,0.3
		c-19.9,3.5-8.6,18.8-0.9,27.7c-6.8,3.1-13.3,5.6-14.9,12.9c-1.6,7.4,2.2,14.3,6.2,20.3c-8.3-4.1-15.7-8.9-25.9-6.5
		c-8,1.8-16.8,9.1-23.3,13.5c-1.4-8.4-3-18.5-8.9-25.5c-7.4-8.8-17.2-8.7-28.4-10c7.4-3.4,11.5-4.7,13.1-12.6c0.3-1.5-1-5.5,0-6.6
		c1.3-1.4,1.2,0.6,3.4-0.8c2.4-1.5,7.1,0.1,9.3-3.5c2.6-4.1-0.3-15.5-5-18.4c-8.1-5.1-10.8,3.1-14,8.9c-4.5-6-9.8-13.6-19-14.6
		c-9.3-1-17.1,7.1-22.8,11.9C381.8,285.4,375.1,277.5,358.8,269.5z"/>
	<path class="st1" d="M577.4,265.4c14.3-1.8,24.5,0,35.3,8.6c4.8,3.8,3,3.9,7.7,3.4c3.1-0.4,5.6-3.1,9.5-3.5
		c7.6-0.8,12.5,3.2,19,6.4c-10.8-21.4,11.3-37.6,30.3-48.4c-11-0.7-19-1.9-23.5-12.5c-3.7-8.7,1.6-20.5,10-25
		c7.4-3.9,22.9-4,29.3,1.3c8.3,6.9,8.6,15.4,4.7,24.5c9.4-8.8,17.2-14.8,31-9.6c12.7,4.8,17.9,11.5,23.3,22.3
		c1.7-3.3,3.2-8.9,6.2-11.2c4.4-3.3,12.6-4.4,17.4-1.9c9.9,5.1,3.5,17.5-4.2,22.9c10.6,0.8,14.6,1.1,22.8,6.8
		c6.1,4.2,10.2,9.3,15,14.8c4-5.4,7.5-12,14.7-14.6c4-1.4,10.9-2.6,13-0.3c2.1,2.3,1.6,10.8,2,13.7c1.2,8.3,2.5,16.6,3.7,24.9
		c4.4,29.1,8.7,58.3,13.1,87.4c-117.4,13.7-234.8,27.5-352.2,41.2c-85.6,10-171.2,20.1-256.8,30.1c-31.7,3.7-63.4,7.4-95.1,11.1
		c-17.1,2-35.3,5.8-52.6,6.2c-6.2,0.1-3.5,1.6-6-2c-3.2-4.6-2.1-16.7-2.8-22.1c-1.4-10.9-2.7-21.8-4.1-32.8
		c-1.6-12.6-6.4-28-5.1-40.7c2-18.9,18-23.5,35.4-28.7c-6.8-1.5-10-1.6-14.3-6.1c-3.5-3.7-6.3-10.3-2.8-15.1c7.4-10.3,22-6.6,31-2.8
		c-2.2-6-8.2-16.9-1.6-23c2.4-2.2,8.9-2.3,11.9-2.1c6.4,0.5,8.6,1.7,10.2,6.6c1.1,3.4,0.3,7.6-1.2,10.9c-3.3,7.3-4.8,4.2-1.6,10.6
		c1.6,3.3,5.4,6.4,6,10.3c0.6,3.8-1.5,9.1-2.1,13c13.7-12.1,25.6-19.9,45.6-19.5c19.7,0.3,32.3,8.1,45.5,20c3.2-5.2,4.1-6.6,11-7.7
		c4.4-0.7,11.2,0.5,14-2c3-2.7,2.7-10.3,5.2-14c3.3-4.7,8.3-8,13.2-11.3c-6.6-2.2-7.3-1.4-8.7-6.7c-1.3-4.5,0-7.4,3.7-10.6
		c7.3-6.5,15.4-4,24.6-2c0.2-6.6,1.6-11.3,9.8-7.5c9.5,4.4,4,7.9-1,13.3c7.5-0.2,14.6-1.1,21,3.1c2.7,1.8,3.8,5.1,6.3,7.2
		c4.5,3.5,0.5,2.8,6.7,1.3c3.2-0.8,6.1-3.6,9.4-4.1c3.5-0.5,8.5,0.9,12,1.2c7.1,0.7,15.4,2,21.5,5.3c5.9,3.3,5.9,11.6,11.3,15
		c3.6,2.3,10.6-1.9,15.9-1.7c20.2,1,10.8,17.6,4.3,27.3c7.1,2.3,13.8,3.9,16.4,11c2.5,7.1-0.5,14.4-3.6,20.9
		c7.7-5.1,14.5-10.7,24.9-9.7c8.2,0.8,17.8,7,24.8,10.5c0.4-8.5,0.7-18.7,5.7-26.4c6.2-9.6,16-10.7,26.9-13.5
		c-7.8-2.5-12-3.2-14.5-10.8c-0.5-1.4,0.3-5.6-0.8-6.6c-1.4-1.2-1.1,0.8-3.5-0.3c-2.6-1.2-7,1-9.7-2.3c-3.1-3.8-1.6-15.4,2.6-18.9
		c7.4-6.1,11.1,1.8,15,7.1c3.8-6.5,8.1-14.7,17-16.8c9.1-2.2,17.8,4.9,24.1,9C556.5,284.1,562.2,275.4,577.4,265.4z"/>
	<path class="st2" d="M-3.4,280.9c1.4,2.1,2.6,4.7,4.4,6.5c2.3,2.2,5.9,3.3,7.7,5.8c5.5,7.7-3.1,8.5-9.8,10.7
		c4,5.9,11.3,8.1,11.7,15.6c0.5,7.5-5.2,12-10.8,16.5c6-1.1,11.4-3.3,17-1c2,0.8,5.9,4.8,7.6,5c1.6,0.2,4.7-2.7,6.3-4
		c4.7-3.6,3.5-7.8,7.8-12c4.4-4.3,8.9-5.1,15.2-7c-3.5-2.2-5.2-2.8-6.4-6.1c-1.1-3-1.4-6.6-0.2-9.2c1.3-2.9,4.2-6.2,5.7-9.2
		c1.7-3.2,3.7-4.8,7.9-6c5.7-1.6,13.9,1.9,18.6,5.7c6,4.8,1,10.8-1.9,16.6c2.2-1.5,5.8-5.3,8.4-5.5c4.2-0.4,8.5,3.6,9.3,6.9
		c0.9,3.6-0.3,5.9-3.1,8.1c-4.2,3.3-4.9,1.4-9.8-1.3c1.2,5.2,4.8,11.3,1.8,16.1c-3,4.7-8.3,6.5-13.5,8.9c5,2.1,6.1,3.5,9.1,7.7
		c3.8-2.4,6.5-4.2,10.9-5.4c5.5-1.5,7.5-0.7,12.9,1.2c-2.2-4.9-3.8-10.1-3-15.4c1.2-7.9,6.6-9,14.3-9.8c-4-1.8-9.4-3.8-9.9-8.6
		c-0.4-4,4.3-9.1,7.9-10.4c4.4-1.7,11-0.2,13.8,3.6c3.2,4.2,0.7,8.4-1.5,12.1c6.4-3.7,11.3-6.3,19.5-5c2.9,0.5,5.6,1.8,7.9,3.9
		c2.4,2.1,2.6,6.1,4.9,7.9c2.5,2,3.7-1,7.2-0.4c3,0.5,5.4,3.5,4.1,6c-3,6-12.3,3.4-17.6,2.9c1.8,4.3,1.3,5.2-0.6,9.5
		c10.1-1.6,20.2,1.9,27.5,8.7c4.9,4.6,7,9.5,10.8,14.4c2.5,3.2,9.5,5.6,13.1,2c3.2-3.1-2.5-7.4,3.2-10.6c2.3-1.3,15.3-2.7,18.2-2.3
		c4.5,0.7,11.5,4,10.6,8.6c-0.9,4.2-7.7,6.4-11.7,8.3c1.9,0.2,4.1,0.2,5.9,0.8c2.1,0.7,4,3.2,6.2,3.6c3.4,0.6,5.9-3.1,9.4-4.4
		c8.5-3.4,18.1-2.5,27.2-2.6c-5.7-2.8-9.6-3.9-11.1-10c-1-4.2-0.6-8.9,2.2-12.3c3.8-4.7,10.4-1.8,14.1-5.1c1.2-1.1-0.3-4.5,0.9-5.6
		c1.1-1.1,6.8-1,8.3-1.3c-2.5-4-5.1-5.4-0.6-8.2c2.4-1.5,6.3-2.1,9.4-1.4c2.6,0.6,6.6,3,7.8,5c2.4,3.8-0.2,5.2-2.7,8.2
		c6.8,0.7,15.8,3.5,14.8,10.8c-1.1,8.2-11.1,5.4-17.6,3.2c3.2,4,4.9,6,6,10.7c1.3,5.7-0.2,5.3-5.5,8.7c2.9,1.6,7.3,3.3,9.5,5.5
		c1.7,1.7,4.5,8.1,8.1,7.9c1.2-0.1,6.4-4.8,8-5.5c3.8-1.7,7-1.7,11.4-2.1c-3.4-5.8-4.3-10.4,0.8-15.7c4.2-4.5,9-5.8,15.4-6.4
		c5.5-0.5,13.7-1.4,18.9,0.7c6.7,2.7,8.2,8.8,10.6,14.3c0.2-1.9,0-4.4,0.7-6.2c1.2-3.5-0.7-1.9,3-3.1c2.8-0.9,10.5-0.6,12.9,0.5
		c2.7,1.2,4.8,4.9,5.2,7.3c0.8,5.1-3.3,6-7.4,8.3c9.7-2.3,17.2-4.6,25.4,2.6c8,7,5.2,13.6,1,21.1c5.8-2.6,10.1-4.3,11.5-10.1
		c1.4-6.3-4.4-7.2-6.4-12.8c-6.1-16.9,18.7-13.4,17.9-6.1c0.6-5.3,1.4-10-3.2-14c-4.6-4-10-7-1.6-10c-4.6-6.6-6.9-9.5,0.8-15.4
		c1.8-1.4,6.5-5.4,8.8-5.5c1.6-0.1,5.7,2.5,7,3.3c3.2,1.7,6.2,3.4,6.2,7.1c-0.1,5.6-6.2,6.5,1.4,7.2c4.3,0.4,8.4-0.4,11.8,2.9
		c3.7,3.6,1.8,5.7,0.3,9.5c5.6,0.6,6.2-1.2,11-2.8c2.8-0.9,11.6-1.6,13.4,0.4c2,2.1,1,11.5,1.2,14.3c0.2,2.6,0.2,4.8-0.1,7.4
		c-1,11.7-2.5,23.3-3.7,34.9c-0.6,5.7-1.2,11.3-1.8,17c-0.1,0.9,0.1,5.9-0.7,6.4c-2.7,1.8-18.4-2-21.7-2.3c-18.7-2-37.3-4-56-5.9
		c-114.4-12.2-228.9-24.3-343.3-36.5c-30.8-3.3-61.6-6.5-92.4-9.8C-13.8,346.5-8.6,313.7-3.4,280.9z"/>
	<path class="st2" d="M296.1,342.7c1.9,1.7,3.7,3.9,6,5.1c2.8,1.6,6.5,1.6,8.9,3.6c7.3,6-0.8,9-6.6,12.8c5.4,4.7,13,4.9,15.4,12
		c2.4,7.1-1.9,12.9-6.1,18.8c5.5-2.7,10.1-6.2,16.1-5.4c2.1,0.3,7,3.1,8.6,2.8c1.6-0.2,3.8-3.9,5.1-5.5c3.6-4.7,1.3-8.4,4.4-13.6
		c3.2-5.3,7.2-7.3,12.9-10.8c-3.9-1.2-5.7-1.4-7.8-4.2c-1.9-2.6-3.1-6-2.6-8.9c0.5-3.2,2.4-7.1,3.1-10.3c0.8-3.5,2.3-5.6,6-7.9
		c5.1-3.1,13.9-1.8,19.4,0.6c7,3.1,3.9,10.2,2.5,16.5c1.7-2.1,4.2-6.6,6.6-7.5c4-1.5,9.2,1.3,10.8,4.2c1.8,3.2,1.3,5.7-0.9,8.7
		c-3.2,4.3-4.4,2.6-9.8,1.3c2.5,4.7,7.6,9.7,5.9,15.1c-1.6,5.3-6.3,8.5-10.7,12.1c5.4,0.7,6.8,1.8,10.8,5c3-3.4,5.2-5.7,9.1-8
		c4.9-2.9,7-2.6,12.7-2.2c-3.4-4.2-6.3-8.7-6.9-14.1c-0.9-8,4-10.4,11.2-13.2c-4.3-0.7-10.1-1.2-11.8-5.7c-1.4-3.7,1.8-9.9,4.9-12.1
		c3.8-2.8,10.5-3.1,14.3-0.2c4.2,3.2,2.9,7.9,1.7,12c5.2-5.2,9.3-9,17.5-9.9c3-0.3,5.9,0.3,8.7,1.7c2.9,1.4,4.1,5.2,6.7,6.3
		c3,1.3,3.4-1.9,6.8-2.3c3.1-0.3,6.1,2,5.5,4.7c-1.3,6.5-11,6.5-16.2,7.4c2.9,3.7,2.6,4.7,1.9,9.3c9.3-4.2,20-3.5,28.8,1.2
		c5.9,3.1,9.2,7.3,14.2,11.1c3.2,2.5,10.6,2.9,13.2-1.5c2.3-3.9-4.3-6.5,0.3-11.1c1.9-1.9,14.1-6.6,17-7c4.6-0.6,12.1,0.8,12.4,5.5
		c0.3,4.3-5.8,8.2-9.1,11c1.9-0.3,4-0.9,5.9-0.8c2.3,0.1,4.7,2,6.9,1.9c3.5-0.3,4.9-4.5,7.9-6.7c7.3-5.5,16.8-7.2,25.6-9.6
		c-6.3-1.2-10.3-1.2-13.4-6.7c-2.1-3.8-2.9-8.4-1.1-12.4c2.4-5.5,9.6-4.4,12.3-8.6c0.9-1.4-1.5-4.2-0.6-5.6c0.8-1.3,6.3-2.8,7.7-3.4
		c-3.5-3.2-6.4-3.8-2.8-7.8c1.9-2.1,5.6-3.7,8.7-3.8c2.7-0.1,7.1,1.2,8.9,2.8c3.3,3,1.2,5.1-0.4,8.6c6.8-1.1,16.2-0.8,17.2,6.6
		c1.1,8.2-9.3,8.1-16.2,7.7c4.2,3,6.3,4.5,8.6,8.7c2.7,5.1,1.2,5.2-3,9.8c3.2,0.8,7.9,1.3,10.6,2.8c2.1,1.2,6.5,6.7,9.9,5.5
		c1.2-0.4,4.9-6.3,6.3-7.4c3.2-2.6,6.3-3.5,10.5-5c-4.8-4.7-6.9-8.9-3.4-15.4c2.9-5.4,7.2-8,13.2-10.3c5.2-1.9,12.9-4.9,18.5-4.3
		c7.2,0.8,10.2,6.3,14,11c-0.3-1.9-1.1-4.2-1-6.2c0.3-3.7-1.2-1.6,2-3.8c2.5-1.6,9.9-3.3,12.6-2.9c3,0.5,6,3.5,7,5.7
		c2.1,4.7-1.6,6.6-4.9,9.9c8.8-4.8,15.4-9,25.2-4.2c9.6,4.7,8.5,11.7,6.5,20.1c4.9-4.1,8.6-6.8,8.4-12.8c-0.3-6.4-6.1-5.8-9.5-10.6
		c-10.4-14.7,14.5-17.8,15.7-10.6c-0.9-5.3-1.3-10.1-6.7-12.7c-5.5-2.7-11.5-4.1-4.2-9.2c-6.1-5.2-9.1-7.4-3.3-15.1
		c1.4-1.8,4.9-6.9,7-7.6c1.6-0.5,6.1,1,7.6,1.3c3.5,0.8,6.9,1.6,7.8,5.2c1.4,5.5-4.2,7.9,3.2,6.5c4.3-0.8,8-2.6,12.2-0.3
		c4.5,2.5,3.3,5.1,2.8,9.1c5.6-0.9,5.6-2.8,9.9-5.6c2.5-1.6,10.7-4.6,13.1-3.1c2.5,1.5,4,10.8,4.9,13.5c0.9,2.5,1.4,4.6,1.9,7.1
		c2.1,11.5,3.7,23.1,5.6,34.7c0.9,5.6,1.8,11.2,2.7,16.9c0.1,0.9,1.7,5.6,1,6.4c-2.1,2.5-18.3,2.9-21.6,3.5c-18.5,3-37.1,6-55.6,8.9
		c-113.6,18.3-227.2,36.5-340.9,54.8c-30.6,4.9-61.1,9.8-91.7,14.7C303.2,408.7,299.7,375.7,296.1,342.7z"/>
	<path class="st2" d="M71.9,290c1.6,1.9,3.2,4.3,5.2,5.9c2.6,1.9,6.3,2.5,8.4,4.8c6.4,6.9-1.9,8.9-8.3,11.9
		c4.7,5.3,12.2,6.5,13.7,13.9c1.5,7.4-3.6,12.5-8.6,17.8c5.8-1.9,10.8-4.8,16.7-3.2c2.1,0.6,6.5,4,8.2,3.9c1.6,0,4.3-3.3,5.8-4.8
		c4.2-4.2,2.4-8.2,6.1-12.9c3.8-4.9,8.1-6.2,14.2-9c-3.7-1.7-5.5-2.1-7.1-5.2c-1.5-2.8-2.2-6.4-1.4-9.1c0.9-3.1,3.3-6.7,4.5-9.8
		c1.3-3.4,3-5.3,7-7c5.4-2.4,14,0,19.2,3.2c6.6,4,2.5,10.6,0.3,16.7c1.9-1.8,5-6,7.6-6.6c4.1-1,8.9,2.5,10.2,5.6
		c1.3,3.4,0.5,5.9-2,8.5c-3.7,3.8-4.7,2-9.9,0c1.9,5,6.3,10.6,3.9,15.8c-2.3,5-7.3,7.6-12.2,10.6c5.2,1.4,6.5,2.7,10.1,6.4
		c3.5-2.9,5.9-5,10.1-6.8c5.3-2.2,7.3-1.7,12.9-0.5c-2.8-4.6-5.1-9.5-5-14.8c0.2-8,5.4-9.8,12.9-11.6c-4.2-1.3-9.8-2.5-10.9-7.2
		c-0.9-3.9,3.1-9.5,6.4-11.4c4.1-2.3,10.8-1.7,14.2,1.7c3.8,3.8,1.8,8.2,0.1,12.2c5.9-4.5,10.4-7.7,18.7-7.5c3,0.1,5.8,1.1,8.4,2.8
		c2.7,1.8,3.4,5.7,5.9,7.2c2.8,1.7,3.6-1.5,7.1-1.4c3.1,0.1,5.8,2.8,4.9,5.4c-2.2,6.3-11.8,5-17.1,5.2c2.4,4.1,1.9,5,0.7,9.5
		c9.8-3,20.3-0.8,28.4,5c5.5,3.9,8.1,8.5,12.6,12.9c2.9,2.9,10.1,4.3,13.3,0.3c2.8-3.5-3.4-7,1.8-10.9c2.2-1.6,14.8-4.7,17.8-4.7
		c4.6,0,11.9,2.4,11.6,7.1c-0.3,4.3-6.8,7.3-10.5,9.7c2-0.1,4.1-0.3,5.9,0c2.2,0.4,4.4,2.6,6.6,2.8c3.5,0.2,5.5-3.8,8.7-5.6
		c8-4.5,17.7-4.9,26.6-6.2c-6.1-2-10.1-2.6-12.4-8.4c-1.6-4.1-1.7-8.7,0.5-12.5c3.1-5.2,10.1-3.1,13.3-6.9c1.1-1.3-0.9-4.4,0.2-5.6
		c1-1.2,6.6-1.9,8.1-2.4c-3-3.7-5.8-4.6-1.7-8.1c2.2-1.9,6-2.9,9.1-2.6c2.7,0.3,6.9,2.2,8.4,3.9c2.9,3.4,0.5,5.2-1.6,8.5
		c6.9-0.2,16.2,1.4,16.1,8.8c0,8.3-10.3,6.8-17.1,5.5c3.7,3.5,5.7,5.3,7.4,9.8c2,5.4,0.5,5.3-4.3,9.4c3,1.2,7.7,2.3,10.2,4.2
		c2,1.5,5.6,7.5,9.1,6.7c1.2-0.3,5.7-5.6,7.2-6.5c3.6-2.2,6.7-2.7,11-3.5c-4.2-5.3-5.6-9.7-1.3-15.7c3.6-5,8.2-7,14.4-8.4
		c5.4-1.2,13.4-3.2,18.9-1.8c7,1.8,9.3,7.6,12.4,12.7c-0.1-1.9-0.6-4.3-0.2-6.2c0.8-3.6-1-1.8,2.5-3.5c2.7-1.3,10.3-2,12.9-1.2
		c2.9,0.9,5.5,4.2,6.2,6.6c1.5,4.9-2.4,6.4-6.2,9.2c9.3-3.6,16.4-6.9,25.6-0.8c8.9,5.9,6.9,12.8,3.8,20.8c5.4-3.4,9.4-5.6,10-11.6
		c0.6-6.4-5.3-6.5-8.1-11.8c-8.3-16,16.8-15.8,17-8.4c-0.1-5.4,0-10.1-5-13.5c-5.1-3.4-10.9-5.6-3-9.7c-5.4-5.9-8.1-8.5-1.3-15.4
		c1.6-1.6,5.7-6.2,8-6.6c1.6-0.3,5.9,1.8,7.4,2.3c3.4,1.3,6.6,2.5,7,6.2c0.6,5.6-5.3,7.3,2.3,6.9c4.3-0.2,8.3-1.5,12.1,1.3
		c4.1,3,2.6,5.4,1.5,9.4c5.7-0.2,5.9-2,10.6-4.2c2.7-1.3,11.2-3.1,13.4-1.4c2.2,1.8,2.5,11.3,3.1,14c0.5,2.6,0.8,4.7,0.9,7.3
		c0.5,11.7,0.6,23.4,0.9,35.1c0.2,5.7,0.3,11.4,0.5,17.1c0,0.9,0.9,5.8,0.1,6.5c-2.4,2.2-18.5,0.5-21.8,0.6
		c-18.8,0.5-37.5,1-56.3,1.5c-115,3.1-230.1,6.2-345.1,9.2c-30.9,0.8-61.9,1.7-92.8,2.5C70.2,356.4,71.1,323.2,71.9,290z"/>
	<rect x="-0.2" y="370.4" class="st2" width="721.3" height="295.7"/>
</g>
</svg>
