<?xml version="1.0" encoding="utf-8"?>
<!-- Generator: Adobe Illustrator 21.0.2, SVG Export Plug-In . SVG Version: 6.00 Build 0)  -->
<svg version="1.1" id="Layer_1" xmlns="http://www.w3.org/2000/svg" xmlns:xlink="http://www.w3.org/1999/xlink" x="0px" y="0px"
	 viewBox="0 0 360 360" style="enable-background:new 0 0 360 360;" xml:space="preserve">
<style type="text/css">
	.st0{fill:#EFDDDB;}
	.st1{fill:#F7EEEE;}
	.st2{fill:#EFDDDD;}
	.st3{fill:#3CA1BC;}
	.st4{fill:#B4E2ED;}
	.st5{fill:#88C7DE;}
	.st6{fill:#4586C6;}
	.st7{fill:#F89A1C;}
	.st8{fill:#FDC37C;}
	.st9{fill:#F47521;}
	.st10{fill:#FDC110;}
	.st11{fill:#F4E890;}
	.st12{fill:#BFB57C;}
	.st13{fill:#C1C0C6;}
	.st14{fill:#9E9FAB;}
	.st15{fill:#77AB59;}
	.st16{fill:#405134;}
	.st17{fill:#3A813E;}
	.st18{fill:#BFCAE7;}
	.st19{fill:#657093;}
	.st20{fill:#EFE1EF;}
	.st21{fill:#8F9CCF;}
	.st22{fill:#8A6D48;}
	.st23{fill:#CCB49A;}
	.st24{fill:#463924;}
	.st25{fill:#7BCBBA;}
	.st26{fill:#45AF73;}
	.st27{fill:#C1E4D8;}
	.st28{fill:#F6F2F2;}
	.st29{fill:#FFFFFF;}
</style>
<g>
	<path class="st0" d="M179.9,3.8C82.6,3.8,3.7,82.7,3.7,180s78.9,176.2,176.2,176.2c97.3,0,176.2-78.9,176.2-176.2
		S277.2,3.8,179.9,3.8z M180.4,342.8c-89.5,0-162-72.5-162-162s72.5-162,162-162c89.5,0,162,72.5,162,162S269.9,342.8,180.4,342.8z"
		/>
	<g>
		<path class="st0" d="M73.5,85.6c5.3,3.9,6.8,11.1,3.6,16.7c7.5-9.9,16.4-18.8,26.5-26.1C98,79.2,90.9,77.7,87,72.4
			c-3.9-5.4-3-12.8,1.9-17.2c-12.3,9-23.3,19.8-32.4,32.1C60.8,82.5,68.2,81.7,73.5,85.6z"/>
		<path class="st0" d="M49.6,123c6.2,2,9.8,8.3,8.6,14.5c4.1-11.8,9.9-22.9,17-32.8c-4.4,4.7-11.6,5.5-16.9,1.6
			c-5.4-3.9-6.8-11.2-3.6-16.8c-8.9,12.4-16.1,26.1-21.1,40.9C36.3,124.2,43.2,120.9,49.6,123z"/>
		<path class="st0" d="M321.7,192.9c-7.1,0-12.8-5.7-12.8-12.8c0-7.1,5.7-12.8,12.8-12.8c6,0,11.1,4.2,12.5,9.8
			C332.7,93.1,264.2,25.5,180,25.5c-33.2,0-63.9,10.5-89.1,28.3c5.6-3.3,12.9-1.9,16.9,3.5c3.9,5.3,3,12.6-1.7,17
			c10-7,21.1-12.7,33-16.6c-6.2,1.1-12.4-2.5-14.4-8.7c-2.2-6.7,1.5-14,8.2-16.2c6.7-2.2,14,1.5,16.2,8.2c2,6.2-0.9,12.8-6.7,15.5
			c11.6-3.5,23.9-5.4,36.6-5.5c-6.3-0.8-11.3-6.2-11.3-12.7c0-7.1,5.7-12.8,12.8-12.8c7.1,0,12.8,5.7,12.8,12.8
			c0,6.6-5,12-11.4,12.7c12.7,0.2,25,2.3,36.5,5.9c-5.6-2.8-8.5-9.3-6.5-15.5c2.2-6.7,9.4-10.4,16.2-8.2c6.7,2.2,10.4,9.4,8.2,16.2
			c-2,6.2-8.3,9.8-14.5,8.6c11.8,4.1,22.9,9.9,32.8,17c-4.7-4.4-5.5-11.6-1.6-16.9c4.2-5.7,12.2-7,17.9-2.8c5.7,4.2,7,12.2,2.8,17.9
			c-3.9,5.3-11.1,6.8-16.7,3.6c9.9,7.5,18.8,16.4,26.1,26.5c-3.1-5.6-1.6-12.7,3.7-16.6c5.7-4.2,13.8-2.9,17.9,2.8
			c4.2,5.7,2.9,13.8-2.8,17.9c-5.3,3.9-12.6,3-17-1.7c7,10,12.7,21.1,16.6,33c-1.1-6.2,2.5-12.4,8.7-14.4c6.7-2.2,14,1.5,16.2,8.2
			c2.2,6.7-1.5,14-8.2,16.2c-6.2,2-12.8-0.9-15.5-6.7c3.6,11.8,5.5,24.4,5.5,37.4c0,13.5-2.1,26.5-5.9,38.7
			c2.8-5.6,9.3-8.5,15.5-6.5c6.7,2.2,10.4,9.4,8.2,16.2c-2.2,6.7-9.4,10.4-16.2,8.2c-6.2-2-9.8-8.3-8.6-14.5
			c-4.1,11.8-9.9,22.9-17,32.8c4.4-4.7,11.6-5.5,16.9-1.6c5.7,4.2,7,12.2,2.8,17.9c-4.2,5.7-12.2,7-17.9,2.8
			c-5.3-3.9-6.8-11.1-3.6-16.7c-7.5,9.9-16.4,18.8-26.4,26.1c5.6-3.1,12.7-1.6,16.6,3.7c4.2,5.7,2.9,13.8-2.8,17.9
			s-13.8,2.9-17.9-2.8c-3.9-5.3-3-12.6,1.7-17c-10,7-21.1,12.7-33,16.6c6.2-1.1,12.4,2.5,14.4,8.7c2.2,6.7-1.5,14-8.2,16.2
			s-14-1.5-16.2-8.2c-2-6.2,0.9-12.8,6.7-15.5c-11.8,3.6-24.4,5.5-37.4,5.5c-13.5,0-26.5-2.1-38.7-5.9c5.6,2.8,8.5,9.3,6.5,15.5
			c-2.2,6.7-9.4,10.4-16.2,8.2c-6.7-2.2-10.4-9.4-8.2-16.2c2-6.2,8.3-9.8,14.5-8.6c-11.8-4.1-22.9-9.9-32.8-17
			c4.7,4.4,5.5,11.6,1.6,16.9c-4.2,5.7-12.2,7-17.9,2.8c-5.7-4.2-7-12.2-2.8-17.9c3.9-5.3,11.1-6.8,16.7-3.6
			c-9.9-7.5-18.8-16.4-26.1-26.4c3.1,5.6,1.6,12.7-3.7,16.6c-5.7,4.2-13.8,2.9-17.9-2.8c-4.2-5.7-2.9-13.8,2.8-17.9
			c5.3-3.9,12.6-3,17,1.7c-7-10-12.7-21.1-16.6-33c1.1,6.2-2.5,12.4-8.7,14.4c-6.7,2.2-14-1.5-16.2-8.2c-2.2-6.7,1.5-14,8.2-16.2
			c6.2-2,12.8,0.9,15.5,6.7c-3.3-10.9-5.2-22.4-5.5-34.3c-1.4,5.5-6.5,9.6-12.4,9.6c-7.1,0-12.8-5.7-12.8-12.8
			c0-7.1,5.7-12.8,12.8-12.8c6,0,11,4.1,12.4,9.6c0.3-12.3,2.4-24.1,5.9-35.3c-2.8,5.6-9.3,8.5-15.5,6.5c-6.5-2.1-10.1-8.8-8.5-15.3
			c-4.9,15-7.5,31-7.5,47.7c0,84.8,68.5,153.6,153.2,154.2c-6.6-0.6-11.7-6.1-11.7-12.8c0-7.1,5.7-12.8,12.8-12.8
			s12.8,5.7,12.8,12.8c0,6.7-5.1,12.2-11.7,12.8c83.5-0.6,151.2-67.6,153-150.8C332.8,188.7,327.7,192.9,321.7,192.9z"/>
	</g>
	<path class="st0" d="M179.7,58c-67.4,0-122,54.6-122,122s54.6,122,122,122s122-54.6,122-122S247.1,58,179.7,58z M295.3,200.5
		c-2.7,0.4-5.3-1.4-5.7-4.2c0-0.2,0-0.4-0.1-0.6c-0.8,5.2-1.9,10.3-3.3,15.3c0.8-1.6,2.5-2.7,4.4-2.7c2.8,0,5,2.2,5,5
		c0,2.8-2.2,5-5,5s-5-2.2-5-5c0-0.2,0-0.3,0-0.5c-1.6,5-3.5,9.8-5.7,14.5c1.1-1.4,2.9-2.3,4.8-2c2.7,0.4,4.6,3,4.2,5.7
		c-0.4,2.7-3,4.6-5.7,4.2c-2.7-0.4-4.6-3-4.2-5.7c0-0.2,0.1-0.3,0.1-0.5c-2.3,4.7-5,9.2-7.9,13.5c1.3-1.3,3.2-1.9,5.1-1.2
		c2.6,0.9,4.1,3.7,3.2,6.3c-0.9,2.6-3.7,4.1-6.3,3.2c-2.6-0.9-4.1-3.7-3.2-6.3c0.1-0.2,0.1-0.4,0.2-0.5c-3.1,4.3-6.4,8.4-10,12.2
		c1.5-1.1,3.5-1.4,5.3-0.5c2.5,1.3,3.4,4.3,2.2,6.7c-1.3,2.5-4.3,3.4-6.7,2.2c-2.5-1.3-3.4-4.3-2.2-6.7c0.1-0.2,0.2-0.4,0.4-0.6
		c-3.7,3.8-7.7,7.3-11.9,10.6c1.6-0.9,3.7-0.8,5.3,0.4c2.2,1.6,2.7,4.8,1.1,7c-1.6,2.2-4.8,2.7-7,1.1c-2.2-1.6-2.7-4.8-1.1-7
		c0.1-0.2,0.2-0.3,0.4-0.5c-4.2,3.1-8.6,6-13.2,8.5c1.7-0.5,3.7-0.1,5,1.2c2,2,2,5.1,0,7.1c-2,2-5.1,2-7.1,0c-2-2-2-5.1,0-7.1
		c0.1-0.1,0.3-0.2,0.4-0.4c-4.6,2.4-9.3,4.5-14.3,6.3c1.8-0.2,3.6,0.5,4.7,2c1.6,2.2,1.1,5.4-1.1,7c-2.2,1.6-5.4,1.1-7-1.1
		c-1.6-2.2-1.1-5.4,1.1-7c0.1-0.1,0.3-0.2,0.4-0.3c-4.9,1.6-9.9,3-15.1,3.9c1.8,0,3.6,1,4.4,2.7c1.3,2.5,0.3,5.5-2.2,6.7
		c-2.5,1.3-5.5,0.3-6.7-2.2c-1.3-2.5-0.3-5.5,2.2-6.7c0.2-0.1,0.3-0.2,0.5-0.2c-5.1,0.9-10.4,1.4-15.7,1.5c1.8,0.3,3.4,1.5,4,3.4
		c0.9,2.6-0.6,5.4-3.2,6.3c-2.6,0.9-5.4-0.6-6.3-3.2c-0.9-2.6,0.6-5.4,3.2-6.3c0.2-0.1,0.4-0.1,0.7-0.2c-0.5,0-1,0-1.5,0
		c-4.8,0-9.6-0.3-14.3-0.9c1.7,0.6,3.1,2.1,3.4,4c0.4,2.7-1.4,5.3-4.2,5.7c-2.7,0.4-5.3-1.4-5.7-4.2c-0.4-2.7,1.4-5.3,4.2-5.7
		c0.2,0,0.4,0,0.6-0.1c-5.2-0.8-10.3-1.9-15.3-3.3c1.6,0.8,2.7,2.5,2.7,4.4c0,2.8-2.2,5-5,5c-2.8,0-5-2.2-5-5s2.2-5,5-5
		c0.2,0,0.3,0,0.5,0c-5-1.6-9.8-3.5-14.5-5.7c1.4,1.1,2.3,2.9,2,4.8c-0.4,2.7-3,4.6-5.7,4.2c-2.7-0.4-4.6-3-4.2-5.7
		c0.4-2.7,3-4.6,5.7-4.2c0.2,0,0.3,0.1,0.5,0.1c-4.7-2.3-9.2-5-13.5-7.9c1.3,1.3,1.9,3.2,1.2,5.1c-0.9,2.6-3.7,4.1-6.3,3.2
		c-2.6-0.9-4.1-3.7-3.2-6.3c0.9-2.6,3.7-4.1,6.3-3.2c0.2,0.1,0.4,0.1,0.5,0.2c-4.3-3.1-8.4-6.4-12.2-10c1.1,1.5,1.4,3.5,0.5,5.3
		c-1.3,2.5-4.3,3.4-6.7,2.2c-2.5-1.3-3.4-4.3-2.2-6.7c1.3-2.5,4.3-3.4,6.7-2.2c0.2,0.1,0.4,0.2,0.6,0.4c-3.8-3.7-7.3-7.7-10.6-11.9
		c0.9,1.6,0.8,3.7-0.4,5.3c-1.6,2.2-4.8,2.7-7,1.1c-2.2-1.6-2.7-4.8-1.1-7c1.6-2.2,4.8-2.7,7-1.1c0.2,0.1,0.3,0.2,0.5,0.4
		c-3.1-4.2-6-8.6-8.5-13.2c0.5,1.7,0.1,3.7-1.2,5c-2,2-5.1,2-7.1,0c-2-2-2-5.1,0-7.1c2-2,5.1-2,7.1,0c0.1,0.1,0.2,0.3,0.4,0.4
		c-2.4-4.6-4.5-9.3-6.3-14.3c0.2,1.8-0.5,3.6-2,4.7c-2.2,1.6-5.4,1.1-7-1.1c-1.6-2.2-1.1-5.4,1.1-7c2.2-1.6,5.4-1.1,7,1.1
		c0.1,0.1,0.2,0.3,0.3,0.4c-1.6-4.9-3-9.9-3.9-15.1c0,1.8-1,3.6-2.7,4.4c-2.5,1.3-5.5,0.3-6.7-2.2c-1.3-2.5-0.3-5.5,2.2-6.7
		c2.5-1.3,5.5-0.3,6.7,2.2c0.1,0.2,0.2,0.3,0.2,0.5c-0.9-5.1-1.4-10.4-1.5-15.7c-0.3,1.8-1.5,3.4-3.4,4c-2.6,0.9-5.4-0.6-6.3-3.2
		c-0.9-2.6,0.6-5.4,3.2-6.3c2.6-0.9,5.4,0.6,6.3,3.2c0.1,0.2,0.1,0.4,0.2,0.7c0-0.5,0-1,0-1.5c0-4.8,0.3-9.6,0.9-14.3
		c-0.6,1.7-2.1,3.1-4,3.4c-2.7,0.4-5.3-1.4-5.7-4.2c-0.4-2.7,1.4-5.3,4.2-5.7c2.7-0.4,5.3,1.4,5.7,4.2c0,0.2,0,0.4,0.1,0.6
		c0.8-5.2,1.9-10.3,3.3-15.3c-0.8,1.6-2.5,2.7-4.4,2.7c-2.8,0-5-2.2-5-5c0-2.8,2.2-5,5-5c2.8,0,5,2.2,5,5c0,0.2,0,0.3,0,0.5
		c1.6-5,3.5-9.8,5.7-14.5c-1.1,1.4-2.9,2.3-4.8,2c-2.7-0.4-4.6-3-4.2-5.7c0.4-2.7,3-4.6,5.7-4.2c2.7,0.4,4.6,3,4.2,5.7
		c0,0.2-0.1,0.3-0.1,0.5c2.3-4.7,5-9.2,7.9-13.5c-1.3,1.3-3.2,1.9-5.1,1.2c-2.6-0.9-4.1-3.7-3.2-6.3c0.9-2.6,3.7-4.1,6.3-3.2
		c2.6,0.9,4.1,3.7,3.2,6.3c-0.1,0.2-0.1,0.4-0.2,0.5c3.1-4.3,6.4-8.4,10-12.2c-1.5,1.1-3.5,1.4-5.3,0.5c-2.5-1.3-3.4-4.3-2.2-6.7
		c1.3-2.5,4.3-3.4,6.7-2.2c2.5,1.3,3.4,4.3,2.2,6.7c-0.1,0.2-0.2,0.4-0.4,0.6c3.7-3.8,7.7-7.3,11.9-10.6c-1.6,0.9-3.7,0.8-5.3-0.4
		c-2.2-1.6-2.7-4.8-1.1-7c1.6-2.2,4.8-2.7,7-1.1c2.2,1.6,2.7,4.8,1.1,7c-0.1,0.2-0.2,0.3-0.4,0.5c4.2-3.1,8.6-6,13.2-8.5
		c-1.7,0.5-3.7,0.1-5-1.2c-2-2-2-5.1,0-7.1s5.1-2,7.1,0c2,2,2,5.1,0,7.1c-0.1,0.1-0.3,0.2-0.4,0.4c4.6-2.4,9.3-4.5,14.3-6.3
		c-1.8,0.2-3.6-0.5-4.7-2c-1.6-2.2-1.1-5.4,1.1-7c2.2-1.6,5.4-1.1,7,1.1c1.6,2.2,1.1,5.4-1.1,7c-0.1,0.1-0.3,0.2-0.4,0.3
		c4.9-1.6,9.9-3,15.1-3.9c-1.8,0-3.6-1-4.4-2.7c-1.3-2.5-0.3-5.5,2.2-6.7c2.5-1.3,5.5-0.3,6.7,2.2c1.3,2.5,0.3,5.5-2.2,6.7
		c-0.2,0.1-0.3,0.2-0.5,0.2c5.1-0.9,10.4-1.4,15.7-1.5c-1.8-0.3-3.4-1.5-4-3.4c-0.9-2.6,0.6-5.4,3.2-6.3c2.6-0.9,5.4,0.6,6.3,3.2
		c0.9,2.6-0.6,5.4-3.2,6.3c-0.2,0.1-0.4,0.1-0.7,0.2c0.5,0,1,0,1.5,0c4.8,0,9.6,0.3,14.3,0.9c-1.7-0.6-3.1-2.1-3.4-4
		c-0.4-2.7,1.4-5.3,4.2-5.7c2.7-0.4,5.3,1.4,5.7,4.2c0.4,2.7-1.4,5.3-4.2,5.7c-0.2,0-0.4,0-0.6,0.1c5.2,0.8,10.3,1.9,15.3,3.3
		c-1.6-0.8-2.7-2.5-2.7-4.4c0-2.8,2.2-5,5-5c2.8,0,5,2.2,5,5c0,2.8-2.2,5-5,5c-0.2,0-0.3,0-0.5,0c5,1.6,9.8,3.5,14.5,5.7
		c-1.4-1.1-2.3-2.9-2-4.8c0.4-2.7,3-4.6,5.7-4.2c2.7,0.4,4.6,3,4.2,5.7s-3,4.6-5.7,4.2c-0.2,0-0.3-0.1-0.5-0.1
		c4.7,2.3,9.2,5,13.5,7.9c-1.3-1.3-1.9-3.2-1.2-5.1c0.9-2.6,3.7-4.1,6.3-3.2c2.6,0.9,4.1,3.7,3.2,6.3c-0.9,2.6-3.7,4.1-6.3,3.2
		c-0.2-0.1-0.4-0.1-0.5-0.2c4.3,3.1,8.4,6.4,12.2,10c-1.1-1.5-1.4-3.5-0.5-5.3c1.3-2.5,4.3-3.4,6.7-2.2c2.5,1.3,3.4,4.3,2.2,6.7
		c-1.3,2.5-4.3,3.4-6.7,2.2c-0.2-0.1-0.4-0.2-0.6-0.4c3.8,3.7,7.3,7.7,10.6,11.9c-0.9-1.6-0.8-3.7,0.4-5.3c1.6-2.2,4.8-2.7,7-1.1
		c2.2,1.6,2.7,4.8,1.1,7c-1.6,2.2-4.8,2.7-7,1.1c-0.2-0.1-0.3-0.2-0.5-0.4c3.1,4.2,6,8.6,8.5,13.2c-0.5-1.7-0.1-3.7,1.2-5
		c2-2,5.1-2,7.1,0c2,2,2,5.1,0,7.1c-2,2-5.1,2-7.1,0c-0.1-0.1-0.2-0.3-0.4-0.4c2.4,4.6,4.5,9.3,6.3,14.3c-0.2-1.8,0.5-3.6,2-4.7
		c2.2-1.6,5.4-1.1,7,1.1c1.6,2.2,1.1,5.4-1.1,7c-2.2,1.6-5.4,1.1-7-1.1c-0.1-0.1-0.2-0.3-0.3-0.4c1.6,4.9,3,9.9,3.9,15.1
		c0-1.8,1-3.6,2.7-4.4c2.5-1.3,5.5-0.3,6.7,2.2c1.3,2.5,0.3,5.5-2.2,6.7c-2.5,1.3-5.5,0.3-6.7-2.2c-0.1-0.2-0.2-0.3-0.2-0.5
		c0.9,5.1,1.4,10.4,1.5,15.7c0.3-1.8,1.5-3.4,3.4-4c2.6-0.9,5.4,0.6,6.3,3.2c0.9,2.6-0.6,5.4-3.2,6.3c-2.6,0.9-5.4-0.6-6.3-3.2
		c-0.1-0.2-0.1-0.4-0.2-0.7c0,0.5,0,1,0,1.5c0,4.8-0.3,9.6-0.9,14.3c0.6-1.7,2.1-3.1,4-3.4c2.7-0.4,5.3,1.4,5.7,4.2
		C299.9,197.5,298.1,200,295.3,200.5z"/>
	<path class="st0" d="M180,74c-58.4,0-105.8,47.4-105.8,105.8S121.6,285.5,180,285.5s105.8-47.4,105.8-105.8S238.4,74,180,74z
		 M180,282.8c-56.9,0-103-46.1-103-103s46.1-103,103-103s103,46.1,103,103S236.9,282.8,180,282.8z"/>
	<path class="st0" d="M180.3,80.2c-55.1,0-99.8,44.7-99.8,99.8s44.7,99.8,99.8,99.8s99.8-44.7,99.8-99.8S235.4,80.2,180.3,80.2z
		 M180.3,277.2c-53.7,0-97.2-43.5-97.2-97.2s43.5-97.2,97.2-97.2s97.2,43.5,97.2,97.2S234,277.2,180.3,277.2z"/>
</g>
<g>
	<circle class="st1" cx="180.1" cy="179.7" r="108.1"/>
	<circle class="st2" cx="179.9" cy="176.5" r="27.9"/>
	<circle class="st3" cx="178.7" cy="106.8" r="24.1"/>
	<circle class="st4" cx="178.7" cy="107" r="22.3"/>
	<path class="st5" d="M189.7,101.8c0.4,0.9-0.3,1.9-1.1,1.2C187.9,102.3,188.9,101.6,189.7,101.8z"/>
	<path class="st5" d="M190.4,100.4c-0.4,0-0.7,0-1,0.2c0.4,0.2,0.7,1.2,0.8,1.2C190.8,101.4,191.3,100.6,190.4,100.4z"/>
	<path class="st5" d="M189.4,97.4c-0.5,0.1-1.1,1-0.8,1.5c0.2,0.5,0.8,0.1,1.2,0.3c0-0.4,0.4-1.2,0.3-1.6
		C189.9,97.3,189.9,97.3,189.4,97.4z"/>
	<path class="st3" d="M177.4,118.2c-1.8,1.2-3,1.9-5.1,1.4c-1.9-0.4-4.3-0.2-6-1.2c-1.5-0.8-2.8-3.7-2.6-5.7
		c0.1-0.9,0.7-1.6,0.9-2.5c0.2-1.1-0.1-2.1,0-3.2c0.2-2.4,1.8-3.4,3.5-4.9c1.3-1.1,3-3.6,4.6-3.6c1.7,0,3.4,1.2,5.2,0
		c1.5-1,2.4-3.9,4.3-4.2c1.8-0.3,2,1.3,2.1,2.8c0.1,1.2,0.7,2.5,0.7,3.7c0,1.9-1.6,1.2-2.3,2.6c-0.7,1.3,0.2,1.7,1.4,1
		c1.6-0.5,0.9,1.2,0.9,1.5c0,0.7,0.6,1.1,0.5,1.9c0,0.6-0.8,1.4-0.8,1.7c0,0.3-1.2,0.6-1.5,1.1c-0.5,0.7-0.5,0.3-0.6,1.1
		c-0.1,1,0.6,0.6,0.5,0.3c0.2,0.9,0.1,1.6,0.8,2.3c0.6,0.6,1.9,0.2,1.6,1.5c-0.1,0.5-1.4,0.7-1.6,1.3c-0.4,1,0.8,1.1-0.2,2.4
		c-1.2-0.9-1.6-1.1-2.9-0.9C179.2,118.6,178.9,119.3,177.4,118.2z"/>
	<path class="st3" d="M189.5,97.5c-0.5,0.1-1.1,1-0.8,1.5c0.2,0.5,0.8,0.1,1.2,0.3c0-0.4,0.4-1.2,0.3-1.6
		C190,97.4,190,97.4,189.5,97.5z"/>
	<path class="st3" d="M190.3,100.4c-0.3,0-0.6,0-0.9,0.1c0.3,0.1,0.6,1.1,0.7,1C190.6,101.3,191,100.6,190.3,100.4z"/>
	<path class="st3" d="M189.7,102c0.3,0.8-0.3,1.8-1,1.1C188.1,102.4,189,101.8,189.7,102z"/>
	<path class="st5" d="M176.9,116.5c0-0.4,0-0.8,0-1.1c0.9,0.5,1.8,1.1,2.8,1.3c0.4,0.1,1.1,0.4,1.5,0.3c0.9-0.3,1.6-1.1,2.4-1.6
		c-0.3-0.3-0.8-0.6-1.1-1c-0.4-0.6-0.2-1.6-0.6-2.2c-0.3-0.5-0.9-0.6-1.1-1.2c-0.1-0.3,0.1-0.6,0.2-0.8c0.2-0.3,0.3-0.6,0.5-0.9
		c0.1-0.1,0.5-0.3,0.4-0.3c0.2-0.6-1-1.3-0.7-1.7c0,0,0,0.1,0,0.1c0.3-0.8,0.7-1.4,0.3-2.3c-0.3-0.6-0.4-1-0.3-1.7
		c0.1-0.4,0.1-0.8,0.2-1.2c0.1-0.7,0.7-1.9,0.5-2.5c-0.2-0.5-1.2-1-1.6-0.6c-0.3,0.4-0.2,0.5-0.6,0.7c-0.4,0.2-0.9,0.7-1.1,0.2
		c-0.1-0.4-0.2-0.8-0.3-1.1c-0.3,0.6-0.8,0.7-1.3,0.7c-0.7,0.1-1.2,0.5-1.7-0.1c-0.4-0.6-0.9-0.3-1.5-0.5c-0.4-0.2-0.4-0.3-0.9-0.2
		c-1.4,0.5-2.7,1.3-4,2c0.3-0.5,0.5-1.1,0.8-1.5c0.2-0.2,0.4-0.3,0.6-0.5c0.3-0.3,0.6-0.8,1-1c0.1,0,0.1-0.1,0.2-0.2
		c0.1,0,0.3,0.2,0.5,0.1c0.2,0,0.4-0.2,0.6-0.3c0.2,0,0.4,0.1,0.5,0.1c0.2,0.1,0.5,0.2,0.7,0.3c0.2,0.1,0.3,0.1,0.5,0.2
		c0,0,0.3,0.1,0.2,0.1c0.3,0,0.9-0.5,1-0.8c0.4-0.5,0.5-0.9,1-1.3c0.5-0.4,0.4-0.2,0.9,0c0.3,0.1,0.4-0.1,0.7-0.3
		c0.3-0.2,0.6-0.4,0.7-0.8c0-0.3-0.1-0.4,0.1-0.6c0.2-0.3,0.9-0.5,1.3-0.7c0.3-0.2,0.2-0.1,0.6-0.1c0.4,0.1,0.8-0.1,1.1-0.1
		c0.4,0,0.7,0,1.1,0c0.5,0,1.1,0.3,1.3,0.7c0.2,0.6-0.3,1.3-0.1,1.8c0.1,0.1,0.3,0.3,0.4,0.4c0.1,0.1,0.1,0.2,0.1,0.3
		c0.2,0.2,0.6,0.3,0.7,0.6c0.2,0.5-0.5,1.4-0.6,1.9c0,0.5,0.3,0.9,0.5,1.2c0.4,0.8-0.2,1.3-0.8,1.8c-0.3,0.3-0.8,0.5-1.1,0.9
		c-0.2,0.2-0.3,0.6-0.5,0.8c0.5-0.1,1.1-0.2,1.5-0.4c0.2-0.1,0.7-0.4,0.8-0.4c0.3,0.1,0.3,0.9,0.4,1.1c0,0,0-0.1,0-0.1
		c0,0.3-0.3,0.4-0.4,0.7c-0.1,0.3-0.1,0.2,0.1,0.5c0.3,0.4,0.1,0.5,0.2,0.9c0,0.3,0.2,0.2,0.3,0.3c0.3,0.3-0.5,0.5-0.6,0.6
		c-0.4,0.3-0.1,0.4,0.1,0.7c0,0.1,0-0.1,0.1,0c0.1,0.1-0.1,0.7-0.1,0.8c0,0.2,0.1,0.9-0.3,0.9c0,0,0,0,0,0c-0.4,0.2-0.8,0.3-1.1,0.5
		c-0.3,0.3-0.7,0.6-1,0.9c0,0-0.6,0.6-0.6,0.5c0,0.3,0.9,0.5,1,0.8c0.1,0.2,0,0.5,0.1,0.8c0.1,0.2,0.2,0.5,0.4,0.6
		c0.2,0.1,0.2,0,0.4,0c0.7,0.1,0.7,0.8,1.2,1c0.3,0.1,0.4-0.1,0.5,0.4c0.1,0.3,0.2,0.7,0.1,1c0,0.5-0.3,1-0.8,0.7
		c-0.2-0.1-0.3-0.4-0.6-0.2c-0.4,0.2-0.2,1-0.2,1.3c0,0.2,0.2,0.9,0.1,1.1c-0.1,0.1-0.6,0.7-0.8,0.7c-0.2,0-0.2-0.5-0.3-0.6
		c-0.3-0.1-0.7,0.4-1,0.4c-0.4,0.1-0.7,0-1.1,0.1c-0.5,0.2-0.4,0.4-0.9,0.2c-0.2-0.1-0.5-0.1-0.7-0.3c-0.1-0.1-0.2-0.2-0.3-0.2
		c-0.3-0.1-0.5,0.1-0.7,0.2c-0.4,0.1-1-0.2-1.3-0.4c-0.4-0.2-0.5-0.3-0.9-0.1c-1,0.3-2,0.6-3.1,0.9c-0.9,0.2-1.9-0.2-2.8-0.3
		c-0.7,0-1.3,0.1-2,0c-0.5-0.1-1.1-0.3-1.6-0.5c-1-0.3-1.7-1.2-2.5-1.9c1.1,0.2,2.2,0.5,3.4,0.7c1.1,0.2,2.3,0.5,3.4-0.2
		c0.6-0.3,0.8-1.2,1-1.8c0.2-0.8,1.1-1.4,1.2-2.2c0-0.2,0-0.4,0-0.6c0-0.6,0.2-1.2,0-1.8c-0.3-0.6-1-1.3-1.6-1.4
		c-0.3,0-0.8-0.1-1.1,0c-0.5,0.2-0.7,0.6-1,1c-0.1,0.2-0.3,0.3-0.3,0.5c0,0.3,0.3,0.7,0.5,0.9c0.3,0.5,0.8,0.5,1.4,0.4
		c0.4-0.1,0.9-0.5,1.3-0.1c0.2,0.2,0.2,0.6,0.3,0.9c-0.5,0-1,0-1.6,0.1c-0.3,0-0.7,0.2-1,0.1c-0.2,0-0.4,0-0.6,0
		c-0.2,0-0.4,0-0.6-0.1c-0.6-0.2-0.9-0.5-1.4-1c-0.5-0.5-0.5-1-0.2-1.6c0.2-0.4,0.5-0.6,0.8-0.9c0.3-0.3,0.6-0.7,1-1
		c0.3-0.2,0.8,0,1-0.3c0.1-0.2,0.1-0.8,0.2-1c0-0.2,0.1-0.6,0.2-0.7c0.2-0.2,0.7-0.2,0.9-0.3c0.2-0.1,0.4-0.1,0.6-0.2
		c0.6-0.2,0.7,0,1.2,0.3c0.8,0.5,2.1,0.6,2.9,0.2c0.3-0.1,0.8-0.5,1-0.4c0.2,0.1,0.5,0.7,0.6,0.9c-0.4,0-0.7,0.1-1.1,0.1
		c-0.6,0-0.8,0.1-1.2,0.7c-0.3,0.4-0.5,0.8-1,1c-0.2,0.1-0.5,0-0.8,0c0.2,0,1.5,0.1,1.5,0.4c0,0,0-0.1,0-0.1c0,0.2,0.4,0.9,0.5,1.2
		c0.1,0.3,0.3,0.6,0.6,0.8c0.3,0.1,0.8,0.2,1.2,0.2c0.4,0,0.4-0.1,0.6,0.2c0.2,0.2,0.7,1,0.4,1.3c-0.1,0.1-0.9,0.1-1.2,0.2
		c-0.3,0.1-0.7,0.2-1,0.2c-0.1,0-0.3-0.1-0.4-0.1c-0.1,0-0.9,0.2-0.8,0.4c0,0,0.1-0.2,0.1-0.2c-0.7,1-0.1,2,0.4,3
		C176.6,116.9,176.8,116.7,176.9,116.5z"/>
	<path class="st5" d="M190,109.5c0,1.1-1.2,2-1.7,0.8C187.9,109.3,189.2,109,190,109.5z"/>
	<path class="st5" d="M191.4,108.3c-0.4-0.2-0.8-0.3-1.2-0.3c0.3,0.3,0.2,1.6,0.4,1.6C191.4,109.6,192.2,109,191.4,108.3z"/>
	<path class="st5" d="M191.4,104.6c-0.5-0.1-1.6,0.7-1.5,1.2c0.1,0.6,0.9,0.4,1.2,0.9c0.2-0.4,0.9-1.1,1-1.6
		C192.1,104.8,192,104.8,191.4,104.6z"/>
	<path class="st3" d="M191.5,104.8c-0.5-0.1-1.6,0.7-1.5,1.2c0.1,0.6,0.9,0.4,1.2,0.9c0.2-0.4,0.9-1.1,1-1.6
		C192.1,104.9,192.1,104.9,191.5,104.8z"/>
	<path class="st3" d="M191.2,108.3c-0.3-0.2-0.7-0.2-1-0.2c0.3,0.3,0.2,1.4,0.3,1.4C191.2,109.4,191.9,108.8,191.2,108.3z"/>
	<path class="st3" d="M189.9,109.8c0,1-1.1,1.8-1.5,0.7C188,109.6,189.2,109.3,189.9,109.8z"/>
	<path class="st5" d="M189.1,113.4c-0.5-0.4-0.4-1.2,0.3-1C190,112.6,189.6,113.2,189.1,113.4z"/>
	<path class="st5" d="M189.2,114.4c0.2-0.1,0.4-0.2,0.5-0.4c-0.3,0-0.7-0.5-0.8-0.4C188.6,113.9,188.6,114.5,189.2,114.4z"/>
	<path class="st5" d="M190.6,115.7c0.2-0.2,0.3-0.9,0-1.1c-0.3-0.2-0.5,0.2-0.8,0.2c0.1,0.2,0.1,0.8,0.3,0.9
		C190.4,115.9,190.4,115.9,190.6,115.7z"/>
	<path class="st3" d="M190.6,115.7c0.2-0.2,0.3-0.9,0-1.1c-0.3-0.2-0.5,0.2-0.8,0.2c0.1,0.2,0.1,0.8,0.3,0.9
		C190.3,115.9,190.3,115.9,190.6,115.7z"/>
	<path class="st3" d="M189.2,114.3c0.2-0.1,0.3-0.2,0.5-0.3c-0.2,0-0.7-0.4-0.7-0.4C188.8,113.9,188.7,114.4,189.2,114.3z"/>
	<path class="st3" d="M189.1,113.3c-0.4-0.3-0.4-1.1,0.2-0.9C189.8,112.6,189.5,113.1,189.1,113.3z"/>
	<path class="st5" d="M186.7,109.2c-0.3-0.6,0.1-1.4,0.7-0.9C187.9,108.7,187.3,109.3,186.7,109.2z"/>
	<path class="st5" d="M186.3,110.3c0.3,0,0.5-0.1,0.7-0.2c-0.3-0.1-0.6-0.8-0.7-0.8C185.9,109.6,185.6,110.2,186.3,110.3z"/>
	<path class="st5" d="M187.3,112.3c0.3-0.1,0.7-0.8,0.5-1.1c-0.2-0.3-0.6,0-0.9-0.1c0,0.3-0.2,0.9-0.1,1.1
		C187,112.5,187,112.4,187.3,112.3z"/>
	<path class="st3" d="M187.3,112.3c0.3-0.1,0.7-0.8,0.5-1.1c-0.2-0.3-0.6,0-0.9-0.1c0,0.3-0.2,0.9-0.1,1.1
		C186.9,112.4,186.9,112.4,187.3,112.3z"/>
	<path class="st3" d="M186.4,110.3c0.2,0,0.4-0.1,0.6-0.2c-0.3-0.1-0.5-0.7-0.6-0.7C186.1,109.6,185.8,110.2,186.4,110.3z"/>
	<path class="st3" d="M186.7,109.1c-0.3-0.5,0.1-1.3,0.6-0.9C187.8,108.6,187.2,109.1,186.7,109.1z"/>
	<path class="st5" d="M187.9,104.9c0-0.7-1.2-1.3-1.7-0.5C185.8,105,187.1,105.2,187.9,104.9z"/>
	<path class="st5" d="M189.3,105.7c-0.4,0.1-0.8,0.2-1.2,0.2c0.3-0.2,0.2-1.1,0.4-1.1C189.3,104.8,190.1,105.3,189.3,105.7z"/>
	<path class="st3" d="M189.1,105.7c-0.3,0.1-0.7,0.2-1,0.1c0.3-0.2,0.2-0.9,0.3-0.9C189.1,105,189.8,105.4,189.1,105.7z"/>
	<path class="st3" d="M187.8,104.7c0-0.7-1.1-1.2-1.5-0.5C185.9,104.9,187.1,105,187.8,104.7z"/>
	<path class="st5" d="M187,102.4c-0.5,0.2-0.4,0.8,0.3,0.6C187.9,102.9,187.5,102.5,187,102.4z"/>
	<path class="st5" d="M187.1,101.7c0.2,0.1,0.4,0.1,0.5,0.3c-0.3,0-0.7,0.3-0.8,0.3C186.5,102,186.5,101.6,187.1,101.7z"/>
	<path class="st5" d="M188.5,100.8c0.2,0.1,0.3,0.6,0,0.7c-0.3,0.1-0.5-0.1-0.8-0.1c0.1-0.1,0.1-0.5,0.3-0.6
		C188.3,100.7,188.3,100.7,188.5,100.8z"/>
	<path class="st3" d="M188.5,100.9c0.2,0.1,0.3,0.6,0,0.7c-0.3,0.1-0.5-0.1-0.8-0.1c0.1-0.1,0.1-0.5,0.3-0.6
		C188.2,100.7,188.2,100.7,188.5,100.9z"/>
	<path class="st3" d="M187.1,101.7c0.2,0,0.3,0.1,0.5,0.2c-0.2,0-0.7,0.3-0.7,0.2C186.7,102,186.6,101.7,187.1,101.7z"/>
	<path class="st6" d="M187,102.4c-0.4,0.2-0.4,0.7,0.2,0.6C187.7,102.9,187.4,102.5,187,102.4z"/>
	<circle class="st7" cx="235.9" cy="129.7" r="24.1"/>
	<circle class="st8" cx="235.9" cy="129.7" r="22.3"/>
	<path class="st7" d="M241.2,141c0,2.2-0.7,3-2.8,3.8c-2.1,0.7-4.2,0.7-6.4,0.7c-3.9,0-6.8-3.1-7.9-6.8c-1-3.3-0.2-8,2.1-10.6
		c1.5-1.7,3.2-1.8,3.5-4.3c0.2-2-0.6-3.5-1.2-5.4c1.4,0.6,2.4,0.8,3.2,2c0.7,1,1.3,2.2,2.1,3.3c0.5-1.5,0.7-2.5,1.9-3.6
		c1-0.9,2.1-1.1,3.1-1.8c1.3-1,1.4-2.1,0.9-3.6c-0.5-1.7-1.4-2-2.8-2.7c2.5-0.9,4-1.3,6,0.8c1.7,1.8,2.5,4.8,2.8,7.1
		c0.4,2.7,0.3,4.2-1.4,6.4c-1.8,2.3-2.5,3.2-1.9,6.2c0.6-1.4,0.9-2.5,2.1-3.4c1.2-0.9,1.8-0.8,3.5-0.8c-1.1,1-1.9,1.7-2.4,3.1
		c-0.8,2,0.2,3,0.2,5C245.8,139.1,243.8,140.6,241.2,141z"/>
	<path class="st9" d="M232.8,133.7c1.3-0.3,2.5-0.6,3.5,0.5c1.4,1.6,0.4,3.5-1.4,4.2c2,1.7,3.6,0.2,4-1.9c1.6,2.5,2.8,5.9-0.9,7
		c-1.5,0.5-2.9,0.1-4.4-0.3c-0.9-0.3-2.8-1.1-3.6-0.2c1.4,0.3,1.8,0.6,2.8,1.5c-2.8,0-5.6-0.7-6.6-3.7c-0.3-0.8-0.6-1.7-0.3-2.4
		c0.3-0.8,1.6-1.4,2.2-1.9c1.1-0.9,1.6-1.9,2.2-3.2c-0.9,0.6-3.4,3.5-4.5,3.1c-1.4-0.4-0.3-4,0.3-4.9c1.2-1.9,3.5-3,4.7-4.9
		c1.1-1.9,0.4-3.8-0.2-5.8c2,2.7,3.4,4.5,3,8c1.6-1.8,1.3-2.1,1.6-4.4c0.2-2,1.4-3,2.8-4.3c1.2-1.2,3.1-1.9,3.3-3.7
		c0.2-1.8-0.9-3.2-2.1-4.4c1.5,0.4,2,0.4,2.8,1.7c0.8,1.3,1.5,2.5,1.7,4c0.4,2.1-0.7,3.8-1.9,5.5c-0.1,0.1-2.6,3.5-1.5,3.6
		c2,0.2,3.5-4.1,3.8-5.4c0.1,1.5,0.2,2.8-0.6,4.2c-0.7,1.3-2,2-2.5,3.5c-0.6,1.7-0.3,2.9,0.5,4.5c0.7,1.5,0.8,2.3,0.7,3.9
		c1-1.4,0.8-2,0.9-3.7c0.1-1.6,0.7-2.5,1.5-3.8c-0.5,2.4-0.3,3.7,0.1,5.9c0.4,2.2-1.1,3-2.9,3.8c-0.7-2.2-1.2-4.2-2.8-6
		c0.2,1.2-0.9,2.5-1.4,3.5c0-1.5,0.3-3.3-0.9-4.5C235.4,131.5,234,132.7,232.8,133.7z"/>
	<path class="st10" d="M233.2,134.6c2.1,0,1.9,1.1,1.1,2.7c-1,1.9-0.7,2.7,1.2,3.9c-0.8,0.3-1.7,0.4-2.6,0.2c-0.8-0.2-1-0.9-1.6-1.1
		c-1.6-0.5-1.9,0.4-2.5,1.7c-2.3-1.3-0.5-3.2,0.9-4.2c1.4-1,3.3-4.2,1.1-5.5c-1.3-0.8-1.3,0.7-2.2,0.6c-1.2-0.2-0.8-1.3-0.3-1.8
		c0.5-0.6,1.7-0.9,2.3-1.6c0.6-0.6,1.1-1.3,1.5-2c0.3,1.4-0.5,5.2,2,3.2c1.2-0.9,2.1-2.8,2.3-4.2c0.3-1.8,0.3-3.3,1.8-4.5
		c1.2-1,3.6-1,3.6-2.9c0,2.7-0.8,2.9-2.5,4.7c-0.8,0.9-1.4,2.6-0.9,3.8c0.5,1.3,1.1,0.8,2.2,0.4c-0.3,0.6-1,1.4-1,2.1
		c0,0.3,0.8,3.3,0.7,3.2c-1-0.5-1.3-2.7-2.2-3c-1.9-0.6,0.1,2.1,0.1,2.7c0-0.1-1.5-1.1-1.8-1.2c-0.6-0.2-1,0-1.6,0.1
		C232.7,131.9,231.7,133,233.2,134.6z"/>
	<circle class="st11" cx="244.8" cy="193.6" r="24.1"/>
	<circle class="st12" cx="244.8" cy="193.6" r="22.3"/>
	<path class="st11" d="M246.9,192.4c-0.6,1.8-1.1,3.5-1.6,5.3c2.1,0,2.9-0.2,4.8-1.2c-1.5,4.4-3.9,7.6-6.9,11.1
		c0.8-2.6,1.6-4.9,2-7.6c-1.5,0.6-2.6,1-4.2,1.3c0-1.3-0.5-4.5,0.2-5.5c0.5-0.7,2.2-1.3,3-1.8C245.1,193.4,246,192.9,246.9,192.4z"
		/>
	<path class="st13" d="M246.1,183.5c-2.4-1.9-5.4-2.8-7.6-0.1c-0.4,0.5-0.7,1.3-1.3,1.6c-0.6,0.3-1.6,0.1-2.2,0.3
		c-1.7,0.5-3.1,1.4-3.7,3.2c-0.3,0.9-0.1,3,0.6,3.8c0.3,0.4,1.4,0.7,1.9,0.9c0.2,0.1,0.8-0.2,0.9,0c0.2,0.2,0,1.1,0.1,1.4
		c0.5,1.5,2.2,2.6,3.7,2.7c1.3,0.2,2.5-0.6,3.6-1.3c1-0.6,1.3-1.1,2.1-0.8c0.9,0.5,0.8,0.9,2,1.2c2.1,0.5,3.1-0.5,4.5-1.9
		c4.6,6.3,11.4-4.5,5.6-6.8c1.6-2.5-0.2-4.7-2.7-5.7c-1.3-0.5-2.7-0.7-4.2-0.5C248.1,181.8,247.3,182.7,246.1,183.5z"/>
	<path class="st14" d="M249.5,185c-0.4-2.3,3.6-1.8,2.8,1.1c-0.7,2.6-3.9,2.3-5.5,0.7c-1.6-1.6-2-3.8-4.8-3.8c-1,0-3.6,0.6-3.3,1.9
		c0-0.2,2.5,2.6,2,2.6c-0.4,0-1.4-1.2-1.8-1.4c-0.7-0.3-1.4-0.4-2.1-0.4c-1.8,0-3.6,0.8-4.2,2.6c-0.7,1.9,0.2,4.2,2.4,4
		c2.2-0.2,2.5-2.7,0.7-3.8c1.1,0.3,1.9,1.3,1.9,2.5c0,2-1.8,1.2-2.3,2.4c-0.9,2.2,3,3,4.2,2.9c2-0.2,5.6-1.6,4.1-4.3
		c-0.5-0.9-1.6-1.3-2.3-0.5c-0.9,1,0.4,2.8,1.4,1.9c-0.6,2.2-4.9-1.6-1.5-3c1.1-0.5,2.1,0.2,2.7,1.1c0.9,1.4,0.1,2.9,1.8,3.7
		c3.1,1.6,3.9-1.3,5.2-3.1c1.2-1.6,5.7-0.9,4.2,1.3c0.2-2.3-3.7-2.1-3.6,0.3c0.1,2.9,3.7,2.4,5.1,1c1.2-1.2,2-3.6,1.1-5.3
		c-1.1-2.2-3.5,0.8-5.5-0.3c1.3-0.1,2.7,0,3.4-1.4c0.7-1.4,0.4-3.3-0.7-4.2c-2.2-1.9-5.1-1.6-7.4-0.2c3.2-6.1,13.3,1.8,9.4,4.5
		c2.8,1.3,2.6,5.1,0.8,7.4c-1.6,2-5.7,2.9-6.8-0.1c-1.7,3.4-6.2,0.3-8.7,1.6c-1.6,0.8-2.6,1.4-4.5,0.8c-1.7-0.6-3.3-1.7-3-3.7
		c-4,0.2-4.7-4.4-2.4-7c1.3-1.4,2.8-1.1,4.3-1.8c1.3-0.6,1.8-2.5,3.3-3.1c4.3-1.7,5.5,2.1,7.8,4.5c1,1,3.2,1.7,3.9,0
		C252.1,184.8,250.6,183,249.5,185z"/>
	<circle class="st15" cx="206.4" cy="237.1" r="24.1"/>
	<circle class="st16" cx="206.4" cy="237" r="22.3"/>
	<path class="st17" d="M204.7,233.3c1.9,0.3,3.4,1,4.8,2.4c1.8,1.6,2.4,4.2,4.7,5.1c6.2,2.4,6.3-6.5,1.7-5.7
		c3.1-1.5,4.8,0.4,4.9,3.3c0.2,5.8-4.8,5.5-8.4,2.9c2.7,4.4-6.9,5.5-4.6,1c0.2,1.2,1.1,2.3,2.4,2c1.5-0.4,1.1-2,1-3.4
		c-0.3-2.2-1.5-4.8-4-5.4c-1.7-0.4-4.2,0.5-4.2,2.6c-0.1,3,5.9,2.9,3.8-1.1c2.4,2.7,0.1,5.6-3.2,4.6c-3.2-0.9-3.5-7,0.2-6.7
		c-3.3-2.8,1.8-4.6,4.2-3.7c3.2,1.3,4.7,8,8.8,6.1C213.4,243.3,208.5,227.9,204.7,233.3z"/>
	<path class="st17" d="M216.6,232.8c0.5-3.1,3.2-4.6,6.1-4.7c-0.4,1.6,0.1,3.4-1.1,4.6c-1.2,1.3-3.6,1.5-5.2,1.9
		C216.5,233.9,216.6,233.4,216.6,232.8z"/>
	<path class="st15" d="M216.7,232.5c0.5-2.9,3-4.3,5.7-4.5c-0.3,1.5,0.1,3.2-1,4.4c-1.1,1.2-3.4,1.5-4.9,1.7
		C216.6,233.6,216.6,233.1,216.7,232.5z"/>
	<path class="st17" d="M222,228.2c-0.8,1.1-1.5,2.1-2.5,3.1c-0.5,0.5-3.1,2.2-1,2c-0.6,0.2-1.1,0.4-1.6,0.7c0.2-0.6,0.2-1.1,0.3-1.8
		c0,0.3,0.1,0.5,0.2,0.8C218.5,230.9,220.3,229.6,222,228.2z"/>
	<path class="st17" d="M221.4,229.1c0.1,0.3,0.4,0.1,0.7,0.3c-0.3,0-1.4,0.2-1.4,0.6c0,0.5,0.9,0.1,1.2,0.4c-0.4,0-1.7,0.2-1.9,0.4
		c-0.4,0.6,1.5,0.6,1.8,0.6c-0.5,0.3-0.9,0.4-1.4,0.4c-0.4,0-0.4-0.1-0.7-0.3c-0.2-0.1-0.5-0.1-0.7,0c-0.6,0.5,0,1,0.5,1
		c0.5,0.1,1.1-0.2,1.5-0.4c-0.6,0.4-1.1,0.7-1.8,0.7c-0.5,0-1.2-0.2-0.9-0.8c0.3-0.7,1.2-1.3,1.8-1.9
		C220.4,229.9,220.9,229.5,221.4,229.1z"/>
	<path class="st17" d="M221.1,228.9c-0.1-0.2-0.2-0.2-0.2-0.4c-0.3,0.3,0,0.6-0.5,0.9c-0.4,0.3-0.8,0.1-0.8-0.4
		c-0.2,0.4-0.2,0.8,0.3,0.9c-0.2,0.3-0.4,0.9-0.8,0.6c-0.3-0.2-0.2-0.9-0.2-1.1c-0.1,0.4-0.3,0.7-0.2,1c0.1,0.4,0.5,0.8,0.1,1.1
		c-1,0.7-0.6-1.1-0.5-1.4c-0.2,0.3-0.7,1-0.6,1.4c0.2,0.5,0.7,0.3,1,0.1C219.5,231,220.3,229.8,221.1,228.9z"/>
	<path class="st17" d="M215.9,233.6c-0.5-1.7-2.1-2.4-3.8-2.3c0.3,0.9,0.2,1.9,0.9,2.6c0.8,0.6,2.2,0.6,3.1,0.7
		C216,234.2,215.9,233.9,215.9,233.6z"/>
	<path class="st15" d="M215.8,233.4c-0.5-1.6-2-2.3-3.6-2.2c0.3,0.8,0.1,1.8,0.9,2.4c0.7,0.6,2,0.6,2.9,0.7
		C215.9,234.1,215.9,233.8,215.8,233.4z"/>
	<path class="st17" d="M212.5,231.3c0.5,0.6,1,1.1,1.6,1.6c0.3,0.2,1.9,1.1,0.7,1.1c0.3,0.1,0.7,0.2,1,0.3c-0.2-0.3-0.2-0.6-0.3-1
		c0,0.2,0,0.3,0,0.5C214.7,232.7,213.5,232,212.5,231.3z"/>
	<path class="st17" d="M212.9,231.8c0,0.2-0.2,0.1-0.4,0.2c0.2,0,0.8,0,0.9,0.3c0.1,0.3-0.5,0.1-0.7,0.3c0.2,0,1,0,1.1,0.1
		c0.3,0.3-0.8,0.5-1,0.4c0.3,0.1,0.5,0.2,0.8,0.1c0.3,0,0.2-0.1,0.4-0.2c0.1-0.1,0.3-0.1,0.4,0c0.4,0.2,0,0.5-0.2,0.6
		c-0.3,0.1-0.6,0-0.9-0.1c0.4,0.2,0.7,0.3,1.1,0.3c0.3,0,0.7-0.2,0.5-0.5c-0.2-0.4-0.8-0.7-1.1-1C213.5,232.2,213.2,232,212.9,231.8
		z"/>
	<path class="st17" d="M213,231.7c0-0.1,0.1-0.1,0.1-0.2c0.2,0.2,0.1,0.4,0.3,0.5c0.3,0.1,0.5,0,0.4-0.3c0.1,0.2,0.2,0.5-0.1,0.5
		c0.1,0.2,0.3,0.5,0.5,0.3c0.1-0.1,0.1-0.5,0.1-0.7c0.1,0.2,0.2,0.4,0.2,0.6c0,0.2-0.2,0.5,0,0.6c0.6,0.3,0.3-0.7,0.2-0.9
		c0.1,0.2,0.5,0.5,0.4,0.8c-0.1,0.3-0.4,0.2-0.5,0.1C214.1,232.7,213.6,232.1,213,231.7z"/>
	<path class="st17" d="M206.4,242.3c-1.8-0.5-3.2,0.5-4.1,2c0.9,0.2,1.7,0.9,2.7,0.6c1-0.3,1.7-1.5,2.3-2.3
		C207,242.5,206.7,242.4,206.4,242.3z"/>
	<path class="st15" d="M206.2,242.3c-1.7-0.5-3,0.5-3.8,1.9c0.9,0.2,1.6,0.9,2.6,0.6c0.9-0.3,1.6-1.4,2.2-2.1
		C206.8,242.5,206.5,242.4,206.2,242.3z"/>
	<path class="st17" d="M202.6,243.9c0.8-0.1,1.5-0.2,2.2-0.5c0.4-0.2,1.9-1.1,1.3,0c0.3-0.3,0.5-0.5,0.8-0.7c-0.4,0-0.6-0.2-1-0.3
		c0.2,0.1,0.2,0.2,0.4,0.3C204.9,242.8,203.8,243.4,202.6,243.9z"/>
	<path class="st17" d="M203.2,243.8c0.1,0.1,0,0.2,0,0.4c0.1-0.2,0.5-0.7,0.7-0.6c0.3,0.1-0.2,0.5-0.1,0.7c0.1-0.2,0.5-0.9,0.7-0.9
		c0.4-0.1,0,0.9-0.2,1.1c0.3-0.2,0.4-0.4,0.6-0.6c0.1-0.2,0-0.2,0.1-0.5c0-0.2,0.1-0.3,0.2-0.4c0.4-0.2,0.5,0.3,0.4,0.5
		c-0.1,0.3-0.4,0.5-0.6,0.7c0.3-0.2,0.6-0.4,0.8-0.8c0.2-0.3,0.2-0.7-0.2-0.7c-0.4,0-1,0.3-1.4,0.5
		C203.9,243.6,203.5,243.7,203.2,243.8z"/>
	<path class="st17" d="M203.2,243.7c-0.1-0.1,0-0.2-0.1-0.2c0.3-0.1,0.3,0.1,0.6,0c0.2-0.2,0.3-0.4,0-0.5c0.2,0,0.5,0.1,0.4,0.4
		c0.2,0,0.6,0,0.5-0.3c0-0.2-0.4-0.3-0.5-0.4c0.2,0,0.4,0,0.6,0.2c0.2,0.1,0.3,0.5,0.5,0.3c0.6-0.3-0.4-0.6-0.6-0.6
		c0.2,0,0.7-0.1,0.9,0.1c0.2,0.2,0,0.4-0.2,0.5C204.7,243.4,203.9,243.5,203.2,243.7z"/>
	<path class="st17" d="M206.3,244.4c-1,0.5-1.4,1.9-1.2,3.2c0.5-0.3,1.2-0.3,1.6-0.9c0.3-0.7,0.3-1.7,0.3-2.5
		C206.7,244.2,206.5,244.3,206.3,244.4z"/>
	<path class="st15" d="M206.3,244.5c-1,0.5-1.3,1.7-1.1,3c0.5-0.3,1.1-0.3,1.5-0.9c0.3-0.6,0.3-1.6,0.2-2.3
		C206.6,244.3,206.4,244.4,206.3,244.5z"/>
	<path class="st17" d="M205.1,247.2c0.3-0.5,0.6-0.9,0.9-1.4c0.1-0.3,0.5-1.6,0.6-0.6c0-0.3,0.1-0.5,0.1-0.8
		c-0.2,0.2-0.4,0.2-0.6,0.3c0.1,0,0.2,0,0.3,0C205.8,245.4,205.5,246.4,205.1,247.2z"/>
	<path class="st17" d="M205.4,246.9c0.1,0,0.1,0.2,0.2,0.3c0-0.2,0-0.6,0.1-0.7c0.2-0.1,0.1,0.4,0.2,0.5c0-0.2-0.1-0.8,0-0.9
		c0.2-0.2,0.3,0.6,0.3,0.7c0.1-0.2,0.1-0.4,0-0.7c0-0.2-0.1-0.2-0.1-0.3c-0.1-0.1-0.1-0.2,0-0.3c0.1-0.3,0.3-0.1,0.4,0.1
		c0.1,0.2,0,0.5,0,0.7c0.1-0.3,0.2-0.5,0.1-0.9c0-0.2-0.2-0.5-0.3-0.3c-0.2,0.2-0.4,0.7-0.5,1C205.6,246.4,205.5,246.6,205.4,246.9z
		"/>
	<path class="st17" d="M205.3,246.8c-0.1,0-0.1-0.1-0.1-0.1c0.1-0.2,0.2-0.1,0.3-0.3c0.1-0.2,0-0.4-0.2-0.3c0.1-0.1,0.3-0.2,0.3,0
		c0.1-0.1,0.3-0.3,0.2-0.4c-0.1-0.1-0.3,0-0.4,0c0.1-0.1,0.2-0.2,0.4-0.2c0.1,0,0.3,0.1,0.4-0.1c0.2-0.5-0.4-0.2-0.5-0.1
		c0.1-0.1,0.3-0.4,0.5-0.4c0.2,0,0.2,0.3,0.1,0.4C205.9,245.9,205.6,246.3,205.3,246.8z"/>
	<path class="st17" d="M214.1,245.4c0.4,3.1-1.6,5.3-4.4,6.4c-0.1-1.7-1.1-3.2-0.4-4.8c0.8-1.6,3-2.5,4.4-3.3
		C213.8,244.3,213.9,244.9,214.1,245.4z"/>
	<path class="st15" d="M214.1,245.7c0.4,2.9-1.5,5-4.1,6c-0.1-1.6-1.1-3-0.3-4.5c0.7-1.5,2.8-2.4,4.1-3.1
		C213.8,244.6,214,245.1,214.1,245.7z"/>
	<path class="st17" d="M210.3,251.4c0.4-1.3,0.8-2.5,1.5-3.7c0.4-0.6,2.3-3,0.3-2.2c0.5-0.4,0.9-0.7,1.3-1.2c0,0.7,0.2,1.1,0.2,1.8
		c-0.1-0.3-0.3-0.5-0.4-0.8C212.8,247.8,211.5,249.6,210.3,251.4z"/>
	<path class="st17" d="M210.6,250.4c-0.2-0.2-0.4,0-0.8-0.1c0.3-0.1,1.3-0.6,1.2-1c-0.1-0.5-0.9,0.1-1.3,0c0.3-0.1,1.6-0.7,1.7-0.9
		c0.2-0.7-1.6-0.2-1.9,0c0.4-0.4,0.7-0.6,1.2-0.8c0.4-0.1,0.4,0,0.8,0c0.3,0,0.5,0,0.7-0.3c0.4-0.6-0.3-0.9-0.8-0.8
		c-0.5,0.1-1,0.5-1.4,0.8c0.4-0.5,0.8-1,1.5-1.2c0.5-0.2,1.2-0.2,1.1,0.5c-0.1,0.7-0.8,1.6-1.1,2.3
		C211.3,249.4,210.9,249.9,210.6,250.4z"/>
	<path class="st17" d="M210.9,250.4c0.1,0.1,0.3,0.1,0.3,0.3c0.2-0.4-0.2-0.6,0.2-1c0.3-0.4,0.8-0.3,0.9,0.2c0-0.4,0-0.9-0.5-0.8
		c0.1-0.4,0.1-1,0.6-0.8c0.3,0.1,0.5,0.7,0.6,1c0-0.4,0-0.7-0.1-1c-0.2-0.3-0.7-0.6-0.4-1c0.7-1,0.9,0.9,0.9,1.2
		c0.1-0.4,0.4-1.2,0.1-1.5c-0.3-0.5-0.7-0.1-0.9,0.2C211.8,248,211.4,249.4,210.9,250.4z"/>
	<path class="st17" d="M214.5,244.4c1,1.5,2.7,1.7,4.3,1.1c-0.6-0.8-0.7-1.8-1.7-2.2c-0.9-0.4-2.2,0-3.2,0.2
		C214.2,243.8,214.4,244.1,214.5,244.4z"/>
	<path class="st15" d="M214.6,244.6c1,1.4,2.6,1.6,4.1,1c-0.5-0.7-0.7-1.7-1.6-2.1c-0.9-0.4-2.1,0-3,0.2
		C214.3,244,214.5,244.3,214.6,244.6z"/>
	<path class="st17" d="M218.4,245.6c-0.7-0.4-1.3-0.8-2-1c-0.4-0.1-2.1-0.4-1-0.8c-0.4,0-0.7,0-1,0c0.3,0.3,0.4,0.6,0.6,0.9
		c-0.1-0.2-0.1-0.3-0.1-0.5C215.9,245,217.2,245.2,218.4,245.6z"/>
	<path class="st17" d="M217.9,245.3c0-0.2,0.2-0.2,0.3-0.3c-0.2,0.1-0.8,0.2-0.9,0c-0.1-0.2,0.4-0.3,0.5-0.5c-0.2,0.1-1,0.3-1.1,0.2
		c-0.4-0.2,0.6-0.7,0.8-0.7c-0.3,0-0.6,0-0.8,0.1c-0.2,0.1-0.2,0.1-0.3,0.3c-0.1,0.1-0.2,0.2-0.4,0.2c-0.4-0.1-0.2-0.5,0-0.7
		c0.3-0.2,0.6-0.1,0.9-0.2c-0.4-0.1-0.7-0.1-1.1,0c-0.3,0.1-0.6,0.4-0.3,0.6c0.3,0.3,1,0.4,1.4,0.6
		C217.2,245.1,217.6,245.2,217.9,245.3z"/>
	<path class="st17" d="M217.8,245.4c0,0.1-0.1,0.1,0,0.2c-0.3-0.1-0.2-0.3-0.5-0.4c-0.3,0-0.5,0.1-0.3,0.4c-0.2-0.1-0.3-0.4-0.1-0.5
		c-0.2-0.1-0.4-0.4-0.6-0.1c-0.1,0.2,0.1,0.5,0.1,0.7c-0.1-0.2-0.3-0.3-0.3-0.5c0-0.2,0.1-0.5-0.2-0.6c-0.7-0.1,0,0.7,0.1,0.9
		c-0.2-0.1-0.6-0.4-0.6-0.6c0-0.3,0.3-0.3,0.5-0.3C216.5,244.7,217.2,245.1,217.8,245.4z"/>
	<path class="st17" d="M201.2,232.3c-2.8-4-7.5-4.4-11.7-2.7c1.6,2,2,4.9,4.6,5.8c2.5,1,6.1-0.2,8.5-0.8
		C202.1,233.9,201.7,233.1,201.2,232.3z"/>
	<path class="st15" d="M201,232c-2.6-3.8-7-4.1-11-2.5c1.5,1.9,1.9,4.6,4.3,5.5c2.4,0.9,5.7-0.2,8-0.8
		C201.8,233.5,201.4,232.7,201,232z"/>
	<path class="st17" d="M190.6,229.4c1.8,1.1,3.5,2,5.6,2.6c1.1,0.3,5.8,1.1,2.6,2.1c1-0.1,1.8-0.1,2.8,0c-0.7-0.7-1-1.5-1.6-2.3
		c0.2,0.5,0.2,0.8,0.3,1.3C197.3,230.9,193.9,230.3,190.6,229.4z"/>
	<path class="st17" d="M192.1,230.2c0.1,0.4-0.5,0.5-0.8,0.9c0.5-0.2,2.1-0.6,2.4,0c0.4,0.7-1.1,0.7-1.4,1.3
		c0.5-0.2,2.6-0.9,2.9-0.7c1,0.6-1.6,1.9-2.2,2c0.8,0.1,1.5,0,2.3-0.4c0.6-0.3,0.5-0.4,0.9-0.9c0.3-0.3,0.6-0.5,1.1-0.4
		c1.2,0.3,0.6,1.4-0.1,1.8c-0.7,0.4-1.6,0.4-2.4,0.5c1.1,0.2,2,0.3,3-0.2c0.8-0.3,1.5-1,0.7-1.6c-0.9-0.7-2.6-1.1-3.7-1.5
		C193.9,230.7,193,230.5,192.1,230.2z"/>
	<path class="st17" d="M192.4,229.8c0-0.3,0.2-0.4,0-0.7c0.7,0.3,0.5,0.9,1.3,1c0.7,0.1,1.2-0.4,0.8-1.1c0.4,0.4,0.9,1,0.2,1.5
		c0.5,0.3,1.1,1,1.6,0.4c0.3-0.4-0.3-1.3-0.4-1.8c0.4,0.4,0.8,0.8,0.9,1.4c0.1,0.6-0.2,1.4,0.6,1.6c1.9,0.3,0.1-2-0.2-2.4
		c0.5,0.3,1.7,0.9,1.8,1.6c0.1,0.9-0.7,0.9-1.3,0.8C195.9,231.7,194.1,230.6,192.4,229.8z"/>
	<path class="st17" d="M200.2,235.5c-1.8,0-3,1.3-3.3,2.9c1,0,1.9,0.4,2.7-0.1c0.8-0.5,1.3-1.9,1.6-2.7
		C200.8,235.6,200.5,235.5,200.2,235.5z"/>
	<path class="st15" d="M200,235.5c-1.7,0-2.8,1.2-3.1,2.8c0.9,0,1.8,0.4,2.6-0.1c0.8-0.5,1.2-1.8,1.5-2.6
		C200.6,235.6,200.3,235.5,200,235.5z"/>
	<path class="st17" d="M197,238.1c0.7-0.3,1.4-0.6,2-1.1c0.3-0.3,1.6-1.5,1.2-0.3c0.2-0.3,0.4-0.6,0.6-0.8c-0.4,0.1-0.7,0-1.1,0
		c0.2,0,0.3,0.1,0.5,0.2C198.9,236.4,198,237.2,197,238.1z"/>
	<path class="st17" d="M197.5,237.8c0.1,0.1,0,0.2,0.1,0.4c0-0.2,0.3-0.8,0.5-0.7c0.3,0,0,0.5,0.1,0.7c0-0.2,0.3-1,0.4-1
		c0.4-0.2,0.2,0.9,0.1,1.1c0.2-0.2,0.3-0.5,0.4-0.8c0.1-0.2,0-0.2-0.1-0.5c0-0.1,0-0.3,0.1-0.4c0.3-0.3,0.5,0.1,0.5,0.4
		c0,0.3-0.2,0.6-0.4,0.8c0.3-0.3,0.5-0.5,0.6-0.9c0.1-0.3,0-0.7-0.3-0.6c-0.4,0.1-0.9,0.6-1.3,0.8
		C198.1,237.3,197.8,237.6,197.5,237.8z"/>
	<path class="st17" d="M197.5,237.6c-0.1-0.1-0.1-0.1-0.2-0.2c0.2-0.1,0.4,0.1,0.6-0.2c0.2-0.2,0.1-0.5-0.2-0.5c0.2,0,0.5,0,0.5,0.2
		c0.2-0.1,0.5-0.1,0.4-0.4c-0.1-0.2-0.5-0.2-0.6-0.3c0.2,0,0.4-0.1,0.6,0c0.2,0.1,0.4,0.4,0.6,0.2c0.5-0.5-0.6-0.5-0.8-0.4
		c0.2-0.1,0.6-0.3,0.9-0.2c0.3,0.2,0.1,0.4,0,0.6C198.8,237,198.1,237.3,197.5,237.6z"/>
	<path class="st17" d="M201.1,230.8c-1.4-2.8-0.3-5.6,2-7.5c0.7,1.5,2.2,2.6,1.9,4.4c-0.2,1.7-1.9,3.4-3,4.6
		C201.8,231.8,201.5,231.3,201.1,230.8z"/>
	<path class="st15" d="M201,230.5c-1.4-2.6-0.3-5.2,1.9-7c0.6,1.4,2,2.5,1.8,4.1c-0.2,1.6-1.8,3.2-2.8,4.3
		C201.6,231.5,201.3,231,201,230.5z"/>
	<path class="st17" d="M202.6,223.8c0.1,1.4,0.1,2.6-0.2,3.9c-0.1,0.7-1.1,3.6,0.4,2.1c-0.3,0.5-0.6,1-0.8,1.6
		c-0.2-0.6-0.6-1-0.8-1.6c0.2,0.3,0.4,0.4,0.7,0.6C201.5,228.2,202.2,226,202.6,223.8z"/>
	<path class="st17" d="M202.7,224.9c0.2,0.2,0.4-0.1,0.7-0.2c-0.3,0.2-1,1-0.7,1.4c0.3,0.4,0.8-0.4,1.2-0.4
		c-0.3,0.2-1.3,1.2-1.3,1.5c0.1,0.7,1.5-0.4,1.8-0.6c-0.2,0.5-0.5,0.8-0.9,1.2c-0.3,0.3-0.4,0.1-0.8,0.2c-0.3,0.1-0.5,0.2-0.6,0.5
		c-0.2,0.8,0.6,0.7,1.1,0.5c0.4-0.3,0.7-0.8,1-1.2c-0.2,0.7-0.4,1.2-1,1.7c-0.4,0.3-1,0.6-1.2-0.1c-0.1-0.7,0.2-1.8,0.3-2.6
		C202.4,226.1,202.6,225.5,202.7,224.9z"/>
	<path class="st17" d="M202.4,225c-0.2-0.1-0.3,0-0.4-0.2c-0.1,0.5,0.4,0.5,0.2,1c-0.2,0.5-0.6,0.6-0.9,0.1c0.1,0.4,0.3,0.8,0.8,0.6
		c0,0.4,0.2,0.9-0.3,1c-0.3,0-0.7-0.5-0.9-0.8c0.1,0.4,0.2,0.7,0.5,0.9c0.3,0.2,0.9,0.3,0.7,0.8c-0.4,1.2-1.2-0.5-1.3-0.8
		c0,0.4,0,1.2,0.4,1.5c0.5,0.3,0.7-0.1,0.8-0.5C202.4,227.6,202.3,226.2,202.4,225z"/>
	<path class="st15" d="M205.3,233.5c1.8,0.3,3.1,1,4.4,2.2c1.6,1.5,2.2,3.9,4.4,4.7c5.8,2.2,5.9-6,1.5-5.3c2.8-1.4,4.4,0.4,4.5,3.1
		c0.1,5.4-4.4,5.1-7.8,2.7c2.5,4.1-6.4,5.1-4.3,0.9c0.2,1.1,1,2.1,2.3,1.8c1.4-0.4,1-1.9,0.9-3.1c-0.3-2.1-1.4-4.4-3.7-5
		c-1.6-0.4-3.9,0.4-3.9,2.4c-0.1,2.8,5.4,2.7,3.5-1c2.3,2.5,0.1,5.2-2.9,4.3c-2.9-0.9-3.2-6.4,0.2-6.2c-3-2.6,1.7-4.3,3.9-3.4
		c3,1.2,4.3,7.4,8.2,5.7C213.4,242.9,208.8,228.6,205.3,233.5z"/>
	<circle class="st18" cx="147.7" cy="238" r="24.1"/>
	<circle class="st19" cx="148" cy="238" r="22.3"/>
	<polygon class="st18" points="147.2,223.4 152.2,229.7 155.8,236.7 153.9,243.2 147.8,255.5 142.3,243.7 139.5,236.9 143.4,229.4 	
		"/>
	<path class="st20" d="M147.2,222.3c0.7,0.5,1.1,0.9,1.5,1.6c0.2,0.3,0.4,0.7,0.7,0.9c0.3,0.3,0.8,0.3,0.9,0.7c0.2,0.4,0,0.6,0.2,1
		c0.3,0.3,0.7,0.4,1,0.7c0.3,0.3,0.3,0.8,0.4,1.1c0.1,0.2,0.3,0.2,0.4,0.5c0,0-0.1,0.3-0.1,0.4c0.1,0.2,0.2,0.1,0.3,0.2
		c0.1,0.1,0.3,0.1,0.3,0.2c0.1,0.1,0,0.5,0.1,0.6c0.1,0.4,0.5,0.7,0.7,1c0.3,0.5,0.3,1,0.6,1.5c0.2,0.4,0.6,0.6,0.9,1
		c0.4,0.6,0.6,1.4,0.9,2.1c0.4,0.8,0.2,1.2-0.2,2.1c-0.1,0.3-0.5,1.2-0.8,1.3c-0.2,0.1-0.8-0.1-1-0.3c-0.3-0.3-0.3-0.9-0.6-1.1
		c-0.1-0.1-1.2-0.4-1.2-0.4c0,0.1,0.2,0.4,0.1,0.6c-0.1,0.1-0.7,0.4-0.9,0.4c-0.4,0-0.9-0.5-1.3-0.6c-0.4-0.1-0.7-0.1-1,0.3
		c-0.1,0.2,0,0.6-0.1,0.9c-0.2,0.3-0.1,0.1-0.4,0.3c-0.4,0.4-0.3,0.2-0.4,0.7c-0.1,0.5,0,0.4-0.4,0.4c-0.8,0.1-0.3-0.5-0.8-1
		c-0.2-0.2-0.3-0.1-0.6-0.1c-0.4,0-0.3,0.1-0.5-0.2c-0.3-0.4-0.1-0.9-0.3-1.2c-0.3-0.5-1.6-1.1-1.8-0.4c-0.1,0.5,0.3,0.9-0.1,1.2
		c-0.6,0.4-0.8-0.3-1.3-0.5c-0.2-0.1-0.2-0.2-0.5-0.1c-0.4,0.1-0.2,0.2-0.5,0.4c-0.3,0.3-0.5,0.7-1,0.6c-0.4-0.1-0.8-0.8-0.9-1.1
		c-0.1-0.4,0-0.9-0.1-1.3c-0.3-0.8-0.5-0.5-0.1-1.3c0.3-0.6,0.8-1.2,1.1-1.9c0.2-0.6,0.4-1.1,0.8-1.6c0.6-0.9,0.8-1.9,1.4-2.9
		c0.4-0.2,1.2-0.5,1.4-1c0.1-0.2,0.2-2,0.6-2.1c0,0-0.1,0.1-0.1,0.1c0.3-1,1.5-0.9,1.8-1.8c0.1-0.3,0-0.5,0.2-0.8
		C146.6,222.9,147,222.6,147.2,222.3z"/>
	<path class="st21" d="M151.7,238.8c0.2,4-1.2,8-2.4,11.7c1-0.5,1.3-1.7,1.9-2.7c0.4-0.8,0.8-1.6,1.2-2.4c1-1.9,1.7-3.7,2.5-5.7
		c-0.3,1.2-0.6,2.4-1,3.5c-0.5,1.3-1.3,2.6-2,3.9c-1.2,2.5-2.5,5-3.7,7.5c0.5-1.2,0.9-2.5,1.4-3.7c-0.3,0.4-0.5,0.9-0.8,1.3
		c0.1-0.8,0.1-1.7,0.2-2.5c-0.4,1.6-0.8,3.3-1.2,4.9c0.1-1.1,0.2-2.1,0.3-3.2c0.1-0.9-0.3-1.3-0.8-2.2c-0.1,0.9-0.4,1.8-0.2,2.7
		c0.2,1.1,0.5,2.3,0.7,3.4c-2.3-4.8-4.6-9.6-6.7-14.6c1.7,3.3,3.3,6.6,4.8,9.9c-1.1-3.6-2.1-7.2-2.9-10.9c1.1,3.5,2.3,6.9,3.4,10.4
		c0.5-2.6,0.2-5.2,0-7.7c0.2,1.3,0.4,2.7,0.6,4c0.2,1.1,0.6,2,0.9,3c0.4-3.5,0.5-7,0.6-10.5c0.2,1.6,0.3,3,0.3,4.6
		c-0.1,2-0.2,4-0.3,6C150.2,246.3,150.9,242.5,151.7,238.8z"/>
	
		<ellipse transform="matrix(0.9985 -5.435326e-02 5.435326e-02 0.9985 -11.9265 8.5361)" class="st20" cx="151" cy="223.5" rx="0.3" ry="0.3"/>
	
		<ellipse transform="matrix(0.9985 -5.435326e-02 5.435326e-02 0.9985 -12.2626 8.9513)" class="st20" cx="158.4" cy="229.9" rx="0.5" ry="0.5"/>
	
		<ellipse transform="matrix(0.9985 -5.435326e-02 5.435326e-02 0.9985 -12.0822 8.0439)" class="st20" cx="141.8" cy="226.1" rx="0.4" ry="0.4"/>
	
		<ellipse transform="matrix(0.9985 -5.435326e-02 5.435326e-02 0.9985 -12.3807 7.9339)" class="st20" cx="139.7" cy="231.6" rx="0.5" ry="0.5"/>
	
		<ellipse transform="matrix(0.9985 -5.435326e-02 5.435326e-02 0.9985 -12.3524 8.816)" class="st20" cx="155.9" cy="231.5" rx="0.3" ry="0.3"/>
	
		<ellipse transform="matrix(0.9985 -5.435326e-02 5.435326e-02 0.9985 -12.0741 8.6751)" class="st20" cx="153.5" cy="226.3" rx="0.4" ry="0.4"/>
	
		<ellipse transform="matrix(0.9985 -5.435326e-02 5.435326e-02 0.9985 -11.9107 8.1358)" class="st20" cx="143.6" cy="223" rx="0.3" ry="0.3"/>
	
		<ellipse transform="matrix(0.9985 -5.435326e-02 5.435326e-02 0.9985 -12.1626 7.8507)" class="st20" cx="138.3" cy="227.5" rx="0.4" ry="0.4"/>
	
		<ellipse transform="matrix(0.9985 -5.435326e-02 5.435326e-02 0.9985 -12.5682 7.8119)" class="st20" cx="137.3" cy="235" rx="0.3" ry="0.3"/>
	<circle class="st22" cx="115.4" cy="189.3" r="24.1"/>
	<circle class="st23" cx="115.4" cy="189.5" r="22.3"/>
	<path class="st22" d="M111.2,180.5c1.3,1.2,2.5,2.4,3.8,3.6c0.4,0.4,0.7,0.5,0.6,0.9c-0.2,0.7-1.3,1.6-1.8,2.3
		c-0.5,0.7-0.9,0.7-0.2,1.3c0.6,0.5,0.9,0.7,0.9,1.3c0,1.5-0.7,3.2-1,4.7c0.6-1.3,1.2-2.6,1.7-3.9c0.2-0.3,0.5-0.8,0.5-1.2
		c-0.1-0.5-1.1-1-1.1-1.5c0-0.4,0.8-1.3,1-1.7c0.3-0.4,0.5-1.1,0.9-1.5c0.4-0.4,1.4-0.6,2-0.9c0.7-0.3,1.3-0.6,2-0.9
		c0.4,0.9,0.8,1.8,1.2,2.7c0.3,0.6,0.5,1.2,0.8,1.8c0.1,0.2,0.4,0.6,0.3,0.7c-0.1,0.2-0.7,0.6-0.8,0.7c-0.5,0.5-1.1,0.9-1.6,1.4
		c-0.8,0.7-1.7,1.4-2.5,2.1c0.6,0.1,1.2,0.2,1.7,0.3c-2,1.8-4,3.5-5.7,5.6c-0.3,0.4-0.6,0.7-0.7,1.1c-0.2,0.7,0.2,1.4,0.1,2.1
		c-0.2,1-1.4,2.1-2,3c-0.1-0.7-0.2-1.4-0.3-2c-0.1-0.8-0.5-1.9-0.4-2.7c0.1-0.6,0.7-1.1,0.9-1.7c0.2-0.5,0-0.7-0.3-1.2
		c-0.5-0.9-1-1.9-1.4-2.8c-0.3-0.6-1.1-1.5-1.1-2.2c0-0.6,0.9-0.9,1.1-1.4c0.2-0.5-0.2-1.5-0.3-2c-0.4,0.6-0.8,1.2-1.3,1.8
		c-1-2-2.2-3.9-2.1-6.1c0-0.5-0.1-0.2,0.2-0.6c0.4-0.4,1.2-0.7,1.7-1C109.1,181.8,110.1,181.2,111.2,180.5z"/>
	<path class="st24" d="M111.2,180.5c0.5-0.1,1.9-0.8,2.4-0.7c0.4,0.1,0.9,0.8,1.1,1c1.2,1.1,2.4,2.2,3.6,3.3
		c-0.5,0.2-1.4,0.4-1.8,0.8c-0.3,0.2-0.5,0.7-0.7,1c-0.4,0.6-0.9,1.2-1.1,1.8c-0.2,0.5-0.1,0.5,0.3,1c0.3,0.3,0.6,0.6,0.6,1
		c0,0.4-0.5,1.1-0.7,1.5c-0.5,1.1-1,2.2-1.5,3.3c0.3-1.5,0.9-3.2,1-4.7c0-0.6-0.3-0.8-0.9-1.3c-0.7-0.6-0.3-0.6,0.2-1.3
		c0.5-0.6,1.6-1.5,1.8-2.3c0.1-0.4-0.2-0.5-0.6-0.9C113.7,182.9,112.4,181.7,111.2,180.5z"/>
	<path class="st24" d="M120.5,183.2c0.4,0.9,0.8,1.8,1.2,2.7c0.3,0.6,0.5,1.2,0.8,1.8c0.1,0.2,0.4,0.6,0.3,0.7
		c-0.1,0.2-0.7,0.6-0.8,0.7c-0.5,0.5-1.1,0.9-1.6,1.4c-0.8,0.7-1.7,1.4-2.5,2.1c0.6,0.1,1.2,0.2,1.7,0.3c-2,1.8-4,3.5-5.7,5.6
		c-0.3,0.4-0.6,0.7-0.7,1.1c-0.2,0.7,0.2,1.4,0.1,2.1c-0.2,1-1.4,2.1-2,3c1.4-0.8,2.8-1.6,4.2-2.4c0.5-0.3,0.8-0.4,0.9-0.8
		c0-0.2,0-1-0.2-1.1c-0.2-0.2-0.5-0.1-0.9-0.1c0.4-0.7,0.5-0.7,1.4-1c1.2-0.4,2.3-0.8,3.5-1.2c0.7-0.3,1-0.2,1.2-0.8
		c0.3-0.8,0.2-1.7,0.3-2.5c-0.4,0.1-0.7,0.2-1.1,0.3c1.2-1.1,2.3-2.2,3.5-3.3c0.8-0.7,1.5-1.4,2.3-2.2c0.3-0.3,0.6-0.5,0.6-0.8
		c0-0.7-0.7-1.8-0.9-2.4c-0.2-0.5-0.4-1.9-0.8-2.3c-0.3-0.3-1.5-0.3-1.9-0.4C122.2,183.5,121.4,183.4,120.5,183.2z"/>
	<path class="st24" d="M108.2,190.2c0.1,0.5,0.3,1,0.4,1.5c0.3-0.4,1.1-0.9,1.2-1.4c0.1-0.5-0.2-1.4-0.3-2
		C109,189,108.6,189.6,108.2,190.2z"/>
	<path class="st24" d="M104.7,195.6c-0.9-0.8-1.8-1.6-2.6-2.4c-0.3-0.3-0.5-0.4-0.6-0.8c-0.2-0.5-0.1-1.2-0.2-1.8
		c0.4,0,0.8,0,1.3-0.1c0,0.4,0,0.8,0,1.3c0.2-0.6,0.5-1.1,0.7-1.7c-0.5-0.1-1-0.3-1.5-0.4c0.3-0.8,0.5-1.3,0.3-2.2
		c-0.2-0.9-0.5-1.9-0.7-2.8c-0.2,0.6-0.5,1.2-0.7,1.8c-0.3,0.7-0.5,0.8-0.1,1.4c0.3,0.6,0.5,0.6,0.4,1.2c-0.1,0.8-0.4,1.6-0.5,2.4
		c-0.1,0.3-0.3,1-0.2,1.3c0.2,0.5,1.2,1.1,1.5,1.4c0.3,0.3,0.7,0.8,1.1,1C103.3,195.5,104.1,195.5,104.7,195.6z"/>
	<path class="st24" d="M120.3,173.1c0.3,0.6,0.7,1.1,0.7,1.8c0,0.3-0.4,0.9-0.3,1.1c0.1,0.2,0.6,0.4,0.8,0.5
		c0.2-0.3,0.3-0.9,0.6-1.1c0.2-0.2,0.5,0,0.8,0.1c-0.3,0.6-0.8,1.1-1,1.7c-0.1,0.3-0.2,0.2-0.1,0.4c0.1,0.2,0.6,0.5,0.8,0.6
		c-0.4,0.2-0.8,0.6-1.2,0.7c-0.5,0.1-1.1,0-1.5,0c0.5,0.2,1.2,0.7,1.7,0.7c0.6-0.1,1.4-0.7,2-1c-0.3-0.5-0.7-1-0.7-1.5
		c0-0.6,0.9-1.5,0.7-2c-0.1-0.3-0.8-0.5-1-0.7c-0.2-0.2-0.3-0.5-0.5-0.8C121.5,172.9,121.2,173.1,120.3,173.1z"/>
	<path class="st24" d="M126.3,194.9c0,0.4-0.2,1.2,0,1.6c0.1,0.3,0.7,0.7,1,0.9c-0.5,0.3-1.1,0.6-1.5,1.1c-0.1,0.1-0.3,0.2-0.3,0.3
		c-0.1,0.3,0.3,0.7,0.2,1c-0.1,0.2-0.9,0.6-1.2,0.6c-0.5,0.1-1.3-0.2-1.8-0.3c0.5,0.3,1,0.6,1.6,0.8c0.5,0.2,0.9,0.2,1.4,0.2
		c0.6,0,1-0.1,1.3-0.7c0.2-0.4,0.2,0,0.1-0.5c-0.1-0.3-0.6-0.5-0.6-0.8c-0.2-0.7,1.8-1.2,1.8-2c0-0.3-0.6-1.1-0.7-1.5
		c-0.2-0.4,0-0.3-0.4-0.5C126.9,195.1,126.6,195,126.3,194.9z"/>
	<path class="st22" d="M104.7,195.6c-0.9-0.8-1.8-1.6-2.6-2.4c-0.3-0.3-0.5-0.4-0.6-0.8c-0.2-0.5-0.1-1.2-0.2-1.8
		c0.4,0,0.8,0,1.3-0.1c0,0.4,0,0.8,0,1.3c0.2-0.6,0.5-1.1,0.7-1.7c-0.5-0.1-1-0.3-1.5-0.4c0.3-0.8,0.5-1.3,0.3-2.2
		c-0.2-0.9-0.5-1.9-0.7-2.8c0.4,0.4,0.8,0.8,1.1,1.3c0.3,0.6,0.3,1.4,0.7,2c0.6,1.1,1.7,2.2,2.5,3.2c-0.3,0.2-0.7,0.7-1,0.8
		c-0.3,0.1-0.8-0.1-1.1-0.2c0.1,0.3,0.2,0.6,0.4,0.8c0.3,0.4,0.8,0.5,1.1,0.9c0.3,0.3,0.2,0.2,0.1,0.7
		C105,194.7,104.8,195.2,104.7,195.6z"/>
	<path class="st22" d="M120.3,173.1c0.3,0.6,0.7,1.1,0.7,1.8c0,0.3-0.4,0.9-0.3,1.1c0.1,0.2,0.6,0.4,0.8,0.5
		c0.2-0.3,0.3-0.9,0.6-1.1c0.2-0.2,0.5,0,0.8,0.1c-0.3,0.6-0.8,1.1-1,1.7c-0.1,0.3-0.2,0.2-0.1,0.4c0.1,0.2,0.6,0.5,0.8,0.6
		c-0.8,0.5-1.7,1-2.7,0.7c-0.2-0.1-0.9-0.5-0.9-0.7c0-0.3,0.7-1,0.9-1.2c-0.9-0.1-1.4-0.5-2.1-1c0.3-0.3,0.7-0.6,0.9-0.9
		c0.2-0.4-0.2-0.6,0-1.1C118.5,173.6,119.8,173.3,120.3,173.1z"/>
	<path class="st22" d="M126.3,194.9c-0.5,0-1.1,0-1.6,0c-0.7,0-0.6,0.1-0.7,0.8c-0.1,0.8,0,0.5,0.5,1.1c0.4,0.4,0.2,0.5,0,1.2
		c-0.4-0.3-0.7-0.5-1.1-0.8c-0.2,0.3-0.3,0.8-0.6,1c-0.2,0.2-0.8,0.5-0.8,0.7c0,0.2,0.6,1.1,0.7,1.1c0.3,0.2,1.2,0.3,1.5,0.3
		c0.4,0,0.7-0.1,1.1-0.3c0.6-0.4,0.2-0.3,0.2-1c0-0.6,1.2-1.2,1.8-1.6c-0.3-0.3-0.8-0.6-1-0.9C126.2,196.1,126.3,195.3,126.3,194.9z
		"/>
	<path class="st24" d="M106.8,175.8c0.2,0.3,0.4,0.7,0.4,1c0,0.2-0.2,0.5-0.2,0.7c0,0.1,0.3,0.2,0.4,0.3c0.1-0.2,0.2-0.5,0.3-0.6
		c0.1-0.1,0.3,0,0.5,0c-0.2,0.3-0.5,0.7-0.6,1c-0.1,0.2-0.1,0.1-0.1,0.3c0,0.1,0.4,0.3,0.5,0.4c-0.2,0.1-0.5,0.3-0.7,0.4
		c-0.3,0.1-0.6,0-0.9,0c0.3,0.1,0.7,0.4,1,0.4c0.4-0.1,0.8-0.4,1.2-0.6c-0.2-0.3-0.4-0.6-0.4-0.9c0-0.3,0.5-0.9,0.4-1.2
		c0-0.1-0.5-0.3-0.6-0.4c-0.1-0.1-0.2-0.3-0.3-0.5C107.5,175.7,107.4,175.8,106.8,175.8z"/>
	<path class="st22" d="M106.8,175.8c0.2,0.3,0.4,0.7,0.4,1c0,0.2-0.2,0.5-0.2,0.7c0,0.1,0.3,0.2,0.4,0.3c0.1-0.2,0.2-0.5,0.3-0.6
		c0.1-0.1,0.3,0,0.5,0c-0.2,0.3-0.5,0.7-0.6,1c-0.1,0.2-0.1,0.1-0.1,0.3c0,0.1,0.4,0.3,0.5,0.4c-0.5,0.3-1,0.6-1.6,0.4
		c-0.1,0-0.5-0.3-0.5-0.4c0-0.1,0.4-0.6,0.5-0.7c-0.6-0.1-0.8-0.3-1.2-0.6c0.2-0.2,0.4-0.3,0.5-0.5c0.1-0.3-0.1-0.3,0-0.6
		C105.8,176.1,106.6,175.9,106.8,175.8z"/>
	<circle class="st25" cx="122" cy="131.4" r="24.1"/>
	<circle class="st26" cx="122" cy="131.4" r="22.3"/>
	<path class="st27" d="M108.7,133.3c0,1.3,1.3,1.9,2.3,1.1c0.8-0.6,0.8-2.4,2-2.6c1.2-0.2,2.3,1.2,1.7,2.2c-0.9,1.2-1.9-0.2-1.1-1.2
		c-2.1,0.4-0.5,3.7,1.4,2.4c1.6-1.1,0.9-3-0.6-3.6c0.6-0.7,2.1-1.4,2.8-0.4c0.6,1-1,1.5-1.2,0.2c-0.7,1,0.9,1.9,1.7,1
		c0.9-1,0.3-1.9-1-2.3c0.4,0,0.5-0.1,0.9,0c-0.9-1.5-3.3-0.7-3.5,0.9c-0.3-0.8-0.1-1.7-1.1-1.7c-0.7,0-1.4,0.7-1.8,1.2
		c0.9-0.6,1.7,0.1,2,1c-1.8-0.9-1.6,1.8-2.4,2.4c-1.3,1-2.2-1.4-0.6-2C109.1,131.7,108.9,132.4,108.7,133.3z"/>
	<path class="st27" d="M118.3,124.1c-0.2,1.5,1,1.9,2.1,0.6c0.9-1,1.1-2.9,2.4-3.5c1.3-0.6,2.2,0.8,1.4,2c-1.1,1.7-2,0.2-0.9-1.1
		c-2.2,1.1-1.1,4.4,1,2.5c1.8-1.7,1.4-3.7-0.1-4.1c0.7-0.9,2.4-2.2,2.9-1.2c0.5,1-1.3,2-1.2,0.5c-0.9,1.4,0.6,2,1.6,0.7
		c1-1.4,0.6-2.3-0.6-2.4c0.4-0.2,0.6-0.3,1-0.3c-0.7-1.5-3.3,0.1-3.7,2c-0.1-0.8,0.2-1.9-0.9-1.7c-0.8,0.2-1.5,1.2-2,1.9
		c1-0.9,1.7-0.4,1.9,0.6c-1.7-0.6-1.9,2.5-2.8,3.5c-1.5,1.6-2-1.1-0.3-2.2C119,122.2,118.6,123.1,118.3,124.1z"/>
	<path class="st25" d="M107.7,141.9c-3.2-2.5-2.4-6.7,1.7-7.5c3.1-0.6,7.4,2.5,10.3,0c2.8-2.5,1.4-8-2.1-8.2c-4.8-0.3-3.1,5.2,1,4.8
		c-5.2,4.3-10.1-5.6-3.5-7.9c5.8-2,9.2,3.2,8,8.2c2.7-0.2,7.6-2.4,6.3-6c-1.2-3.4-5.7-0.2-2.7,2.6c-3.9-0.3-3-5.8,0.8-5.9
		c4.3-0.1,5.4,2.9,3.9,6.6c0.9-0.9,1.3-1,1.9-2.2c2,5-4.6,9.4-9.1,6.9c1.4,2.1,4,3.3,2.1,6c-1.3,1.9-4.4,2.1-6.5,2.1
		c3-1.1,3.1-4.3,1.4-6.6c-1.2,6.2-7.4,0.5-10.7,1.3c-5.1,1.2-0.6,8,3.9,5.1C112.4,143.7,110.3,143,107.7,141.9z"/>
	<path class="st27" d="M110.9,140c-0.5-1.1,0.3-2,1.5-1.7c0.9,0.3,1.5,1.7,2.6,1.5c1.1-0.2,1.5-1.8,0.6-2.4
		c-1.2-0.7-1.5,0.9-0.4,1.4c-1.9,0.4-1.8-2.9,0.2-2.5c1.8,0.3,1.9,2.1,0.9,3.2c0.7,0.3,2.3,0.5,2.5-0.6c0.2-1-1.4-0.9-1.1,0.3
		c-1-0.6,0-1.9,1-1.4c1.1,0.6,1,1.5,0,2.2c0.3-0.1,0.5-0.1,0.8-0.3c-0.2,1.5-2.5,1.7-3.3,0.5c0.1,0.7,0.5,1.4-0.3,1.8
		c-0.6,0.3-1.4-0.1-1.9-0.4c0.9,0.2,1.4-0.7,1.3-1.5c-1.2,1.4-2-0.9-2.9-1.2c-1.5-0.4-1.3,1.9,0.3,1.8
		C111.9,141.1,111.4,140.7,110.9,140z"/>
	<path class="st27" d="M124,134c-0.7-1.4,0.3-2.5,1.9-2c1.2,0.4,2.3,2.3,3.7,2.1c1.5-0.2,1.9-2.2,0.6-2.9c-1.7-1-2,1-0.5,1.7
		c-2.6,0.3-2.7-3.8,0.1-3.1c2.5,0.6,2.8,2.9,1.5,4.1c1,0.5,3.2,0.8,3.3-0.6c0.1-1.3-2-1.2-1.4,0.2c-1.4-0.9-0.1-2.4,1.3-1.6
		c1.6,0.8,1.5,2,0.3,2.8c0.5-0.1,0.7,0,1.1-0.3c-0.1,1.9-3.3,2-4.5,0.3c0.2,0.9,0.9,1.8-0.3,2.3c-0.8,0.3-2-0.2-2.7-0.7
		c1.3,0.3,1.9-0.7,1.7-1.7c-1.5,1.6-2.8-1.4-4.1-1.8c-2.1-0.7-1.6,2.3,0.6,2.3C125.4,135.5,124.8,134.9,124,134z"/>
	<path class="st28" d="M194.7,157.8C194.7,157.8,194.8,157.8,194.7,157.8C194.7,157.8,194.7,157.8,194.7,157.8
		c-0.5-0.1-1-0.2-1.4-0.4c-0.5-0.2-0.8-0.5-1.2-0.8c-0.4-0.3-0.6-0.7-0.9-1.1c-0.5-0.7-0.7-1.6-0.9-2.5c0,0,0,0,0,0c0,0,0,0,0,0
		c0,0,0,0,0,0c0,0,0,0,0,0c-0.3,0.8-0.5,1.7-0.9,2.5c-0.3,0.4-0.5,0.8-0.9,1.1c-0.4,0.3-0.8,0.5-1.2,0.8c-0.4,0.2-0.9,0.3-1.3,0.4
		c0,0,0,0-0.1,0c0,0,0,0,0,0c0,0,0,0-0.1,0c0,0,0.1,0,0.1,0c0.5,0.1,0.9,0.2,1.3,0.4c0.5,0.2,0.8,0.5,1.2,0.8
		c0.4,0.3,0.6,0.7,0.9,1.1c0.5,0.7,0.7,1.6,0.9,2.5c0,0,0,0,0,0c0,0,0,0,0,0c0,0,0,0,0,0c0,0,0,0,0,0c0.3-0.8,0.5-1.7,0.9-2.5
		c0.3-0.4,0.5-0.8,0.9-1.1c0.4-0.3,0.8-0.5,1.2-0.8C193.8,158,194.2,158,194.7,157.8C194.7,157.8,194.7,157.8,194.7,157.8
		C194.7,157.8,194.7,157.8,194.7,157.8z"/>
	<path class="st28" d="M166.9,186.6C166.9,186.6,167,186.6,166.9,186.6C166.9,186.6,166.9,186.6,166.9,186.6c-0.5-0.1-1-0.2-1.4-0.4
		c-0.5-0.2-0.8-0.5-1.2-0.8c-0.4-0.3-0.6-0.7-0.9-1.1c-0.5-0.7-0.7-1.6-0.9-2.5c0,0,0,0,0,0c0,0,0,0,0,0c0,0,0,0,0,0c0,0,0,0,0,0
		c-0.3,0.8-0.5,1.7-0.9,2.5c-0.3,0.4-0.5,0.8-0.9,1.1c-0.4,0.3-0.8,0.5-1.2,0.8c-0.4,0.2-0.9,0.3-1.3,0.4c0,0,0,0-0.1,0c0,0,0,0,0,0
		c0,0,0,0-0.1,0c0,0,0.1,0,0.1,0c0.5,0.1,0.9,0.2,1.3,0.4c0.5,0.2,0.8,0.5,1.2,0.8c0.4,0.3,0.6,0.7,0.9,1.1c0.5,0.7,0.7,1.6,0.9,2.5
		c0,0,0,0,0,0c0,0,0,0,0,0c0,0,0,0,0,0c0,0,0,0,0,0c0.3-0.8,0.5-1.7,0.9-2.5c0.3-0.4,0.5-0.8,0.9-1.1c0.4-0.3,0.8-0.5,1.2-0.8
		C166,186.8,166.4,186.7,166.9,186.6C166.9,186.6,166.9,186.6,166.9,186.6C166.9,186.6,166.9,186.6,166.9,186.6z"/>
	<path class="st28" d="M194.8,196.2C194.8,196.2,194.8,196.2,194.8,196.2C194.8,196.2,194.7,196.2,194.8,196.2
		c-0.5-0.1-1-0.2-1.4-0.4c-0.5-0.2-0.8-0.5-1.2-0.8c-0.4-0.3-0.6-0.7-0.9-1.1c-0.5-0.7-0.7-1.6-0.9-2.5c0,0,0,0,0,0c0,0,0,0,0,0
		c0,0,0,0,0,0c0,0,0,0,0,0c-0.3,0.8-0.5,1.7-0.9,2.5c-0.3,0.4-0.5,0.8-0.9,1.1c-0.4,0.3-0.8,0.5-1.2,0.8c-0.4,0.2-0.9,0.3-1.3,0.4
		c0,0,0,0-0.1,0c0,0,0,0,0,0c0,0,0,0-0.1,0c0,0,0.1,0,0.1,0c0.5,0.1,0.9,0.2,1.3,0.4c0.5,0.2,0.8,0.5,1.2,0.8
		c0.4,0.3,0.6,0.7,0.9,1.1c0.5,0.7,0.7,1.6,0.9,2.5c0,0,0,0,0,0c0,0,0,0,0,0c0,0,0,0,0,0c0,0,0,0,0,0c0.3-0.8,0.5-1.7,0.9-2.5
		c0.3-0.4,0.5-0.8,0.9-1.1c0.4-0.3,0.8-0.5,1.2-0.8C193.8,196.4,194.3,196.3,194.8,196.2C194.7,196.2,194.8,196.2,194.8,196.2
		C194.8,196.2,194.8,196.2,194.8,196.2z"/>
	<path class="st28" d="M169.2,162.7C169.2,162.7,169.2,162.7,169.2,162.7C169.2,162.7,169.2,162.7,169.2,162.7
		c-0.5-0.1-1-0.2-1.4-0.4c-0.5-0.2-0.8-0.5-1.2-0.8c-0.4-0.3-0.6-0.7-0.9-1.1c-0.5-0.7-0.7-1.6-0.9-2.5c0,0,0,0,0,0c0,0,0,0,0,0
		c0,0,0,0,0,0c0,0,0,0,0,0c-0.3,0.8-0.5,1.7-0.9,2.5c-0.3,0.4-0.5,0.8-0.9,1.1c-0.4,0.3-0.8,0.5-1.2,0.8c-0.4,0.2-0.9,0.3-1.3,0.4
		c0,0,0,0-0.1,0c0,0,0,0,0,0c0,0,0,0-0.1,0c0,0,0.1,0,0.1,0c0.5,0.1,0.9,0.2,1.3,0.4c0.5,0.2,0.8,0.5,1.2,0.8
		c0.4,0.3,0.6,0.7,0.9,1.1c0.5,0.7,0.7,1.6,0.9,2.5c0,0,0,0,0,0c0,0,0,0,0,0c0,0,0,0,0,0c0,0,0,0,0,0c0.3-0.8,0.5-1.7,0.9-2.5
		c0.3-0.4,0.5-0.8,0.9-1.1c0.4-0.3,0.8-0.5,1.2-0.8C168.2,162.9,168.7,162.8,169.2,162.7C169.2,162.7,169.2,162.7,169.2,162.7
		C169.2,162.7,169.2,162.7,169.2,162.7z"/>
	<path class="st28" d="M202,167.5C202,167.5,202,167.5,202,167.5C202,167.5,202,167.5,202,167.5c-0.3-0.1-0.6-0.1-0.9-0.3
		c-0.3-0.2-0.5-0.3-0.8-0.5c-0.2-0.2-0.4-0.4-0.6-0.7c-0.3-0.5-0.4-1-0.6-1.5c0,0,0,0,0,0c0,0,0,0,0,0c0,0,0,0,0,0c0,0,0,0,0,0
		c-0.2,0.5-0.3,1.1-0.6,1.5c-0.2,0.3-0.3,0.5-0.6,0.7c-0.3,0.2-0.5,0.3-0.8,0.5c-0.3,0.1-0.6,0.2-0.8,0.3c0,0,0,0,0,0c0,0,0,0,0,0
		c0,0,0,0,0,0c0,0,0,0,0.1,0c0.3,0.1,0.6,0.1,0.8,0.3c0.3,0.2,0.5,0.3,0.8,0.5c0.2,0.2,0.4,0.4,0.6,0.7c0.3,0.5,0.4,1,0.6,1.5
		c0,0,0,0,0,0c0,0,0,0,0,0c0,0,0,0,0,0c0,0,0,0,0,0c0.2-0.5,0.3-1.1,0.6-1.5c0.2-0.3,0.3-0.5,0.6-0.7c0.3-0.2,0.5-0.3,0.8-0.5
		C201.4,167.7,201.7,167.6,202,167.5C202,167.5,202,167.5,202,167.5C202,167.5,202,167.5,202,167.5z"/>
	<path class="st28" d="M174.8,155.5C174.8,155.4,174.8,155.4,174.8,155.5C174.8,155.4,174.8,155.4,174.8,155.5
		c-0.3-0.1-0.6-0.1-0.9-0.3c-0.3-0.2-0.5-0.3-0.8-0.5c-0.2-0.2-0.4-0.4-0.6-0.7c-0.3-0.5-0.4-1-0.6-1.5c0,0,0,0,0,0c0,0,0,0,0,0
		c0,0,0,0,0,0c0,0,0,0,0,0c-0.2,0.5-0.3,1.1-0.6,1.5c-0.2,0.3-0.3,0.5-0.6,0.7c-0.3,0.2-0.5,0.3-0.8,0.5c-0.3,0.1-0.6,0.2-0.8,0.3
		c0,0,0,0,0,0c0,0,0,0,0,0c0,0,0,0,0,0c0,0,0,0,0.1,0c0.3,0.1,0.6,0.1,0.8,0.3c0.3,0.2,0.5,0.3,0.8,0.5c0.2,0.2,0.4,0.4,0.6,0.7
		c0.3,0.5,0.4,1,0.6,1.5c0,0,0,0,0,0c0,0,0,0,0,0c0,0,0,0,0,0c0,0,0,0,0,0c0.2-0.5,0.3-1.1,0.6-1.5c0.2-0.3,0.3-0.5,0.6-0.7
		c0.3-0.2,0.5-0.3,0.8-0.5C174.2,155.6,174.5,155.5,174.8,155.5C174.8,155.5,174.8,155.5,174.8,155.5
		C174.8,155.5,174.8,155.5,174.8,155.5z"/>
	<path class="st28" d="M199.2,186.5C199.2,186.5,199.2,186.5,199.2,186.5C199.2,186.5,199.2,186.5,199.2,186.5
		c-0.3-0.1-0.6-0.1-0.9-0.3c-0.3-0.2-0.5-0.3-0.8-0.5c-0.2-0.2-0.4-0.4-0.6-0.7c-0.3-0.5-0.4-1-0.6-1.5c0,0,0,0,0,0c0,0,0,0,0,0
		c0,0,0,0,0,0c0,0,0,0,0,0c-0.2,0.5-0.3,1.1-0.6,1.5c-0.2,0.3-0.3,0.5-0.6,0.7c-0.3,0.2-0.5,0.3-0.8,0.5c-0.3,0.1-0.6,0.2-0.8,0.3
		c0,0,0,0,0,0c0,0,0,0,0,0c0,0,0,0,0,0c0,0,0,0,0.1,0c0.3,0.1,0.6,0.1,0.8,0.3c0.3,0.2,0.5,0.3,0.8,0.5c0.2,0.2,0.4,0.4,0.6,0.7
		c0.3,0.5,0.4,1,0.6,1.5c0,0,0,0,0,0c0,0,0,0,0,0c0,0,0,0,0,0c0,0,0,0,0,0c0.2-0.5,0.3-1.1,0.6-1.5c0.2-0.3,0.3-0.5,0.6-0.7
		c0.3-0.2,0.5-0.3,0.8-0.5C198.6,186.7,198.9,186.6,199.2,186.5C199.2,186.5,199.2,186.5,199.2,186.5
		C199.2,186.5,199.2,186.5,199.2,186.5z"/>
	<path class="st28" d="M172,198.6C172,198.6,172,198.6,172,198.6C172,198.6,172,198.6,172,198.6c-0.3-0.1-0.6-0.1-0.9-0.3
		c-0.3-0.2-0.5-0.3-0.8-0.5c-0.2-0.2-0.4-0.4-0.6-0.7c-0.3-0.5-0.4-1-0.6-1.5c0,0,0,0,0,0c0,0,0,0,0,0c0,0,0,0,0,0c0,0,0,0,0,0
		c-0.2,0.5-0.3,1.1-0.6,1.5c-0.2,0.3-0.3,0.5-0.6,0.7c-0.3,0.2-0.5,0.3-0.8,0.5c-0.3,0.1-0.6,0.2-0.8,0.3c0,0,0,0,0,0c0,0,0,0,0,0
		c0,0,0,0,0,0c0,0,0,0,0.1,0c0.3,0.1,0.6,0.1,0.8,0.3c0.3,0.2,0.5,0.3,0.8,0.5c0.2,0.2,0.4,0.4,0.6,0.7c0.3,0.5,0.4,1,0.6,1.5
		c0,0,0,0,0,0c0,0,0,0,0,0c0,0,0,0,0,0c0,0,0,0,0,0c0.2-0.5,0.3-1.1,0.6-1.5c0.2-0.3,0.3-0.5,0.6-0.7c0.3-0.2,0.5-0.3,0.8-0.5
		C171.4,198.7,171.7,198.7,172,198.6C172,198.6,172,198.6,172,198.6C172,198.6,172,198.6,172,198.6z"/>
	<path class="st28" d="M173.4,191.3C173.4,191.3,173.4,191.3,173.4,191.3C173.4,191.3,173.4,191.3,173.4,191.3
		c-0.3-0.1-0.6-0.1-0.9-0.3c-0.3-0.2-0.5-0.3-0.8-0.5c-0.2-0.2-0.4-0.4-0.6-0.7c-0.3-0.5-0.4-1-0.6-1.5c0,0,0,0,0,0c0,0,0,0,0,0
		c0,0,0,0,0,0c0,0,0,0,0,0c-0.2,0.5-0.3,1.1-0.6,1.5c-0.2,0.3-0.3,0.5-0.6,0.7c-0.3,0.2-0.5,0.3-0.8,0.5c-0.3,0.1-0.6,0.2-0.8,0.3
		c0,0,0,0,0,0c0,0,0,0,0,0c0,0,0,0,0,0c0,0,0,0,0.1,0c0.3,0.1,0.6,0.1,0.8,0.3c0.3,0.2,0.5,0.3,0.8,0.5c0.2,0.2,0.4,0.4,0.6,0.7
		c0.3,0.5,0.4,1,0.6,1.5c0,0,0,0,0,0c0,0,0,0,0,0c0,0,0,0,0,0c0,0,0,0,0,0c0.2-0.5,0.3-1.1,0.6-1.5c0.2-0.3,0.3-0.5,0.6-0.7
		c0.3-0.2,0.5-0.3,0.8-0.5C172.8,191.5,173.1,191.4,173.4,191.3C173.4,191.3,173.4,191.3,173.4,191.3
		C173.4,191.3,173.4,191.3,173.4,191.3z"/>
	<path class="st28" d="M205.8,184.2C205.8,184.2,205.8,184.2,205.8,184.2C205.8,184.2,205.8,184.2,205.8,184.2
		c-0.3-0.1-0.6-0.1-0.9-0.3c-0.3-0.2-0.5-0.3-0.8-0.5c-0.2-0.2-0.4-0.4-0.6-0.7c-0.3-0.5-0.4-1-0.6-1.5c0,0,0,0,0,0c0,0,0,0,0,0
		c0,0,0,0,0,0c0,0,0,0,0,0c-0.2,0.5-0.3,1.1-0.6,1.5c-0.2,0.3-0.3,0.5-0.6,0.7c-0.3,0.2-0.5,0.3-0.8,0.5c-0.3,0.1-0.6,0.2-0.8,0.3
		c0,0,0,0,0,0c0,0,0,0,0,0c0,0,0,0,0,0c0,0,0,0,0.1,0c0.3,0.1,0.6,0.1,0.8,0.3c0.3,0.2,0.5,0.3,0.8,0.5c0.2,0.2,0.4,0.4,0.6,0.7
		c0.3,0.5,0.4,1,0.6,1.5c0,0,0,0,0,0c0,0,0,0,0,0c0,0,0,0,0,0c0,0,0,0,0,0c0.2-0.5,0.3-1.1,0.6-1.5c0.2-0.3,0.3-0.5,0.6-0.7
		c0.3-0.2,0.5-0.3,0.8-0.5C205.2,184.3,205.5,184.3,205.8,184.2C205.8,184.2,205.8,184.2,205.8,184.2
		C205.8,184.2,205.8,184.2,205.8,184.2z"/>
	<path class="st28" d="M160.8,170.5C160.8,170.5,160.8,170.5,160.8,170.5C160.8,170.5,160.8,170.5,160.8,170.5
		c-0.3-0.1-0.6-0.1-0.9-0.3c-0.3-0.2-0.5-0.3-0.8-0.5c-0.2-0.2-0.4-0.4-0.6-0.7c-0.3-0.5-0.4-1-0.6-1.5c0,0,0,0,0,0c0,0,0,0,0,0
		c0,0,0,0,0,0c0,0,0,0,0,0c-0.2,0.5-0.3,1.1-0.6,1.5c-0.2,0.3-0.3,0.5-0.6,0.7c-0.3,0.2-0.5,0.3-0.8,0.5c-0.3,0.1-0.6,0.2-0.8,0.3
		c0,0,0,0,0,0c0,0,0,0,0,0c0,0,0,0,0,0c0,0,0,0,0.1,0c0.3,0.1,0.6,0.1,0.8,0.3c0.3,0.2,0.5,0.3,0.8,0.5c0.2,0.2,0.4,0.4,0.6,0.7
		c0.3,0.5,0.4,1,0.6,1.5c0,0,0,0,0,0c0,0,0,0,0,0c0,0,0,0,0,0c0,0,0,0,0,0c0.2-0.5,0.3-1.1,0.6-1.5c0.2-0.3,0.3-0.5,0.6-0.7
		c0.3-0.2,0.5-0.3,0.8-0.5C160.2,170.7,160.5,170.6,160.8,170.5C160.8,170.5,160.8,170.5,160.8,170.5
		C160.8,170.5,160.8,170.5,160.8,170.5z"/>
	<path class="st28" d="M195.7,165.1C195.7,165.1,195.8,165.1,195.7,165.1C195.7,165.1,195.7,165.1,195.7,165.1
		c-0.3-0.1-0.6-0.1-0.9-0.3c-0.3-0.2-0.5-0.3-0.8-0.5c-0.2-0.2-0.4-0.4-0.6-0.7c-0.3-0.5-0.4-1-0.6-1.5c0,0,0,0,0,0c0,0,0,0,0,0
		c0,0,0,0,0,0c0,0,0,0,0,0c-0.2,0.5-0.3,1.1-0.6,1.5c-0.2,0.3-0.3,0.5-0.6,0.7c-0.3,0.2-0.5,0.3-0.8,0.5c-0.3,0.1-0.6,0.2-0.8,0.3
		c0,0,0,0,0,0c0,0,0,0,0,0c0,0,0,0,0,0c0,0,0,0,0.1,0c0.3,0.1,0.6,0.1,0.8,0.3c0.3,0.2,0.5,0.3,0.8,0.5c0.2,0.2,0.4,0.4,0.6,0.7
		c0.3,0.5,0.4,1,0.6,1.5c0,0,0,0,0,0c0,0,0,0,0,0c0,0,0,0,0,0c0,0,0,0,0,0c0.2-0.5,0.3-1.1,0.6-1.5c0.2-0.3,0.3-0.5,0.6-0.7
		c0.3-0.2,0.5-0.3,0.8-0.5C195.1,165.2,195.4,165.2,195.7,165.1C195.7,165.1,195.7,165.1,195.7,165.1
		C195.7,165.1,195.7,165.1,195.7,165.1z"/>
	<g>
		<path class="st1" d="M205.8,176.6c0.1,0,0.2-0.1,0.3-0.1c-0.2,0-0.4,0-0.6,0c-2.7-0.7-5.3-1.2-7.8-2.5c-2.7-1.4-4.8-2.7-7.1-4.6
			c-2.2-1.8-3.8-4.1-5.3-6.5c-2.7-4.3-4-9.5-5.4-14.3c0,0,0-0.1,0-0.1c0,0,0,0,0,0c0,0,0,0,0,0c0,0,0,0.1,0,0.1
			c-1.5,4.8-2.7,10-5.4,14.3c-1.5,2.4-3.1,4.7-5.3,6.5c-2.3,1.9-4.5,3.2-7.1,4.6c-2.4,1.3-5.1,1.8-7.8,2.5c-0.1,0-0.2,0-0.3,0
			c0.1,0,0.1,0,0.2,0c-0.1,0-0.2,0.1-0.3,0.1c0.2,0,0.4,0,0.6,0c2.7,0.7,5.3,1.2,7.8,2.5c2.7,1.4,4.8,2.7,7.1,4.6
			c2.2,1.8,3.8,4.1,5.3,6.5c2.7,4.3,4,9.5,5.4,14.3c0,0,0,0.1,0,0.1c0,0,0,0,0,0c0,0,0,0,0,0c0,0,0-0.1,0-0.1
			c1.5-4.8,2.7-10,5.4-14.3c1.5-2.4,3.1-4.7,5.3-6.5c2.3-1.9,4.5-3.2,7.1-4.6c2.4-1.3,5.1-1.8,7.8-2.5c0.1,0,0.2,0,0.3,0
			C205.9,176.7,205.8,176.7,205.8,176.6z"/>
		<path class="st29" d="M194.7,176.8c0.1,0,0.1,0,0.2,0c-0.1,0-0.2,0-0.4,0c-1.6-0.4-3.1-0.7-4.5-1.4c-1.6-0.8-2.8-1.6-4.2-2.7
			c-1.3-1-2.2-2.4-3.1-3.8c-1.6-2.5-2.3-5.5-3.2-8.3c0,0,0,0,0-0.1c0,0,0,0,0,0c0,0,0,0,0,0c0,0,0,0,0,0.1c-0.9,2.8-1.6,5.8-3.2,8.3
			c-0.9,1.4-1.8,2.7-3.1,3.8c-1.4,1.1-2.6,1.9-4.2,2.7c-1.4,0.8-3,1-4.5,1.4c-0.1,0-0.1,0-0.2,0c0,0,0.1,0,0.1,0c-0.1,0-0.1,0-0.2,0
			c0.1,0,0.2,0,0.4,0c1.6,0.4,3.1,0.7,4.5,1.4c1.6,0.8,2.8,1.6,4.2,2.7c1.3,1,2.2,2.4,3.1,3.8c1.6,2.5,2.3,5.5,3.2,8.3
			c0,0,0,0,0,0.1c0,0,0,0,0,0c0,0,0,0,0,0c0,0,0,0,0-0.1c0.9-2.8,1.6-5.8,3.2-8.3c0.9-1.4,1.8-2.7,3.1-3.8c1.4-1.1,2.6-1.9,4.2-2.7
			C191.5,177.5,193.1,177.2,194.7,176.8C194.7,176.8,194.8,176.8,194.7,176.8C194.8,176.8,194.8,176.8,194.7,176.8z"/>
	</g>
</g>
</svg>
